G04*
G04 #@! TF.GenerationSoftware,Altium Limited,Altium Designer,23.8.1 (32)*
G04*
G04 Layer_Color=65535*
%FSLAX25Y25*%
%MOIN*%
G70*
G04*
G04 #@! TF.SameCoordinates,29178C35-F4AC-4926-8FEA-C3B9FECDB407*
G04*
G04*
G04 #@! TF.FilePolarity,Positive*
G04*
G01*
G75*
%ADD10C,0.00394*%
%ADD11C,0.00787*%
%ADD12C,0.02362*%
%ADD13C,0.00984*%
%ADD14C,0.01000*%
%ADD15C,0.01575*%
G36*
X310067Y483088D02*
X310140D01*
Y483015D01*
X310286D01*
Y482941D01*
X310360D01*
Y482868D01*
X310433D01*
Y482722D01*
X310506D01*
Y482576D01*
X310579D01*
Y482357D01*
X310652D01*
Y482064D01*
X310725D01*
Y480822D01*
X310652D01*
Y480529D01*
X310579D01*
Y480383D01*
X310506D01*
Y480237D01*
X310433D01*
Y480091D01*
X310360D01*
Y480018D01*
X310286D01*
Y479944D01*
X310213D01*
Y479871D01*
X310140D01*
Y479798D01*
X310067D01*
Y479725D01*
X309921D01*
Y479798D01*
X309848D01*
Y480164D01*
X309921D01*
Y480310D01*
X309994D01*
Y480456D01*
X310067D01*
Y480675D01*
X310140D01*
Y480895D01*
X310213D01*
Y481187D01*
X310286D01*
Y481626D01*
Y481699D01*
Y481991D01*
X310213D01*
Y482284D01*
X310140D01*
Y482503D01*
X310067D01*
Y482576D01*
X309994D01*
Y482722D01*
X309921D01*
Y482795D01*
X309848D01*
Y482941D01*
X309775D01*
Y483015D01*
X309702D01*
Y483161D01*
X310067D01*
Y483088D01*
D02*
G37*
G36*
X307947Y482941D02*
X307874D01*
Y482868D01*
X307801D01*
Y482722D01*
X307728D01*
Y482649D01*
X307655D01*
Y482503D01*
X307582D01*
Y482357D01*
X307509D01*
Y482137D01*
X307436D01*
Y481114D01*
X307509D01*
Y480822D01*
X307582D01*
Y480602D01*
X307655D01*
Y480456D01*
X307728D01*
Y480310D01*
X307801D01*
Y480091D01*
X307874D01*
Y479798D01*
X307801D01*
Y479725D01*
X307655D01*
Y479798D01*
X307582D01*
Y479871D01*
X307509D01*
Y479944D01*
X307436D01*
Y480018D01*
X307363D01*
Y480091D01*
X307290D01*
Y480164D01*
X307216D01*
Y480310D01*
X307143D01*
Y480456D01*
X307070D01*
Y480749D01*
X306997D01*
Y481260D01*
X306924D01*
Y481626D01*
X306997D01*
Y482210D01*
X307070D01*
Y482430D01*
X307143D01*
Y482649D01*
X307216D01*
Y482795D01*
X307290D01*
Y482868D01*
X307363D01*
Y482941D01*
X307436D01*
Y483015D01*
X307509D01*
Y483088D01*
X307655D01*
Y483161D01*
X307947D01*
Y482941D01*
D02*
G37*
G36*
X311017Y483453D02*
X311164D01*
Y483380D01*
X311237D01*
Y483307D01*
X311310D01*
Y483234D01*
X311383D01*
Y483161D01*
X311456D01*
Y483015D01*
X311529D01*
Y482868D01*
X311602D01*
Y482649D01*
X311675D01*
Y482284D01*
X311749D01*
Y480602D01*
X311675D01*
Y480310D01*
X311602D01*
Y480091D01*
X311529D01*
Y479944D01*
X311456D01*
Y479798D01*
X311383D01*
Y479725D01*
X311310D01*
Y479652D01*
X311237D01*
Y479506D01*
X311164D01*
Y479433D01*
X310944D01*
Y479506D01*
X310871D01*
Y479871D01*
X310944D01*
Y480091D01*
X311017D01*
Y480237D01*
X311091D01*
Y480456D01*
X311164D01*
Y480749D01*
X311237D01*
Y481114D01*
X311310D01*
Y482210D01*
X311237D01*
Y482503D01*
X311164D01*
Y482722D01*
X311091D01*
Y482868D01*
X311017D01*
Y483015D01*
X310944D01*
Y483088D01*
X310871D01*
Y483234D01*
X310798D01*
Y483380D01*
X310725D01*
Y483453D01*
X310798D01*
Y483526D01*
X311017D01*
Y483453D01*
D02*
G37*
G36*
X306924Y483234D02*
X306851D01*
Y483161D01*
X306778D01*
Y483015D01*
X306705D01*
Y482868D01*
X306632D01*
Y482722D01*
X306558D01*
Y482576D01*
X306485D01*
Y482284D01*
X306412D01*
Y481041D01*
Y480968D01*
X306485D01*
Y480675D01*
X306558D01*
Y480456D01*
X306632D01*
Y480237D01*
X306705D01*
Y480018D01*
X306778D01*
Y479798D01*
X306851D01*
Y479579D01*
X306778D01*
Y479433D01*
X306558D01*
Y479506D01*
X306485D01*
Y479579D01*
X306412D01*
Y479652D01*
X306339D01*
Y479798D01*
X306266D01*
Y479944D01*
X306193D01*
Y480091D01*
X306120D01*
Y480237D01*
X306047D01*
Y480529D01*
X305974D01*
Y480968D01*
X305901D01*
Y481845D01*
X305974D01*
Y482357D01*
X306047D01*
Y482722D01*
X306120D01*
Y482868D01*
X306193D01*
Y483088D01*
X306266D01*
Y483161D01*
X306339D01*
Y483234D01*
X306412D01*
Y483307D01*
X306485D01*
Y483380D01*
X306558D01*
Y483453D01*
X306705D01*
Y483526D01*
X306924D01*
Y483234D01*
D02*
G37*
G36*
X312041Y483819D02*
X312114D01*
Y483746D01*
X312187D01*
Y483673D01*
X312260D01*
Y483599D01*
X312333D01*
Y483526D01*
X312406D01*
Y483453D01*
X312479D01*
Y483307D01*
X312553D01*
Y483161D01*
X312626D01*
Y482868D01*
X312699D01*
Y482503D01*
X312772D01*
Y481772D01*
X312845D01*
Y481041D01*
X312772D01*
Y480383D01*
X312699D01*
Y480091D01*
X312626D01*
Y479871D01*
X312553D01*
Y479652D01*
X312479D01*
Y479506D01*
X312406D01*
Y479433D01*
X312333D01*
Y479286D01*
X312260D01*
Y479213D01*
X312187D01*
Y479140D01*
X312114D01*
Y479067D01*
X311968D01*
Y479213D01*
X311895D01*
Y479579D01*
X311968D01*
Y479798D01*
X312041D01*
Y480018D01*
X312114D01*
Y480237D01*
X312187D01*
Y480602D01*
X312260D01*
Y480968D01*
X312333D01*
Y482430D01*
X312260D01*
Y482722D01*
X312187D01*
Y482941D01*
X312114D01*
Y483015D01*
Y483088D01*
X312041D01*
Y483307D01*
X311968D01*
Y483380D01*
X311895D01*
Y483526D01*
X311822D01*
Y483892D01*
X312041D01*
Y483819D01*
D02*
G37*
G36*
X305901Y483599D02*
X305827D01*
Y483453D01*
X305754D01*
Y483307D01*
X305681D01*
Y483161D01*
X305608D01*
Y483015D01*
X305535D01*
Y482795D01*
X305462D01*
Y482503D01*
X305389D01*
Y481918D01*
X305316D01*
Y481480D01*
X305389D01*
Y481114D01*
Y481041D01*
Y480822D01*
X305462D01*
Y480456D01*
X305535D01*
Y480164D01*
X305608D01*
Y479944D01*
X305681D01*
Y479725D01*
X305754D01*
Y479360D01*
X305827D01*
Y479286D01*
X305754D01*
Y479067D01*
X305535D01*
Y479140D01*
X305462D01*
Y479286D01*
X305389D01*
Y479360D01*
X305316D01*
Y479506D01*
X305243D01*
Y479652D01*
X305170D01*
Y479798D01*
X305097D01*
Y480018D01*
X305023D01*
Y480310D01*
X304950D01*
Y480822D01*
X304877D01*
Y482064D01*
X304950D01*
Y482576D01*
X305023D01*
Y482941D01*
X305097D01*
Y483161D01*
X305170D01*
Y483380D01*
X305243D01*
Y483453D01*
X305316D01*
Y483599D01*
X305389D01*
Y483673D01*
X305462D01*
Y483746D01*
X305608D01*
Y483819D01*
X305681D01*
Y483892D01*
X305901D01*
Y483599D01*
D02*
G37*
G36*
X309190Y482210D02*
X309336D01*
Y482137D01*
X309409D01*
Y482064D01*
X309483D01*
Y481991D01*
X309556D01*
Y481845D01*
X309629D01*
Y481699D01*
X309702D01*
Y481260D01*
X309629D01*
Y481041D01*
X309556D01*
Y480968D01*
X309483D01*
Y480895D01*
X309409D01*
Y480822D01*
X309336D01*
Y480749D01*
X309263D01*
Y480675D01*
X309117D01*
Y476582D01*
X309190D01*
Y476509D01*
X309263D01*
Y476436D01*
X309409D01*
Y476363D01*
X309483D01*
Y476290D01*
X309556D01*
Y476216D01*
X309702D01*
Y476143D01*
X309775D01*
Y476070D01*
X309848D01*
Y475997D01*
X309994D01*
Y475924D01*
X310067D01*
Y475851D01*
X310140D01*
Y475778D01*
X310286D01*
Y475705D01*
X310360D01*
Y475632D01*
X310433D01*
Y475559D01*
X310579D01*
Y475485D01*
X310652D01*
Y475412D01*
X310725D01*
Y475339D01*
X310871D01*
Y475266D01*
X310944D01*
Y475193D01*
X311017D01*
Y475120D01*
X311164D01*
Y475047D01*
X311237D01*
Y474974D01*
X311310D01*
Y474901D01*
X311456D01*
Y474827D01*
X311529D01*
Y474754D01*
X311602D01*
Y474681D01*
X311749D01*
Y474608D01*
X311822D01*
Y474535D01*
X311895D01*
Y474462D01*
X312041D01*
Y474389D01*
X312114D01*
Y474316D01*
X312187D01*
Y474243D01*
X312333D01*
Y474170D01*
X312406D01*
Y474096D01*
X312479D01*
Y474023D01*
X312626D01*
Y473950D01*
X312699D01*
Y473877D01*
X312772D01*
Y473804D01*
X312918D01*
Y473731D01*
X312991D01*
Y473658D01*
X313064D01*
Y473585D01*
X313211D01*
Y473512D01*
X313284D01*
Y473439D01*
X313357D01*
Y473365D01*
X313503D01*
Y473292D01*
X313576D01*
Y473219D01*
X313722D01*
Y473146D01*
X313795D01*
Y473073D01*
X313868D01*
Y473000D01*
X314015D01*
Y472927D01*
X314088D01*
Y472854D01*
X314161D01*
Y472781D01*
X314307D01*
Y472708D01*
X314380D01*
Y472635D01*
X314453D01*
Y472561D01*
X314599D01*
Y472488D01*
X314672D01*
Y472415D01*
X314746D01*
Y472342D01*
X314892D01*
Y472269D01*
X314965D01*
Y472196D01*
X315038D01*
Y472123D01*
X315184D01*
Y472050D01*
X315257D01*
Y471977D01*
X315330D01*
Y471904D01*
X315477D01*
Y471830D01*
X315550D01*
Y471757D01*
X315623D01*
Y471684D01*
X315769D01*
Y471611D01*
X315842D01*
Y471538D01*
X315915D01*
Y471465D01*
X316061D01*
Y471392D01*
X316135D01*
Y471319D01*
X316208D01*
Y471246D01*
X316354D01*
Y471173D01*
X316427D01*
Y471099D01*
X316500D01*
Y471026D01*
X316646D01*
Y470953D01*
X316719D01*
Y470880D01*
X316792D01*
Y470807D01*
X316939D01*
Y470734D01*
X317012D01*
Y470661D01*
X317085D01*
Y470588D01*
X317231D01*
Y470515D01*
X317304D01*
Y470441D01*
X317377D01*
Y470368D01*
X317523D01*
Y470295D01*
X317597D01*
Y470222D01*
X317670D01*
Y470149D01*
X317816D01*
Y470076D01*
X317889D01*
Y470003D01*
X318035D01*
Y469930D01*
X318108D01*
Y469857D01*
X318181D01*
Y469784D01*
X318254D01*
Y469710D01*
X318401D01*
Y469637D01*
X318474D01*
Y469564D01*
X318620D01*
Y469491D01*
X318693D01*
Y469418D01*
X318766D01*
Y469345D01*
X318839D01*
Y469272D01*
X318985D01*
Y469199D01*
X319058D01*
Y469126D01*
X319205D01*
Y469053D01*
X319278D01*
Y468980D01*
X319351D01*
Y468906D01*
X319497D01*
Y468833D01*
X319570D01*
Y468760D01*
X319643D01*
Y468687D01*
X319790D01*
Y468614D01*
X319863D01*
Y468541D01*
X319936D01*
Y468468D01*
X320082D01*
Y468395D01*
X320155D01*
Y468322D01*
X320228D01*
Y468249D01*
X320374D01*
Y468175D01*
X320447D01*
Y468102D01*
X320520D01*
Y468029D01*
X320667D01*
Y467956D01*
X320740D01*
Y467883D01*
X320813D01*
Y467810D01*
X320959D01*
Y467737D01*
X321032D01*
Y467664D01*
X321105D01*
Y467591D01*
X321252D01*
Y467518D01*
X321325D01*
Y467444D01*
X321398D01*
Y467371D01*
X321544D01*
Y467298D01*
X321617D01*
Y467225D01*
X321690D01*
Y467152D01*
X321836D01*
Y467079D01*
X321909D01*
Y467006D01*
X321983D01*
Y466933D01*
X322129D01*
Y466860D01*
X322202D01*
Y466786D01*
X322275D01*
Y466713D01*
X322421D01*
Y466640D01*
X322640D01*
Y466713D01*
X322713D01*
Y466786D01*
X322860D01*
Y466860D01*
X322933D01*
Y466933D01*
X323006D01*
Y467006D01*
X323079D01*
Y467079D01*
X323225D01*
Y467152D01*
X323298D01*
Y467225D01*
X323444D01*
Y467298D01*
X323517D01*
Y467371D01*
X323591D01*
Y467444D01*
X323737D01*
Y467518D01*
X323810D01*
Y467591D01*
X323883D01*
Y467664D01*
X324029D01*
Y467737D01*
X324102D01*
Y467810D01*
X324175D01*
Y467883D01*
X324322D01*
Y467956D01*
X324395D01*
Y468029D01*
X324468D01*
Y468102D01*
X324614D01*
Y468175D01*
X324687D01*
Y468249D01*
X324760D01*
Y468322D01*
X324906D01*
Y468395D01*
X324979D01*
Y468468D01*
X325053D01*
Y468541D01*
X325199D01*
Y468614D01*
X325272D01*
Y468687D01*
X325345D01*
Y468760D01*
X325491D01*
Y468833D01*
X325564D01*
Y468906D01*
X325637D01*
Y468980D01*
X325784D01*
Y469053D01*
X325857D01*
Y469126D01*
X325930D01*
Y469199D01*
X326076D01*
Y469272D01*
X326149D01*
Y469345D01*
X326222D01*
Y469418D01*
X326368D01*
Y469491D01*
X326442D01*
Y469564D01*
X326515D01*
Y469637D01*
X326661D01*
Y469710D01*
X326734D01*
Y469784D01*
X326807D01*
Y469857D01*
X326953D01*
Y469930D01*
X327026D01*
Y470003D01*
X327099D01*
Y470076D01*
X327246D01*
Y470149D01*
X327319D01*
Y470222D01*
X327392D01*
Y470295D01*
X327538D01*
Y470368D01*
X327611D01*
Y470441D01*
X327684D01*
Y470515D01*
X327830D01*
Y470588D01*
X327904D01*
Y470661D01*
X328050D01*
Y470734D01*
X328123D01*
Y470807D01*
X328196D01*
Y470880D01*
X328342D01*
Y470953D01*
X328415D01*
Y471026D01*
X328488D01*
Y471099D01*
X328635D01*
Y471173D01*
X328708D01*
Y471246D01*
X328781D01*
Y471319D01*
X328927D01*
Y471392D01*
X329000D01*
Y471465D01*
X329219D01*
Y471392D01*
X329292D01*
Y471319D01*
X329365D01*
Y471246D01*
X329512D01*
Y471173D01*
X329585D01*
Y471099D01*
X329658D01*
Y471026D01*
X329804D01*
Y470953D01*
X329877D01*
Y470880D01*
X329950D01*
Y470807D01*
X330097D01*
Y470734D01*
X330170D01*
Y470661D01*
X330243D01*
Y470588D01*
X330389D01*
Y470515D01*
X330462D01*
Y470441D01*
X330535D01*
Y470368D01*
X330681D01*
Y470295D01*
X330754D01*
Y470222D01*
X330827D01*
Y470149D01*
X330974D01*
Y470076D01*
X331047D01*
Y470003D01*
X331120D01*
Y469930D01*
X331266D01*
Y469857D01*
X331339D01*
Y469784D01*
X331412D01*
Y469710D01*
X331558D01*
Y469637D01*
X331632D01*
Y469564D01*
X331705D01*
Y469491D01*
X331851D01*
Y469418D01*
X331924D01*
Y469345D01*
X331997D01*
Y469272D01*
X332143D01*
Y469199D01*
X332216D01*
Y469126D01*
X332290D01*
Y469053D01*
X332436D01*
Y468980D01*
X332509D01*
Y468906D01*
X332582D01*
Y468833D01*
X332728D01*
Y468760D01*
X332801D01*
Y468687D01*
X332874D01*
Y468614D01*
X333020D01*
Y468541D01*
X333094D01*
Y468468D01*
X333240D01*
Y468395D01*
X333313D01*
Y468322D01*
X333386D01*
Y468249D01*
X333532D01*
Y468175D01*
X333605D01*
Y468102D01*
X333678D01*
Y468029D01*
X333825D01*
Y467956D01*
X333898D01*
Y467883D01*
X333971D01*
Y467810D01*
X334117D01*
Y467737D01*
X334190D01*
Y467664D01*
X334263D01*
Y467591D01*
X334409D01*
Y467518D01*
X334483D01*
Y467444D01*
X334556D01*
Y467371D01*
X334702D01*
Y467298D01*
X334775D01*
Y467225D01*
X334848D01*
Y467152D01*
X334994D01*
Y467079D01*
X335067D01*
Y467006D01*
X335140D01*
Y466933D01*
X335286D01*
Y466860D01*
X335360D01*
Y466786D01*
X335433D01*
Y466713D01*
X335579D01*
Y466640D01*
X335652D01*
Y466567D01*
X335725D01*
Y466494D01*
X335871D01*
Y466421D01*
X335944D01*
Y466348D01*
X336017D01*
Y466275D01*
X336164D01*
Y466202D01*
X336237D01*
Y466129D01*
X336310D01*
Y466056D01*
X336456D01*
Y465982D01*
X336529D01*
Y465909D01*
X336602D01*
Y465836D01*
X336749D01*
Y465763D01*
X336822D01*
Y465690D01*
X336895D01*
Y465617D01*
X337041D01*
Y465544D01*
X337114D01*
Y465471D01*
X337187D01*
Y465398D01*
X337333D01*
Y465325D01*
X337406D01*
Y465251D01*
X337479D01*
Y465178D01*
X337626D01*
Y465105D01*
X337699D01*
Y465032D01*
X337845D01*
Y464959D01*
X337918D01*
Y464886D01*
X337991D01*
Y464813D01*
X338137D01*
Y464740D01*
X338211D01*
Y464667D01*
X338284D01*
Y464594D01*
X338430D01*
Y464521D01*
X338503D01*
Y464447D01*
X338576D01*
Y464374D01*
X338722D01*
Y464301D01*
X338795D01*
Y464228D01*
X338868D01*
Y464155D01*
X339015D01*
Y464082D01*
X339088D01*
Y464009D01*
X339161D01*
Y463936D01*
X339307D01*
Y463863D01*
X339380D01*
Y463790D01*
X339453D01*
Y463716D01*
X339599D01*
Y463643D01*
X339672D01*
Y463570D01*
X339746D01*
Y463497D01*
X339892D01*
Y463424D01*
X339965D01*
Y463351D01*
X340038D01*
Y463278D01*
X340184D01*
Y463205D01*
X340257D01*
Y463132D01*
X340330D01*
Y463059D01*
X340477D01*
Y462985D01*
X340550D01*
Y462912D01*
X340623D01*
Y462839D01*
X340769D01*
Y462766D01*
X340842D01*
Y462693D01*
X340915D01*
Y462620D01*
X341061D01*
Y462547D01*
X341135D01*
Y462474D01*
X341208D01*
Y462401D01*
X341354D01*
Y462327D01*
X341427D01*
Y462254D01*
X341573D01*
Y462181D01*
X341646D01*
Y462108D01*
X341719D01*
Y445880D01*
X267597D01*
Y445953D01*
X267743D01*
Y446026D01*
X267816D01*
Y446099D01*
X267962D01*
Y446173D01*
X268035D01*
Y446246D01*
X268108D01*
Y446319D01*
X268254D01*
Y446392D01*
X268327D01*
Y446465D01*
X268401D01*
Y446538D01*
X268547D01*
Y446611D01*
X268620D01*
Y446684D01*
X268693D01*
Y446757D01*
X268839D01*
Y446830D01*
X268912D01*
Y446904D01*
X268985D01*
Y446977D01*
X269132D01*
Y447050D01*
X269205D01*
Y447123D01*
X269278D01*
Y447196D01*
X269424D01*
Y447269D01*
X269497D01*
Y447342D01*
X269570D01*
Y447415D01*
X269716D01*
Y447488D01*
X269790D01*
Y447561D01*
X269863D01*
Y447635D01*
X270009D01*
Y447708D01*
X270082D01*
Y447781D01*
X270155D01*
Y447854D01*
X270301D01*
Y447927D01*
X270374D01*
Y448000D01*
X270447D01*
Y448073D01*
X270594D01*
Y448146D01*
X270667D01*
Y448219D01*
X270813D01*
Y448292D01*
X270886D01*
Y448365D01*
X270959D01*
Y448439D01*
X271032D01*
Y448512D01*
X271178D01*
Y448585D01*
X271252D01*
Y448658D01*
X271398D01*
Y448731D01*
X271471D01*
Y448804D01*
X271544D01*
Y448877D01*
X271617D01*
Y448950D01*
X271763D01*
Y449023D01*
X271836D01*
Y449096D01*
X271909D01*
Y449170D01*
X272056D01*
Y449243D01*
X272129D01*
Y449316D01*
X272275D01*
Y449389D01*
X272348D01*
Y449462D01*
X272421D01*
Y449535D01*
X272567D01*
Y449608D01*
X272640D01*
Y449681D01*
X272713D01*
Y449754D01*
X272860D01*
Y449827D01*
X272933D01*
Y449901D01*
X273006D01*
Y449974D01*
X273152D01*
Y450047D01*
X273225D01*
Y450120D01*
X273298D01*
Y450193D01*
X273444D01*
Y450266D01*
X273517D01*
Y450339D01*
X273591D01*
Y450412D01*
X273737D01*
Y450485D01*
X273810D01*
Y450559D01*
X273883D01*
Y450632D01*
X274029D01*
Y450705D01*
X274102D01*
Y450778D01*
X274175D01*
Y450851D01*
X274322D01*
Y450924D01*
X274395D01*
Y450997D01*
X274468D01*
Y451070D01*
X274614D01*
Y451143D01*
X274687D01*
Y451216D01*
X274760D01*
Y451290D01*
X274906D01*
Y451363D01*
X274979D01*
Y451436D01*
X275053D01*
Y451509D01*
X275199D01*
Y451582D01*
X275272D01*
Y451655D01*
X275345D01*
Y451728D01*
X275491D01*
Y451801D01*
X275564D01*
Y451874D01*
X275637D01*
Y451947D01*
X275784D01*
Y452021D01*
X275857D01*
Y452094D01*
X275930D01*
Y452167D01*
X276076D01*
Y452240D01*
X276149D01*
Y452313D01*
X276222D01*
Y452386D01*
X276368D01*
Y452459D01*
X276442D01*
Y452532D01*
X276588D01*
Y452605D01*
X276661D01*
Y452678D01*
X276734D01*
Y452751D01*
X276880D01*
Y452825D01*
X276953D01*
Y452898D01*
X277026D01*
Y452971D01*
X277172D01*
Y453044D01*
X277246D01*
Y453117D01*
X277319D01*
Y453190D01*
X277465D01*
Y453263D01*
X277538D01*
Y453336D01*
X277611D01*
Y453409D01*
X277757D01*
Y453482D01*
X277830D01*
Y453556D01*
X277904D01*
Y453629D01*
X278050D01*
Y453702D01*
X278123D01*
Y453775D01*
X278196D01*
Y453848D01*
X278342D01*
Y453921D01*
X278415D01*
Y453994D01*
X278488D01*
Y454067D01*
X278635D01*
Y454140D01*
X278708D01*
Y454213D01*
X278781D01*
Y454286D01*
X278927D01*
Y454360D01*
X279000D01*
Y454433D01*
X279073D01*
Y454506D01*
X279219D01*
Y454579D01*
X279292D01*
Y454652D01*
X279365D01*
Y454725D01*
X279512D01*
Y454798D01*
X279585D01*
Y454871D01*
X279658D01*
Y454944D01*
X279804D01*
Y455018D01*
X279877D01*
Y455091D01*
X279950D01*
Y455164D01*
X280097D01*
Y455237D01*
X280170D01*
Y455310D01*
X280243D01*
Y455383D01*
X280389D01*
Y455456D01*
X280462D01*
Y455529D01*
X280535D01*
Y455602D01*
X280681D01*
Y455675D01*
X280754D01*
Y455749D01*
X280901D01*
Y455822D01*
X280974D01*
Y455895D01*
X281047D01*
Y455968D01*
X281193D01*
Y456041D01*
X281266D01*
Y456114D01*
X281339D01*
Y456187D01*
X281485D01*
Y456260D01*
X281558D01*
Y456333D01*
X281632D01*
Y456406D01*
X281778D01*
Y456480D01*
X281851D01*
Y456553D01*
X281924D01*
Y456626D01*
X282070D01*
Y456699D01*
X282143D01*
Y456772D01*
X282216D01*
Y456845D01*
X282363D01*
Y456918D01*
X282436D01*
Y456991D01*
X282509D01*
Y457064D01*
X282655D01*
Y457137D01*
X282728D01*
Y457210D01*
X282801D01*
Y457284D01*
X282947D01*
Y457357D01*
X283020D01*
Y457430D01*
X283094D01*
Y457503D01*
X283240D01*
Y457576D01*
X283313D01*
Y457649D01*
X283386D01*
Y457722D01*
X283532D01*
Y457795D01*
X283605D01*
Y457868D01*
X283678D01*
Y457941D01*
X283825D01*
Y458015D01*
X283898D01*
Y458088D01*
X283971D01*
Y458161D01*
X284117D01*
Y458234D01*
X284190D01*
Y458307D01*
X284263D01*
Y458380D01*
X284409D01*
Y458453D01*
X284483D01*
Y458526D01*
X284556D01*
Y458599D01*
X284702D01*
Y458673D01*
X284775D01*
Y458746D01*
X284848D01*
Y458819D01*
X284994D01*
Y458892D01*
X285067D01*
Y458965D01*
X285140D01*
Y459038D01*
X285286D01*
Y459111D01*
X285360D01*
Y459184D01*
X285433D01*
Y459257D01*
X285579D01*
Y459330D01*
X285652D01*
Y459404D01*
X285798D01*
Y459477D01*
X285871D01*
Y459550D01*
X285944D01*
Y459623D01*
X286017D01*
Y459696D01*
X286164D01*
Y459769D01*
X286237D01*
Y459842D01*
X286383D01*
Y459915D01*
X286456D01*
Y459988D01*
X286529D01*
Y460061D01*
X286675D01*
Y460135D01*
X286749D01*
Y460208D01*
X286822D01*
Y460281D01*
X286968D01*
Y460354D01*
X287041D01*
Y460427D01*
X287114D01*
Y460500D01*
X287260D01*
Y460573D01*
X287333D01*
Y460646D01*
X287406D01*
Y460719D01*
X287553D01*
Y460792D01*
X287626D01*
Y460865D01*
X287699D01*
Y460939D01*
X287845D01*
Y461012D01*
X287918D01*
Y461085D01*
X287991D01*
Y461158D01*
X288137D01*
Y461231D01*
X288211D01*
Y461304D01*
X288284D01*
Y461377D01*
X288430D01*
Y461450D01*
X288503D01*
Y461523D01*
X288576D01*
Y461596D01*
X288722D01*
Y461670D01*
X288795D01*
Y461743D01*
X288868D01*
Y461816D01*
X289015D01*
Y461889D01*
X289088D01*
Y461962D01*
X289161D01*
Y462035D01*
X289307D01*
Y462108D01*
X289380D01*
Y462181D01*
X289453D01*
Y462254D01*
X289599D01*
Y462327D01*
X289672D01*
Y462401D01*
X289819D01*
Y462474D01*
X289892D01*
Y462547D01*
X289965D01*
Y462620D01*
X290038D01*
Y462693D01*
X290184D01*
Y462766D01*
X290257D01*
Y462839D01*
X290404D01*
Y462912D01*
X290477D01*
Y462985D01*
X290550D01*
Y463059D01*
X290696D01*
Y463132D01*
X290769D01*
Y463205D01*
X290842D01*
Y463278D01*
X290988D01*
Y463351D01*
X291061D01*
Y463424D01*
X291135D01*
Y463497D01*
X291281D01*
Y463570D01*
X291354D01*
Y463643D01*
X291427D01*
Y463716D01*
X291573D01*
Y463790D01*
X291646D01*
Y463863D01*
X291719D01*
Y463936D01*
X291865D01*
Y464009D01*
X291939D01*
Y464082D01*
X292012D01*
Y464155D01*
X292158D01*
Y464228D01*
X292231D01*
Y464301D01*
X292304D01*
Y464374D01*
X292450D01*
Y464447D01*
X292523D01*
Y464521D01*
X292597D01*
Y464594D01*
X292743D01*
Y464667D01*
X292816D01*
Y464740D01*
X292889D01*
Y464813D01*
X293035D01*
Y464886D01*
X293108D01*
Y464959D01*
X293181D01*
Y465032D01*
X293327D01*
Y465105D01*
X293401D01*
Y465178D01*
X293474D01*
Y465251D01*
X293620D01*
Y465325D01*
X293693D01*
Y465398D01*
X293766D01*
Y465471D01*
X293912D01*
Y465544D01*
X293985D01*
Y465617D01*
X294058D01*
Y465690D01*
X294205D01*
Y465763D01*
X294278D01*
Y465836D01*
X294351D01*
Y465909D01*
X294497D01*
Y465982D01*
X294570D01*
Y466056D01*
X294716D01*
Y466129D01*
X294790D01*
Y466202D01*
X294863D01*
Y466275D01*
X295009D01*
Y466348D01*
X295082D01*
Y466421D01*
X295155D01*
Y466494D01*
X295301D01*
Y466567D01*
X295374D01*
Y466640D01*
X295447D01*
Y466713D01*
X295594D01*
Y466786D01*
X295667D01*
Y466860D01*
X295740D01*
Y466933D01*
X295886D01*
Y467006D01*
X295959D01*
Y467079D01*
X296032D01*
Y467152D01*
X296178D01*
Y467225D01*
X296252D01*
Y467298D01*
X296325D01*
Y467371D01*
X296471D01*
Y467444D01*
X296544D01*
Y467518D01*
X296617D01*
Y467591D01*
X296763D01*
Y467664D01*
X296836D01*
Y467737D01*
X296909D01*
Y467810D01*
X297056D01*
Y467883D01*
X297129D01*
Y467956D01*
X297202D01*
Y468029D01*
X297348D01*
Y468102D01*
X297421D01*
Y468175D01*
X297494D01*
Y468249D01*
X297640D01*
Y468322D01*
X297713D01*
Y468395D01*
X297786D01*
Y468468D01*
X297933D01*
Y468541D01*
X298006D01*
Y468614D01*
X298079D01*
Y468687D01*
X298225D01*
Y468760D01*
X298298D01*
Y468833D01*
X298371D01*
Y468906D01*
X298517D01*
Y468980D01*
X298591D01*
Y469053D01*
X298664D01*
Y469126D01*
X298810D01*
Y469199D01*
X298883D01*
Y469272D01*
X299029D01*
Y469345D01*
X299102D01*
Y469418D01*
X299175D01*
Y469491D01*
X299249D01*
Y469564D01*
X299395D01*
Y469637D01*
X299468D01*
Y469710D01*
X299614D01*
Y469784D01*
X299687D01*
Y469857D01*
X299760D01*
Y469930D01*
X299833D01*
Y470003D01*
X299979D01*
Y470076D01*
X300053D01*
Y470149D01*
X300199D01*
Y470222D01*
X300272D01*
Y470295D01*
X300345D01*
Y470368D01*
X300491D01*
Y470441D01*
X300564D01*
Y470515D01*
X300637D01*
Y470588D01*
X300784D01*
Y470661D01*
X300857D01*
Y470734D01*
X300930D01*
Y470807D01*
X301076D01*
Y470880D01*
X301149D01*
Y470953D01*
X301222D01*
Y471026D01*
X301368D01*
Y471099D01*
X301442D01*
Y471173D01*
X301515D01*
Y471246D01*
X301661D01*
Y471319D01*
X301734D01*
Y471392D01*
X301807D01*
Y471465D01*
X301953D01*
Y471538D01*
X302026D01*
Y471611D01*
X302099D01*
Y471684D01*
X302246D01*
Y471757D01*
X302319D01*
Y471830D01*
X302392D01*
Y471904D01*
X302538D01*
Y471977D01*
X302611D01*
Y472050D01*
X302684D01*
Y472123D01*
X302830D01*
Y472196D01*
X302904D01*
Y472269D01*
X302977D01*
Y472342D01*
X303123D01*
Y472415D01*
X303196D01*
Y472488D01*
X303269D01*
Y472561D01*
X303415D01*
Y472635D01*
X303488D01*
Y472708D01*
X303561D01*
Y472781D01*
X303708D01*
Y472854D01*
X303781D01*
Y472927D01*
X303854D01*
Y473000D01*
X304000D01*
Y473073D01*
X304073D01*
Y473146D01*
X304146D01*
Y473219D01*
X304292D01*
Y473292D01*
X304365D01*
Y473365D01*
X304439D01*
Y473439D01*
X304585D01*
Y473512D01*
X304658D01*
Y473585D01*
X304804D01*
Y473658D01*
X304877D01*
Y473731D01*
X304950D01*
Y473804D01*
X305023D01*
Y473877D01*
X305170D01*
Y473950D01*
X305243D01*
Y474023D01*
X305389D01*
Y474096D01*
X305462D01*
Y474170D01*
X305535D01*
Y474243D01*
X305681D01*
Y474316D01*
X305754D01*
Y474389D01*
X305827D01*
Y474462D01*
X305974D01*
Y474535D01*
X306047D01*
Y474608D01*
X306120D01*
Y474681D01*
X306266D01*
Y474754D01*
X306339D01*
Y474827D01*
X306412D01*
Y474901D01*
X306558D01*
Y474974D01*
X306632D01*
Y475047D01*
X306705D01*
Y475120D01*
X306851D01*
Y475193D01*
X306924D01*
Y475266D01*
X306997D01*
Y475339D01*
X307143D01*
Y475412D01*
X307216D01*
Y475485D01*
X307290D01*
Y475559D01*
X307436D01*
Y475632D01*
X307509D01*
Y475705D01*
X307582D01*
Y475778D01*
X307728D01*
Y475851D01*
X307801D01*
Y475924D01*
X307874D01*
Y475997D01*
X308020D01*
Y476070D01*
X308094D01*
Y476143D01*
X308167D01*
Y476216D01*
X308313D01*
Y476290D01*
X308386D01*
Y476363D01*
X308459D01*
Y476436D01*
X308605D01*
Y480675D01*
X308459D01*
Y480749D01*
X308386D01*
Y480822D01*
X308240D01*
Y480895D01*
X308167D01*
Y481041D01*
X308094D01*
Y481187D01*
X308020D01*
Y481772D01*
X308094D01*
Y481918D01*
X308167D01*
Y481991D01*
X308240D01*
Y482064D01*
X308313D01*
Y482137D01*
X308386D01*
Y482210D01*
X308532D01*
Y482284D01*
X309190D01*
Y482210D01*
D02*
G37*
%LPC*%
G36*
X321690Y455749D02*
X320447D01*
Y455091D01*
Y455018D01*
Y454506D01*
X321690D01*
Y455749D01*
D02*
G37*
G36*
X310506D02*
X309263D01*
Y455675D01*
X309190D01*
Y454652D01*
Y454579D01*
X309263D01*
Y454506D01*
X310506D01*
Y455749D01*
D02*
G37*
G36*
X317085Y455895D02*
X316792D01*
Y455822D01*
X316135D01*
Y455749D01*
X315842D01*
Y455675D01*
X315623D01*
Y455602D01*
X315477D01*
Y455529D01*
X315330D01*
Y455456D01*
X315257D01*
Y455383D01*
X315111D01*
Y455310D01*
X315038D01*
Y455237D01*
X314965D01*
Y455164D01*
X314892D01*
Y455091D01*
X314819D01*
Y454944D01*
X314746D01*
Y454871D01*
X314672D01*
Y454725D01*
X314599D01*
Y454506D01*
X314526D01*
Y454213D01*
X314453D01*
Y453482D01*
X314526D01*
Y453190D01*
X314599D01*
Y452971D01*
X314672D01*
Y452898D01*
X314746D01*
Y452751D01*
X314819D01*
Y452678D01*
X314892D01*
Y452605D01*
X314965D01*
Y452532D01*
X315038D01*
Y452459D01*
X315184D01*
Y452386D01*
X315330D01*
Y452313D01*
X315477D01*
Y452240D01*
X315696D01*
Y452167D01*
X315915D01*
Y452094D01*
X316208D01*
Y452021D01*
X316500D01*
Y451947D01*
X316792D01*
Y451874D01*
X317085D01*
Y451801D01*
X317377D01*
Y451728D01*
X317670D01*
Y451655D01*
X317816D01*
Y451582D01*
X317962D01*
Y451509D01*
X318108D01*
Y451363D01*
X318181D01*
Y451290D01*
X318254D01*
Y450851D01*
X318181D01*
Y450705D01*
X318108D01*
Y450632D01*
X318035D01*
Y450559D01*
X317962D01*
Y450485D01*
X317816D01*
Y450412D01*
X317670D01*
Y450339D01*
X317304D01*
Y450266D01*
X316646D01*
Y450339D01*
X316354D01*
Y450412D01*
X316208D01*
Y450485D01*
X316061D01*
Y450559D01*
X315988D01*
Y450632D01*
X315915D01*
Y450705D01*
X315842D01*
Y450851D01*
X315769D01*
Y451070D01*
X315696D01*
Y451290D01*
X314380D01*
Y450705D01*
X314453D01*
Y450485D01*
X314526D01*
Y450339D01*
X314599D01*
Y450193D01*
X314672D01*
Y450120D01*
X314746D01*
Y449974D01*
X314819D01*
Y449901D01*
X314892D01*
Y449827D01*
X314965D01*
Y449754D01*
X315038D01*
Y449681D01*
X315184D01*
Y449608D01*
X315257D01*
Y449535D01*
X315404D01*
Y449462D01*
X315550D01*
Y449389D01*
X315696D01*
Y449316D01*
X315915D01*
Y449243D01*
X316281D01*
Y449170D01*
X317743D01*
Y449243D01*
X318108D01*
Y449316D01*
X318254D01*
Y449389D01*
X318474D01*
Y449462D01*
X318620D01*
Y449535D01*
X318693D01*
Y449608D01*
X318839D01*
Y449681D01*
X318912D01*
Y449754D01*
X318985D01*
Y449827D01*
X319058D01*
Y449901D01*
X319132D01*
Y449974D01*
X319205D01*
Y450047D01*
X319278D01*
Y450193D01*
X319351D01*
Y450266D01*
X319424D01*
Y450485D01*
X319497D01*
Y450705D01*
X319570D01*
Y451655D01*
X319497D01*
Y451947D01*
X319424D01*
Y452021D01*
X319351D01*
Y452167D01*
X319278D01*
Y452313D01*
X319205D01*
Y452386D01*
X319132D01*
Y452459D01*
X319058D01*
Y452532D01*
X318912D01*
Y452605D01*
X318839D01*
Y452678D01*
X318693D01*
Y452751D01*
X318474D01*
Y452825D01*
X318254D01*
Y452898D01*
X318035D01*
Y452971D01*
X317743D01*
Y453044D01*
X317450D01*
Y453117D01*
X317158D01*
Y453190D01*
X316865D01*
Y453263D01*
X316573D01*
Y453336D01*
X316281D01*
Y453409D01*
X316135D01*
Y453482D01*
X315988D01*
Y453556D01*
X315915D01*
Y453629D01*
X315842D01*
Y453702D01*
X315769D01*
Y454213D01*
X315842D01*
Y454360D01*
X315915D01*
Y454433D01*
X315988D01*
Y454506D01*
X316135D01*
Y454579D01*
X316281D01*
Y454652D01*
X316646D01*
Y454725D01*
X317012D01*
Y454652D01*
X317377D01*
Y454579D01*
X317597D01*
Y454506D01*
X317670D01*
Y454433D01*
X317816D01*
Y454286D01*
X317889D01*
Y454213D01*
X317962D01*
Y454067D01*
X318035D01*
Y453775D01*
X319351D01*
Y454286D01*
X319278D01*
Y454506D01*
X319205D01*
Y454725D01*
X319132D01*
Y454798D01*
X319058D01*
Y454944D01*
X318985D01*
Y455018D01*
X318912D01*
Y455091D01*
X318839D01*
Y455164D01*
X318766D01*
Y455237D01*
X318693D01*
Y455310D01*
X318620D01*
Y455383D01*
X318474D01*
Y455456D01*
X318401D01*
Y455529D01*
X318254D01*
Y455602D01*
X318108D01*
Y455675D01*
X317889D01*
Y455749D01*
X317597D01*
Y455822D01*
X317085D01*
Y455895D01*
D02*
G37*
G36*
X284848D02*
X284629D01*
Y455822D01*
X283971D01*
Y455749D01*
X283605D01*
Y455675D01*
X283459D01*
Y455602D01*
X283313D01*
Y455529D01*
X283167D01*
Y455456D01*
X283094D01*
Y455383D01*
X282947D01*
Y455310D01*
X282874D01*
Y455237D01*
X282801D01*
Y455164D01*
X282728D01*
Y455091D01*
X282655D01*
Y454944D01*
X282582D01*
Y454871D01*
X282509D01*
Y454725D01*
X282436D01*
Y454506D01*
X282363D01*
Y454286D01*
X282290D01*
Y453409D01*
X282363D01*
Y453190D01*
X282436D01*
Y452971D01*
X282509D01*
Y452898D01*
X282582D01*
Y452751D01*
X282655D01*
Y452678D01*
X282728D01*
Y452605D01*
X282801D01*
Y452532D01*
X282874D01*
Y452459D01*
X283020D01*
Y452386D01*
X283167D01*
Y452313D01*
X283313D01*
Y452240D01*
X283532D01*
Y452167D01*
X283752D01*
Y452094D01*
X283971D01*
Y452021D01*
X284263D01*
Y451947D01*
X284629D01*
Y451874D01*
X284921D01*
Y451801D01*
X285213D01*
Y451728D01*
X285506D01*
Y451655D01*
X285652D01*
Y451582D01*
X285798D01*
Y451509D01*
X285944D01*
Y451363D01*
X286017D01*
Y451290D01*
X286091D01*
Y450851D01*
X286017D01*
Y450705D01*
X285944D01*
Y450632D01*
X285871D01*
Y450559D01*
X285798D01*
Y450485D01*
X285652D01*
Y450412D01*
X285506D01*
Y450339D01*
X285140D01*
Y450266D01*
X284483D01*
Y450339D01*
X284190D01*
Y450412D01*
X284044D01*
Y450485D01*
X283898D01*
Y450559D01*
X283825D01*
Y450632D01*
X283752D01*
Y450705D01*
X283678D01*
Y450851D01*
X283605D01*
Y451070D01*
X283532D01*
Y451290D01*
X282216D01*
Y450705D01*
X282290D01*
Y450485D01*
X282363D01*
Y450339D01*
X282436D01*
Y450193D01*
X282509D01*
Y450120D01*
X282582D01*
Y449974D01*
X282655D01*
Y449901D01*
X282728D01*
Y449827D01*
X282801D01*
Y449754D01*
X282874D01*
Y449681D01*
X283020D01*
Y449608D01*
X283094D01*
Y449535D01*
X283240D01*
Y449462D01*
X283386D01*
Y449389D01*
X283532D01*
Y449316D01*
X283752D01*
Y449243D01*
X284117D01*
Y449170D01*
X285579D01*
Y449243D01*
X285944D01*
Y449316D01*
X286091D01*
Y449389D01*
X286310D01*
Y449462D01*
X286456D01*
Y449535D01*
X286529D01*
Y449608D01*
X286675D01*
Y449681D01*
X286749D01*
Y449754D01*
X286822D01*
Y449827D01*
X286895D01*
Y449901D01*
X286968D01*
Y449974D01*
X287041D01*
Y450047D01*
X287114D01*
Y450193D01*
X287187D01*
Y450339D01*
X287260D01*
Y450485D01*
X287333D01*
Y450705D01*
X287406D01*
Y451655D01*
X287333D01*
Y451874D01*
X287260D01*
Y452021D01*
X287187D01*
Y452167D01*
X287114D01*
Y452313D01*
X287041D01*
Y452386D01*
X286968D01*
Y452459D01*
X286822D01*
Y452532D01*
X286749D01*
Y452605D01*
X286675D01*
Y452678D01*
X286529D01*
Y452751D01*
X286310D01*
Y452825D01*
X286164D01*
Y452898D01*
X285871D01*
Y452971D01*
X285579D01*
Y453044D01*
X285286D01*
Y453117D01*
X284994D01*
Y453190D01*
X284702D01*
Y453263D01*
X284409D01*
Y453336D01*
X284117D01*
Y453409D01*
X283971D01*
Y453482D01*
X283825D01*
Y453556D01*
X283752D01*
Y453629D01*
X283678D01*
Y453702D01*
X283605D01*
Y454286D01*
X283678D01*
Y454360D01*
X283752D01*
Y454433D01*
X283825D01*
Y454506D01*
X283971D01*
Y454579D01*
X284117D01*
Y454652D01*
X284483D01*
Y454725D01*
X284848D01*
Y454652D01*
X285213D01*
Y454579D01*
X285433D01*
Y454506D01*
X285506D01*
Y454433D01*
X285579D01*
Y454360D01*
X285652D01*
Y454286D01*
X285725D01*
Y454213D01*
X285798D01*
Y454067D01*
X285871D01*
Y453775D01*
X287187D01*
Y454286D01*
X287114D01*
Y454506D01*
X287041D01*
Y454725D01*
X286968D01*
Y454798D01*
X286895D01*
Y454944D01*
X286822D01*
Y455018D01*
X286749D01*
Y455091D01*
X286675D01*
Y455164D01*
X286602D01*
Y455237D01*
X286529D01*
Y455310D01*
X286456D01*
Y455383D01*
X286310D01*
Y455456D01*
X286237D01*
Y455529D01*
X286091D01*
Y455602D01*
X285944D01*
Y455675D01*
X285725D01*
Y455749D01*
X285433D01*
Y455822D01*
X284848D01*
Y455895D01*
D02*
G37*
G36*
X331266Y454140D02*
X330389D01*
Y454067D01*
X330170D01*
Y453994D01*
X330023D01*
Y453921D01*
X329877D01*
Y453848D01*
X329804D01*
Y453775D01*
X329731D01*
Y453702D01*
X329658D01*
Y453629D01*
X329585D01*
Y453556D01*
X329512D01*
Y453482D01*
X329439D01*
Y453994D01*
X328196D01*
Y449316D01*
X329512D01*
Y452313D01*
X329585D01*
Y452605D01*
X329658D01*
Y452678D01*
X329731D01*
Y452825D01*
X329804D01*
Y452898D01*
X329950D01*
Y452971D01*
X330097D01*
Y453044D01*
X330754D01*
Y452971D01*
X330901D01*
Y452898D01*
X330974D01*
Y452825D01*
X331047D01*
Y452751D01*
X331120D01*
Y452459D01*
X331193D01*
Y449316D01*
X332509D01*
Y452825D01*
X332436D01*
Y453117D01*
Y453190D01*
X332363D01*
Y453336D01*
X332290D01*
Y453482D01*
X332216D01*
Y453629D01*
X332143D01*
Y453702D01*
X332070D01*
Y453775D01*
X331997D01*
Y453848D01*
X331851D01*
Y453921D01*
X331705D01*
Y453994D01*
X331558D01*
Y454067D01*
X331266D01*
Y454140D01*
D02*
G37*
G36*
X306997D02*
X306266D01*
Y454067D01*
X306047D01*
Y453994D01*
X305827D01*
Y453921D01*
X305681D01*
Y453848D01*
X305608D01*
Y453775D01*
X305535D01*
Y453702D01*
X305462D01*
Y453629D01*
X305389D01*
Y453556D01*
X305316D01*
Y453482D01*
X305243D01*
Y453409D01*
X305170D01*
Y453556D01*
X305097D01*
Y453629D01*
X305023D01*
Y453775D01*
X304950D01*
Y453848D01*
X304877D01*
Y453921D01*
X304731D01*
Y453994D01*
X304585D01*
Y454067D01*
X304365D01*
Y454140D01*
X303561D01*
Y454067D01*
X303269D01*
Y453994D01*
X303123D01*
Y453921D01*
X303050D01*
Y453848D01*
X302977D01*
Y453775D01*
X302904D01*
Y453702D01*
X302830D01*
Y453629D01*
X302757D01*
Y453556D01*
X302684D01*
Y453482D01*
X302611D01*
Y453994D01*
X301368D01*
Y449316D01*
X302684D01*
Y452532D01*
X302757D01*
Y452751D01*
X302830D01*
Y452825D01*
X302904D01*
Y452898D01*
X303050D01*
Y452971D01*
X303269D01*
Y453044D01*
X303635D01*
Y452971D01*
X303781D01*
Y452898D01*
X303927D01*
Y452751D01*
X304000D01*
Y452605D01*
X304073D01*
Y449316D01*
X305389D01*
Y452386D01*
X305462D01*
Y452605D01*
X305535D01*
Y452751D01*
X305608D01*
Y452825D01*
X305681D01*
Y452898D01*
X305754D01*
Y452971D01*
X305901D01*
Y453044D01*
X306412D01*
Y452971D01*
X306558D01*
Y452898D01*
X306632D01*
Y452825D01*
X306705D01*
Y452678D01*
X306778D01*
Y452313D01*
X306851D01*
Y449316D01*
X308094D01*
Y449608D01*
X308167D01*
Y452605D01*
X308094D01*
Y453117D01*
X308020D01*
Y453336D01*
X307947D01*
Y453482D01*
X307874D01*
Y453556D01*
X307801D01*
Y453629D01*
X307728D01*
Y453702D01*
X307655D01*
Y453775D01*
X307582D01*
Y453848D01*
X307509D01*
Y453921D01*
X307363D01*
Y453994D01*
X307216D01*
Y454067D01*
X306997D01*
Y454140D01*
D02*
G37*
G36*
X299175D02*
X298517D01*
Y454067D01*
X298225D01*
Y453994D01*
X298006D01*
Y453921D01*
X297933D01*
Y453848D01*
X297786D01*
Y453775D01*
X297713D01*
Y453702D01*
X297640D01*
Y453629D01*
X297567D01*
Y453556D01*
X297494D01*
Y453409D01*
X297348D01*
Y453556D01*
X297275D01*
Y453702D01*
X297202D01*
Y453775D01*
X297129D01*
Y453848D01*
X297056D01*
Y453921D01*
X296909D01*
Y453994D01*
X296763D01*
Y454067D01*
X296544D01*
Y454140D01*
X295740D01*
Y454067D01*
X295520D01*
Y453994D01*
X295374D01*
Y453921D01*
X295228D01*
Y453848D01*
X295155D01*
Y453775D01*
X295082D01*
Y453702D01*
X295009D01*
Y453629D01*
X294936D01*
Y453556D01*
X294863D01*
Y453482D01*
X294790D01*
Y453994D01*
X293547D01*
Y449316D01*
X294863D01*
Y452459D01*
X294936D01*
Y452678D01*
X295009D01*
Y452825D01*
X295082D01*
Y452898D01*
X295228D01*
Y452971D01*
X295447D01*
Y453044D01*
X295813D01*
Y452971D01*
X296032D01*
Y452898D01*
X296105D01*
Y452825D01*
X296178D01*
Y452678D01*
X296252D01*
Y452386D01*
X296325D01*
Y449316D01*
X297567D01*
Y451070D01*
Y451143D01*
Y452167D01*
X297640D01*
Y452605D01*
X297713D01*
Y452751D01*
X297786D01*
Y452825D01*
X297860D01*
Y452898D01*
X297933D01*
Y452971D01*
X298152D01*
Y453044D01*
X298591D01*
Y452971D01*
X298737D01*
Y452898D01*
X298810D01*
Y452825D01*
X298883D01*
Y452751D01*
X298956D01*
Y452532D01*
X299029D01*
Y449316D01*
X300345D01*
Y452898D01*
X300272D01*
Y453190D01*
X300199D01*
Y453336D01*
X300126D01*
Y453482D01*
X300053D01*
Y453629D01*
X299979D01*
Y453702D01*
X299906D01*
Y453775D01*
X299833D01*
Y453848D01*
X299687D01*
Y453921D01*
X299614D01*
Y453994D01*
X299468D01*
Y454067D01*
X299175D01*
Y454140D01*
D02*
G37*
G36*
X292450Y454067D02*
X291208D01*
Y451290D01*
X291135D01*
Y450924D01*
X291061D01*
Y450705D01*
X290988D01*
Y450559D01*
X290915D01*
Y450485D01*
X290842D01*
Y450412D01*
X290696D01*
Y450339D01*
X290477D01*
Y450266D01*
X289965D01*
Y450339D01*
X289819D01*
Y450412D01*
X289746D01*
Y450485D01*
X289672D01*
Y450559D01*
X289599D01*
Y450778D01*
X289526D01*
Y453994D01*
X289453D01*
Y454067D01*
X288211D01*
Y451801D01*
Y451728D01*
Y450559D01*
X288284D01*
Y450193D01*
X288357D01*
Y449974D01*
X288430D01*
Y449901D01*
X288503D01*
Y449754D01*
X288576D01*
Y449681D01*
X288649D01*
Y449608D01*
X288722D01*
Y449535D01*
X288795D01*
Y449462D01*
X288868D01*
Y449389D01*
X289088D01*
Y449316D01*
X289234D01*
Y449243D01*
X289819D01*
Y449170D01*
X289892D01*
Y449243D01*
X290404D01*
Y449316D01*
X290623D01*
Y449389D01*
X290769D01*
Y449462D01*
X290842D01*
Y449535D01*
X290915D01*
Y449608D01*
X291061D01*
Y449681D01*
X291135D01*
Y449827D01*
X291208D01*
Y449316D01*
X292450D01*
Y454067D01*
D02*
G37*
G36*
X339746Y455675D02*
X338503D01*
Y455602D01*
X338430D01*
Y449389D01*
X338503D01*
Y449316D01*
X339746D01*
Y455675D01*
D02*
G37*
G36*
X336017Y454140D02*
X334848D01*
Y454067D01*
X334556D01*
Y453994D01*
X334336D01*
Y453921D01*
X334190D01*
Y453848D01*
X334044D01*
Y453775D01*
X333971D01*
Y453702D01*
X333898D01*
Y453629D01*
X333825D01*
Y453556D01*
X333752D01*
Y453482D01*
X333678D01*
Y453409D01*
X333605D01*
Y453263D01*
X333532D01*
Y453044D01*
X333459D01*
Y452751D01*
X333386D01*
Y452459D01*
X334629D01*
Y452605D01*
X334702D01*
Y452751D01*
X334775D01*
Y452898D01*
X334848D01*
Y452971D01*
X334921D01*
Y453044D01*
X335140D01*
Y453117D01*
X335652D01*
Y453044D01*
X335944D01*
Y452971D01*
X336017D01*
Y452898D01*
X336091D01*
Y452678D01*
X336164D01*
Y452605D01*
X336091D01*
Y452459D01*
X336017D01*
Y452386D01*
X335944D01*
Y452313D01*
X335725D01*
Y452240D01*
X335360D01*
Y452167D01*
X334848D01*
Y452094D01*
X334483D01*
Y452021D01*
X334190D01*
Y451947D01*
X334044D01*
Y451874D01*
X333898D01*
Y451801D01*
X333825D01*
Y451728D01*
X333678D01*
Y451655D01*
X333605D01*
Y451582D01*
X333532D01*
Y451436D01*
X333459D01*
Y451363D01*
X333386D01*
Y451216D01*
X333313D01*
Y450924D01*
X333240D01*
Y450193D01*
X333313D01*
Y449974D01*
X333386D01*
Y449827D01*
X333459D01*
Y449681D01*
X333532D01*
Y449608D01*
X333605D01*
Y449535D01*
X333678D01*
Y449462D01*
X333825D01*
Y449389D01*
X333898D01*
Y449316D01*
X334044D01*
Y449243D01*
X334336D01*
Y449170D01*
X335140D01*
Y449243D01*
X335360D01*
Y449316D01*
X335579D01*
Y449389D01*
X335725D01*
Y449462D01*
X335798D01*
Y449535D01*
X335944D01*
Y449608D01*
X336017D01*
Y449681D01*
X336091D01*
Y449754D01*
X336164D01*
Y449681D01*
X336237D01*
Y449389D01*
X336310D01*
Y449316D01*
X337699D01*
Y449535D01*
X337626D01*
Y449608D01*
X337553D01*
Y449681D01*
X337479D01*
Y449827D01*
X337406D01*
Y453117D01*
X337333D01*
Y453336D01*
X337260D01*
Y453482D01*
X337187D01*
Y453556D01*
X337114D01*
Y453629D01*
X337041D01*
Y453702D01*
X336968D01*
Y453775D01*
X336895D01*
Y453848D01*
X336749D01*
Y453921D01*
X336529D01*
Y453994D01*
X336310D01*
Y454067D01*
X336017D01*
Y454140D01*
D02*
G37*
G36*
X321690Y454067D02*
X320447D01*
Y449316D01*
X321690D01*
Y451290D01*
Y451363D01*
Y454067D01*
D02*
G37*
G36*
X310506D02*
X309263D01*
Y453994D01*
X309190D01*
Y452459D01*
Y452386D01*
Y449316D01*
X310506D01*
Y454067D01*
D02*
G37*
G36*
X313064Y455310D02*
X311822D01*
Y453994D01*
X311164D01*
Y453044D01*
X311822D01*
Y449827D01*
X311895D01*
Y449681D01*
X311968D01*
Y449535D01*
X312114D01*
Y449462D01*
X312187D01*
Y449389D01*
X312333D01*
Y449316D01*
X312626D01*
Y449243D01*
X313795D01*
Y449316D01*
X313868D01*
Y450193D01*
X313795D01*
Y450266D01*
X313137D01*
Y450412D01*
X313064D01*
Y453044D01*
X313795D01*
Y453117D01*
X313868D01*
Y453921D01*
X313795D01*
Y453994D01*
X313064D01*
Y455310D01*
D02*
G37*
G36*
X324979Y454140D02*
X324102D01*
Y454067D01*
X323883D01*
Y453994D01*
X323664D01*
Y453921D01*
X323591D01*
Y453848D01*
X323444D01*
Y453775D01*
X323371D01*
Y453702D01*
X323298D01*
Y453629D01*
X323225D01*
Y453556D01*
X323152D01*
Y453482D01*
X323079D01*
Y453409D01*
X323006D01*
Y453263D01*
X322933D01*
Y453117D01*
X322860D01*
Y452971D01*
X322786D01*
Y452825D01*
X322713D01*
Y452605D01*
X322640D01*
Y452240D01*
X322567D01*
Y451070D01*
X322640D01*
Y450705D01*
X322713D01*
Y450559D01*
X322786D01*
Y450339D01*
X322860D01*
Y450193D01*
X322933D01*
Y450120D01*
X323006D01*
Y449974D01*
X323079D01*
Y449901D01*
X323152D01*
Y449827D01*
X323225D01*
Y449754D01*
X323298D01*
Y449681D01*
X323371D01*
Y449608D01*
X323517D01*
Y449535D01*
X323664D01*
Y449462D01*
X323810D01*
Y449389D01*
X324029D01*
Y449316D01*
X325126D01*
Y449389D01*
X325272D01*
Y449462D01*
X325418D01*
Y449535D01*
X325564D01*
Y449608D01*
X325637D01*
Y449681D01*
X325711D01*
Y449754D01*
X325784D01*
Y449901D01*
X325857D01*
Y449243D01*
X325784D01*
Y448877D01*
X325711D01*
Y448731D01*
X325637D01*
Y448658D01*
X325564D01*
Y448585D01*
X325491D01*
Y448512D01*
X325345D01*
Y448439D01*
X325053D01*
Y448365D01*
X324614D01*
Y448439D01*
X324322D01*
Y448512D01*
X324249D01*
Y448585D01*
X324175D01*
Y448658D01*
X324102D01*
Y448804D01*
X324029D01*
Y448877D01*
X322713D01*
Y448804D01*
X322640D01*
Y448731D01*
X322713D01*
Y448439D01*
X322786D01*
Y448292D01*
X322860D01*
Y448219D01*
Y448146D01*
X322933D01*
Y448073D01*
X323006D01*
Y447927D01*
X323152D01*
Y447854D01*
X323225D01*
Y447781D01*
X323298D01*
Y447708D01*
X323444D01*
Y447635D01*
X323591D01*
Y447561D01*
X323810D01*
Y447488D01*
X324175D01*
Y447415D01*
X325491D01*
Y447488D01*
X325857D01*
Y447561D01*
X326076D01*
Y447635D01*
X326222D01*
Y447708D01*
X326368D01*
Y447781D01*
X326442D01*
Y447854D01*
X326515D01*
Y447927D01*
X326661D01*
Y448073D01*
X326734D01*
Y448146D01*
X326807D01*
Y448219D01*
X326880D01*
Y448365D01*
X326953D01*
Y448585D01*
X327026D01*
Y448877D01*
X327099D01*
Y454067D01*
X325930D01*
Y453994D01*
X325857D01*
Y453556D01*
X325784D01*
Y453629D01*
X325711D01*
Y453702D01*
X325637D01*
Y453775D01*
X325564D01*
Y453848D01*
X325491D01*
Y453921D01*
X325345D01*
Y453994D01*
X325199D01*
Y454067D01*
X324979D01*
Y454140D01*
D02*
G37*
%LPD*%
G36*
X336164Y451070D02*
X336091D01*
Y450705D01*
X336017D01*
Y450559D01*
X335944D01*
Y450412D01*
X335871D01*
Y450339D01*
X335725D01*
Y450266D01*
X335579D01*
Y450193D01*
X335360D01*
Y450120D01*
X334848D01*
Y450193D01*
X334702D01*
Y450266D01*
X334629D01*
Y450412D01*
X334556D01*
Y450924D01*
X334629D01*
Y451070D01*
X334702D01*
Y451143D01*
X334848D01*
Y451216D01*
X335067D01*
Y451290D01*
X335360D01*
Y451363D01*
X335725D01*
Y451436D01*
X335944D01*
Y451509D01*
X336164D01*
Y451070D01*
D02*
G37*
G36*
X324979Y452971D02*
X325272D01*
Y452898D01*
X325418D01*
Y452825D01*
X325491D01*
Y452751D01*
X325564D01*
Y452678D01*
X325637D01*
Y452532D01*
X325711D01*
Y452386D01*
X325784D01*
Y452313D01*
Y452167D01*
X325857D01*
Y451216D01*
X325784D01*
Y450997D01*
X325711D01*
Y450851D01*
X325637D01*
Y450705D01*
X325564D01*
Y450632D01*
X325491D01*
Y450559D01*
X325345D01*
Y450485D01*
X325272D01*
Y450412D01*
X324541D01*
Y450485D01*
X324395D01*
Y450559D01*
X324249D01*
Y450632D01*
X324175D01*
Y450778D01*
X324102D01*
Y450851D01*
X324029D01*
Y451070D01*
X323956D01*
Y451290D01*
X323883D01*
Y452094D01*
X323956D01*
Y452386D01*
X324029D01*
Y452532D01*
X324102D01*
Y452678D01*
X324175D01*
Y452751D01*
X324249D01*
Y452825D01*
X324322D01*
Y452898D01*
X324468D01*
Y452971D01*
X324760D01*
Y453044D01*
X324979D01*
Y452971D01*
D02*
G37*
D10*
X209732Y170740D02*
G03*
X210126Y170740I197J0D01*
G01*
D02*
G03*
X209732Y170740I-197J0D01*
G01*
X371732Y213740D02*
G03*
X372126Y213740I197J0D01*
G01*
D02*
G03*
X371732Y213740I-197J0D01*
G01*
X286732Y151740D02*
G03*
X287126Y151740I197J0D01*
G01*
D02*
G03*
X286732Y151740I-197J0D01*
G01*
X209732D02*
G03*
X210126Y151740I197J0D01*
G01*
D02*
G03*
X209732Y151740I-197J0D01*
G01*
X371732Y193740D02*
G03*
X372126Y193740I197J0D01*
G01*
D02*
G03*
X371732Y193740I-197J0D01*
G01*
X286732Y170740D02*
G03*
X287126Y170740I197J0D01*
G01*
D02*
G03*
X286732Y170740I-197J0D01*
G01*
D11*
X291386Y320000D02*
G03*
X291386Y320000I-13386J0D01*
G01*
X217213Y161291D02*
X221543D01*
Y163850D01*
X217213Y172709D02*
X221543D01*
Y170150D02*
Y172709D01*
X214457Y166213D02*
Y167787D01*
X170768Y164528D02*
X172638D01*
X174016Y155866D02*
Y164134D01*
Y155866D02*
X175984D01*
Y164134D01*
X174016D02*
X175984D01*
X145905Y185906D02*
Y191417D01*
X134095Y184528D02*
X145905D01*
X134095Y175472D02*
Y184528D01*
Y175472D02*
X145905D01*
Y184528D01*
X295717Y326496D02*
X297685D01*
X296701Y325512D02*
Y327480D01*
X246539Y128606D02*
Y129394D01*
X251461Y128606D02*
Y129394D01*
X151606Y111142D02*
Y116142D01*
X149106Y113642D02*
X151606Y116142D01*
X149106Y113642D02*
X151606Y111142D01*
X149106D02*
Y116142D01*
X149799Y117539D02*
X150201D01*
X149799Y122461D02*
X150201D01*
X244795Y146331D02*
X269205D01*
X244795Y187669D02*
X269205D01*
Y146331D02*
Y187669D01*
X244795Y146331D02*
Y187669D01*
X385665Y325539D02*
X386067D01*
X385665Y330461D02*
X386067D01*
X307677Y134961D02*
X311614D01*
X311615Y105041D02*
Y134962D01*
X288386Y105040D02*
X311614D01*
X288386Y134961D02*
X292323D01*
X288386Y105040D02*
Y134961D01*
X278701Y378701D02*
X341299D01*
Y441299D01*
X278701D02*
X341299D01*
X278701Y378701D02*
Y441299D01*
X199250Y479650D02*
X210750D01*
Y468350D02*
Y479650D01*
X199250Y468350D02*
X210750D01*
X199250D02*
Y479650D01*
X189701Y198614D02*
Y211213D01*
X199839D02*
X202299D01*
X189701D02*
X192161D01*
X202299Y198614D02*
Y211213D01*
X199839Y198614D02*
X202299D01*
X189701D02*
X192161D01*
X168866Y198441D02*
Y203559D01*
X177134Y198441D02*
Y203559D01*
X229409Y486854D02*
X230591D01*
X229409Y481146D02*
X230591D01*
X135669Y150768D02*
X144331D01*
X135690Y159263D02*
X144352D01*
X353417Y312476D02*
X366803D01*
X353417Y255587D02*
Y312476D01*
Y255587D02*
X366803D01*
Y312476D01*
X379114Y246102D02*
X383740D01*
Y233898D02*
Y236949D01*
Y243051D02*
Y246102D01*
X379114Y233898D02*
X383740D01*
X376260Y239311D02*
Y240689D01*
X178953Y226819D02*
Y229181D01*
X173047Y226819D02*
Y229181D01*
X165669Y125768D02*
X174331D01*
X165690Y134263D02*
X174352D01*
X195669Y482768D02*
X204331D01*
X195690Y491262D02*
X204352D01*
X170232Y175669D02*
Y184331D01*
X161738Y175690D02*
Y184352D01*
X190232Y175669D02*
Y184331D01*
X181737Y175690D02*
Y184352D01*
X162953Y226819D02*
Y229181D01*
X157047Y226819D02*
Y229181D01*
X207677Y134961D02*
X211614D01*
X211615Y105041D02*
Y134962D01*
X188386Y105040D02*
X211614D01*
X188386Y134961D02*
X192323D01*
X188386Y105040D02*
Y134961D01*
X119606Y313539D02*
X120394D01*
X119606Y318461D02*
X120394D01*
X119606Y264539D02*
X120394D01*
X119606Y269461D02*
X120394D01*
X357669Y325539D02*
X358457D01*
X357669Y330461D02*
X358457D01*
X121606Y277142D02*
Y282142D01*
X119106Y279642D02*
X121606Y282142D01*
X119106Y279642D02*
X121606Y277142D01*
X119106D02*
Y282142D01*
X119799Y283539D02*
X120201D01*
X119799Y288461D02*
X120201D01*
X121606Y229142D02*
Y234142D01*
X119106Y231642D02*
X121606Y234142D01*
X119106Y231642D02*
X121606Y229142D01*
X119106D02*
Y234142D01*
X119799Y235539D02*
X120201D01*
X119799Y240461D02*
X120201D01*
X379213Y204291D02*
X383543D01*
Y206850D01*
X379213Y215709D02*
X383543D01*
Y213150D02*
Y215709D01*
X376457Y209213D02*
Y210787D01*
X294213Y142291D02*
X298543D01*
Y144850D01*
X294213Y153709D02*
X298543D01*
Y151150D02*
Y153709D01*
X291457Y147213D02*
Y148787D01*
X217213Y142291D02*
X221543D01*
Y144850D01*
X217213Y153709D02*
X221543D01*
Y151150D02*
Y153709D01*
X214457Y147213D02*
Y148787D01*
X369606Y167539D02*
X370394D01*
X369606Y172461D02*
X370394D01*
X369606Y152539D02*
X370394D01*
X369606Y157461D02*
X370394D01*
X327539Y129606D02*
Y130394D01*
X332461Y129606D02*
Y130394D01*
X342539Y129606D02*
Y130394D01*
X347461Y129606D02*
Y130394D01*
X226539Y128606D02*
Y129394D01*
X231461Y128606D02*
Y129394D01*
X319795Y146331D02*
X344205D01*
X319795Y187669D02*
X344205D01*
Y146331D02*
Y187669D01*
X319795Y146331D02*
Y187669D01*
X379213Y184291D02*
X383543D01*
Y186850D01*
X379213Y195709D02*
X383543D01*
Y193150D02*
Y195709D01*
X376457Y189213D02*
Y190787D01*
X294213Y161291D02*
X298543D01*
Y163850D01*
X294213Y172709D02*
X298543D01*
Y170150D02*
Y172709D01*
X291457Y166213D02*
Y167787D01*
D12*
X249913Y183732D02*
G03*
X249913Y183732I-1181J0D01*
G01*
X324913D02*
G03*
X324913Y183732I-1181J0D01*
G01*
D13*
X239776Y187847D02*
G03*
X239776Y187847I-492J0D01*
G01*
X296492Y136646D02*
G03*
X296492Y136646I-492J0D01*
G01*
X295433Y377028D02*
G03*
X295433Y377028I-492J0D01*
G01*
X171819Y194012D02*
G03*
X171819Y194012I-492J0D01*
G01*
X361980Y253224D02*
G03*
X361980Y253224I-492J0D01*
G01*
X196492Y136646D02*
G03*
X196492Y136646I-492J0D01*
G01*
X314776Y187847D02*
G03*
X314776Y187847I-492J0D01*
G01*
D14*
X225000Y105000D02*
X255000D01*
Y115000D01*
X225000D02*
X255000D01*
X225000Y105000D02*
Y115000D01*
X125000Y336000D02*
Y356000D01*
X115000D02*
X125000D01*
X115000Y336000D02*
Y356000D01*
Y336000D02*
X125000D01*
X230000Y200000D02*
Y300000D01*
X320000D01*
Y200000D02*
Y300000D01*
X230000Y200000D02*
X320000D01*
X125000Y398000D02*
Y418000D01*
X115000D02*
X125000D01*
X115000Y398000D02*
Y418000D01*
Y398000D02*
X125000D01*
Y368000D02*
Y388000D01*
X115000D02*
X125000D01*
X115000Y368000D02*
Y388000D01*
Y368000D02*
X125000D01*
X385000Y145000D02*
Y175000D01*
Y145000D02*
X395000D01*
Y175000D01*
X385000D02*
X395000D01*
X325000Y105000D02*
X355000D01*
Y115000D01*
X325000D02*
X355000D01*
X325000Y105000D02*
Y115000D01*
X377000Y455000D02*
X381000Y451000D01*
X315000Y481000D02*
X351000D01*
X239661D02*
X302000D01*
X351000D02*
X377000Y455000D01*
X381000Y451000D02*
X381000Y339661D01*
X239331Y480669D02*
X239661Y481000D01*
X239331Y339331D02*
Y480669D01*
X380669Y339331D02*
X381000Y339661D01*
X239331Y339331D02*
X380669D01*
X102253Y185499D02*
X105585D01*
X103919D01*
Y180501D01*
X107251D02*
Y185499D01*
X109750D01*
X110583Y184666D01*
Y183000D01*
X109750Y182167D01*
X107251D01*
X112250Y180501D02*
X113916D01*
X113083D01*
Y185499D01*
X112250Y184666D01*
X119747Y180501D02*
X116415D01*
X119747Y183833D01*
Y184666D01*
X118914Y185499D01*
X117248D01*
X116415Y184666D01*
X167335Y216727D02*
X170668D01*
X169002D01*
Y211729D01*
X172334D02*
Y216727D01*
X174833D01*
X175666Y215895D01*
Y214228D01*
X174833Y213395D01*
X172334D01*
X177332Y215895D02*
X178165Y216727D01*
X179831D01*
X180665Y215895D01*
Y215061D01*
X179831Y214228D01*
X178998D01*
X179831D01*
X180665Y213395D01*
Y212562D01*
X179831Y211729D01*
X178165D01*
X177332Y212562D01*
X137336Y200499D02*
X140668D01*
X139002D01*
Y195501D01*
X142334D02*
Y200499D01*
X144833D01*
X145666Y199666D01*
Y198000D01*
X144833Y197167D01*
X142334D01*
X149831Y195501D02*
Y200499D01*
X147332Y198000D01*
X150664D01*
X194335Y241499D02*
X197668D01*
X196002D01*
Y236501D01*
X199334D02*
Y241499D01*
X201833D01*
X202666Y240666D01*
Y239000D01*
X201833Y238167D01*
X199334D01*
X207664Y241499D02*
X204332D01*
Y239000D01*
X205998Y239833D01*
X206831D01*
X207664Y239000D01*
Y237334D01*
X206831Y236501D01*
X205165D01*
X204332Y237334D01*
X192335Y193499D02*
X195668D01*
X194002D01*
Y188501D01*
X197334D02*
Y193499D01*
X199833D01*
X200666Y192666D01*
Y191000D01*
X199833Y190167D01*
X197334D01*
X205664Y193499D02*
X203998Y192666D01*
X202332Y191000D01*
Y189334D01*
X203165Y188501D01*
X204831D01*
X205664Y189334D01*
Y190167D01*
X204831Y191000D01*
X202332D01*
X181335Y145499D02*
X184668D01*
X183002D01*
Y140501D01*
X186334D02*
Y145499D01*
X188833D01*
X189666Y144666D01*
Y143000D01*
X188833Y142167D01*
X186334D01*
X191332Y145499D02*
X194665D01*
Y144666D01*
X191332Y141334D01*
Y140501D01*
X103335Y153499D02*
X106668D01*
X105002D01*
Y148501D01*
X108334D02*
Y153499D01*
X110833D01*
X111666Y152666D01*
Y151000D01*
X110833Y150167D01*
X108334D01*
X113332Y152666D02*
X114165Y153499D01*
X115831D01*
X116665Y152666D01*
Y151833D01*
X115831Y151000D01*
X116665Y150167D01*
Y149334D01*
X115831Y148501D01*
X114165D01*
X113332Y149334D01*
Y150167D01*
X114165Y151000D01*
X113332Y151833D01*
Y152666D01*
X114165Y151000D02*
X115831D01*
X325336Y330499D02*
X328668D01*
X327002D01*
Y325501D01*
X330334D02*
Y330499D01*
X332833D01*
X333666Y329666D01*
Y328000D01*
X332833Y327167D01*
X330334D01*
X335332Y326334D02*
X336165Y325501D01*
X337831D01*
X338665Y326334D01*
Y329666D01*
X337831Y330499D01*
X336165D01*
X335332Y329666D01*
Y328833D01*
X336165Y328000D01*
X338665D01*
X246253Y308499D02*
X249585D01*
X247919D01*
Y303501D01*
X251251D02*
Y308499D01*
X253750D01*
X254584Y307666D01*
Y306000D01*
X253750Y305167D01*
X251251D01*
X256250Y303501D02*
X257916D01*
X257083D01*
Y308499D01*
X256250Y307666D01*
X260415D02*
X261248Y308499D01*
X262914D01*
X263747Y307666D01*
Y304334D01*
X262914Y303501D01*
X261248D01*
X260415Y304334D01*
Y307666D01*
X224086Y308499D02*
X227418D01*
X225752D01*
Y303501D01*
X229084D02*
Y308499D01*
X231583D01*
X232417Y307666D01*
Y306000D01*
X231583Y305167D01*
X229084D01*
X234083Y303501D02*
X235749D01*
X234916D01*
Y308499D01*
X234083Y307666D01*
X238248Y303501D02*
X239914D01*
X239081D01*
Y308499D01*
X238248Y307666D01*
X388002Y359000D02*
X393000D01*
Y362332D01*
X388002Y366498D02*
Y364831D01*
X388835Y363998D01*
X392167D01*
X393000Y364831D01*
Y366498D01*
X392167Y367331D01*
X388835D01*
X388002Y366498D01*
X388835Y372329D02*
X388002Y371496D01*
Y369830D01*
X388835Y368997D01*
X392167D01*
X393000Y369830D01*
Y371496D01*
X392167Y372329D01*
X388002Y373995D02*
X393000D01*
X391334D01*
X388002Y377327D01*
X390501Y374828D01*
X393000Y377327D01*
X388835Y338332D02*
X388002Y337499D01*
Y335833D01*
X388835Y335000D01*
X392167D01*
X393000Y335833D01*
Y337499D01*
X392167Y338332D01*
X390501D01*
Y336666D01*
X393000Y339998D02*
X388002D01*
X393000Y343331D01*
X388002D01*
X388835Y348329D02*
X388002Y347496D01*
Y345830D01*
X388835Y344997D01*
X389668D01*
X390501Y345830D01*
Y347496D01*
X391334Y348329D01*
X392167D01*
X393000Y347496D01*
Y345830D01*
X392167Y344997D01*
X388835Y353327D02*
X388002Y352494D01*
Y350828D01*
X388835Y349995D01*
X389668D01*
X390501Y350828D01*
Y352494D01*
X391334Y353327D01*
X392167D01*
X393000Y352494D01*
Y350828D01*
X392167Y349995D01*
X166000Y113498D02*
Y110166D01*
X167666Y108500D01*
X169332Y110166D01*
Y113498D01*
X170998D02*
Y108500D01*
X173498D01*
X174331Y109333D01*
Y110166D01*
X173498Y110999D01*
X170998D01*
X173498D01*
X174331Y111832D01*
Y112665D01*
X173498Y113498D01*
X170998D01*
X175997Y108500D02*
Y111832D01*
X177663Y113498D01*
X179329Y111832D01*
Y108500D01*
Y110999D01*
X175997D01*
X180995Y113498D02*
X184327D01*
X182661D01*
Y108500D01*
X266000Y126998D02*
Y123666D01*
X267666Y122000D01*
X269332Y123666D01*
Y126998D01*
X270998D02*
Y122000D01*
X273498D01*
X274331Y122833D01*
Y123666D01*
X273498Y124499D01*
X270998D01*
X273498D01*
X274331Y125332D01*
Y126165D01*
X273498Y126998D01*
X270998D01*
X275997D02*
Y122833D01*
X276830Y122000D01*
X278496D01*
X279329Y122833D01*
Y126998D01*
X284327Y126165D02*
X283494Y126998D01*
X281828D01*
X280995Y126165D01*
Y125332D01*
X281828Y124499D01*
X283494D01*
X284327Y123666D01*
Y122833D01*
X283494Y122000D01*
X281828D01*
X280995Y122833D01*
X146000Y126000D02*
Y130998D01*
X148499D01*
X149332Y130165D01*
Y128499D01*
X148499Y127666D01*
X146000D01*
X154331Y130165D02*
X153498Y130998D01*
X151831D01*
X150998Y130165D01*
Y126833D01*
X151831Y126000D01*
X153498D01*
X154331Y126833D01*
Y128499D01*
X152664D01*
X119332Y297998D02*
X116000D01*
Y295499D01*
X117666Y296332D01*
X118499D01*
X119332Y295499D01*
Y293833D01*
X118499Y293000D01*
X116833D01*
X116000Y293833D01*
X120998Y297998D02*
Y294666D01*
X122664Y293000D01*
X124331Y294666D01*
Y297998D01*
X125910Y249998D02*
Y246666D01*
X127576Y245000D01*
X129243Y246666D01*
Y249998D01*
X130909D02*
Y245000D01*
X133408D01*
X134241Y245833D01*
Y246666D01*
X133408Y247499D01*
X130909D01*
X133408D01*
X134241Y248332D01*
Y249165D01*
X133408Y249998D01*
X130909D01*
X135907D02*
Y245833D01*
X136740Y245000D01*
X138406D01*
X139239Y245833D01*
Y249998D01*
X144238Y249165D02*
X143405Y249998D01*
X141738D01*
X140905Y249165D01*
Y248332D01*
X141738Y247499D01*
X143405D01*
X144238Y246666D01*
Y245833D01*
X143405Y245000D01*
X141738D01*
X140905Y245833D01*
X178000Y476998D02*
Y473666D01*
X179666Y472000D01*
X181332Y473666D01*
Y476998D01*
X182998D02*
Y472000D01*
X185498D01*
X186331Y472833D01*
Y473666D01*
X185498Y474499D01*
X182998D01*
X185498D01*
X186331Y475332D01*
Y476165D01*
X185498Y476998D01*
X182998D01*
X187997D02*
Y472833D01*
X188830Y472000D01*
X190496D01*
X191329Y472833D01*
Y476998D01*
X196327Y476165D02*
X195494Y476998D01*
X193828D01*
X192995Y476165D01*
Y475332D01*
X193828Y474499D01*
X195494D01*
X196327Y473666D01*
Y472833D01*
X195494Y472000D01*
X193828D01*
X192995Y472833D01*
X170000Y353664D02*
X173332D01*
X171666D01*
Y348666D01*
X177498D02*
X175831D01*
X174998Y349499D01*
Y351165D01*
X175831Y351998D01*
X177498D01*
X178331Y351165D01*
Y350332D01*
X174998D01*
X182496Y348666D02*
X180830D01*
X179997Y349499D01*
Y351165D01*
X180830Y351998D01*
X182496D01*
X183329Y351165D01*
Y350332D01*
X179997D01*
X184995Y348666D02*
Y351998D01*
X187494D01*
X188327Y351165D01*
Y348666D01*
X189994D02*
X192493D01*
X193326Y349499D01*
X192493Y350332D01*
X190827D01*
X189994Y351165D01*
X190827Y351998D01*
X193326D01*
X194992D02*
Y349499D01*
X195825Y348666D01*
X198324D01*
Y347833D01*
X197491Y347000D01*
X196658D01*
X198324Y348666D02*
Y351998D01*
X380000Y100000D02*
G03*
X400000Y120000I0J20000D01*
G01*
X100000Y120000D02*
G03*
X120000Y100000I20000J0D01*
G01*
X400000Y480000D02*
G03*
X380000Y500000I-20000J0D01*
G01*
X120000Y500000D02*
G03*
X100000Y480000I0J-20000D01*
G01*
Y120000D02*
Y480000D01*
X400000Y120000D02*
X400000Y480000D01*
X120000Y100000D02*
X380000D01*
X120000Y500000D02*
X380000D01*
D15*
X394366Y325500D02*
Y330500D01*
M02*
