G04*
G04 #@! TF.GenerationSoftware,Altium Limited,Altium Designer,23.8.1 (32)*
G04*
G04 Layer_Color=8421504*
%FSLAX25Y25*%
%MOIN*%
G70*
G04*
G04 #@! TF.SameCoordinates,29178C35-F4AC-4926-8FEA-C3B9FECDB407*
G04*
G04*
G04 #@! TF.FilePolarity,Positive*
G04*
G01*
G75*
%ADD14C,0.01000*%
%ADD16R,0.03543X0.03150*%
%ADD17R,0.01870X0.01181*%
%ADD18R,0.01181X0.05512*%
%ADD19C,0.01000*%
%ADD20R,0.07087X0.01968*%
%ADD21R,0.06693X0.01968*%
%ADD22R,0.05709X0.04724*%
%ADD23R,0.02953X0.03347*%
%ADD24R,0.03150X0.03740*%
%ADD25R,0.03543X0.04134*%
%ADD26R,0.02756X0.03347*%
%ADD27R,0.03150X0.03937*%
%ADD28R,0.04724X0.04724*%
%ADD29O,0.07874X0.02362*%
%ADD30R,0.07087X0.05906*%
%ADD31R,0.05906X0.07087*%
%ADD32R,0.04724X0.05906*%
G04:AMPARAMS|DCode=33|XSize=26.38mil|YSize=11.81mil|CornerRadius=1.95mil|HoleSize=0mil|Usage=FLASHONLY|Rotation=90.000|XOffset=0mil|YOffset=0mil|HoleType=Round|Shape=RoundedRectangle|*
%AMROUNDEDRECTD33*
21,1,0.02638,0.00791,0,0,90.0*
21,1,0.02248,0.01181,0,0,90.0*
1,1,0.00390,0.00396,0.01124*
1,1,0.00390,0.00396,-0.01124*
1,1,0.00390,-0.00396,-0.01124*
1,1,0.00390,-0.00396,0.01124*
%
%ADD33ROUNDEDRECTD33*%
%ADD34R,0.03150X0.04134*%
%ADD35R,0.03740X0.05315*%
%ADD36R,0.06693X0.04528*%
%ADD37C,0.04000*%
%ADD38R,0.03740X0.03347*%
%ADD39R,0.03347X0.03740*%
%ADD40R,0.05315X0.03740*%
%ADD41R,0.03937X0.03150*%
%ADD42R,0.03347X0.02953*%
%ADD43R,0.04724X0.05709*%
D14*
X380000Y100000D02*
G03*
X400000Y120000I0J20000D01*
G01*
X100000Y120000D02*
G03*
X120000Y100000I20000J0D01*
G01*
X400000Y480000D02*
G03*
X380000Y500000I-20000J0D01*
G01*
X120000Y500000D02*
G03*
X100000Y480000I0J-20000D01*
G01*
Y120000D02*
Y480000D01*
X400000Y120000D02*
X400000Y480000D01*
X120000Y100000D02*
X380000D01*
X120000Y500000D02*
X380000D01*
D16*
X213866Y170740D02*
D03*
Y163260D02*
D03*
X222134Y167000D02*
D03*
X375866Y243740D02*
D03*
Y236260D02*
D03*
X384134Y240000D02*
D03*
X375866Y213740D02*
D03*
Y206260D02*
D03*
X384134Y210000D02*
D03*
X290866Y151740D02*
D03*
Y144260D02*
D03*
X299134Y148000D02*
D03*
X213866Y151740D02*
D03*
Y144260D02*
D03*
X222134Y148000D02*
D03*
X375866Y193740D02*
D03*
Y186260D02*
D03*
X384134Y190000D02*
D03*
X290866Y170740D02*
D03*
Y163260D02*
D03*
X299134Y167000D02*
D03*
D17*
X178299Y162953D02*
D03*
Y160984D02*
D03*
Y159016D02*
D03*
Y157047D02*
D03*
X171701D02*
D03*
Y159016D02*
D03*
Y160984D02*
D03*
Y162953D02*
D03*
D18*
X143937Y171339D02*
D03*
X141969D02*
D03*
X140000D02*
D03*
X138031D02*
D03*
X136063D02*
D03*
Y188661D02*
D03*
X138031D02*
D03*
X140000D02*
D03*
X141969D02*
D03*
X143937D02*
D03*
D19*
X393000Y239000D02*
D03*
Y235000D02*
D03*
X120000Y302000D02*
D03*
Y306000D02*
D03*
Y253000D02*
D03*
Y257000D02*
D03*
X375000Y328000D02*
D03*
X371000D02*
D03*
X152000Y106000D02*
D03*
X148000D02*
D03*
X345000Y197000D02*
D03*
Y193000D02*
D03*
X325000Y197000D02*
D03*
Y193000D02*
D03*
X305000D02*
D03*
Y197000D02*
D03*
X285000Y193000D02*
D03*
Y197000D02*
D03*
X264000D02*
D03*
Y193000D02*
D03*
X245000Y197000D02*
D03*
Y193000D02*
D03*
D20*
X296701Y322953D02*
D03*
D21*
X296898Y317047D02*
D03*
D22*
X249000Y125063D02*
D03*
Y132937D02*
D03*
X330000Y126063D02*
D03*
Y133937D02*
D03*
X345000Y126063D02*
D03*
Y133937D02*
D03*
X229000Y125063D02*
D03*
Y132937D02*
D03*
D23*
X382559Y226000D02*
D03*
X377441D02*
D03*
X197441Y274000D02*
D03*
X202559D02*
D03*
X199559Y163000D02*
D03*
X194441D02*
D03*
X197441Y254000D02*
D03*
X202559D02*
D03*
X197441Y264000D02*
D03*
X202559D02*
D03*
X117559Y219000D02*
D03*
X112441D02*
D03*
X117559Y164000D02*
D03*
X112441D02*
D03*
X199559Y152000D02*
D03*
X194441D02*
D03*
X122559Y393000D02*
D03*
X117441D02*
D03*
X122559Y363000D02*
D03*
X117441D02*
D03*
X122559Y332000D02*
D03*
X117441D02*
D03*
D24*
X112343Y174000D02*
D03*
X117657D02*
D03*
D25*
X142854Y208000D02*
D03*
X137146D02*
D03*
D26*
X149461Y219000D02*
D03*
X144539D02*
D03*
D27*
X343063Y319032D02*
D03*
X337158D02*
D03*
X259095Y275000D02*
D03*
X265000D02*
D03*
X259095Y265000D02*
D03*
X265000D02*
D03*
X362953Y236000D02*
D03*
X357047D02*
D03*
X362953Y224000D02*
D03*
X357047D02*
D03*
X342953Y236000D02*
D03*
X337047D02*
D03*
X342953Y224000D02*
D03*
X337047D02*
D03*
X190047Y228000D02*
D03*
X195953D02*
D03*
X117953Y199000D02*
D03*
X112047D02*
D03*
X112047Y209000D02*
D03*
X117953D02*
D03*
X117047Y455000D02*
D03*
X122953D02*
D03*
X117047Y445000D02*
D03*
X122953D02*
D03*
X343063Y249031D02*
D03*
X337158D02*
D03*
X343063Y269032D02*
D03*
X337158D02*
D03*
X343063Y279031D02*
D03*
X337158D02*
D03*
X343063Y289032D02*
D03*
X337158D02*
D03*
X343063Y299031D02*
D03*
X337158D02*
D03*
X343063Y309032D02*
D03*
X337158D02*
D03*
D28*
X145866Y120000D02*
D03*
X154134D02*
D03*
X381732Y328000D02*
D03*
X390000D02*
D03*
X115866Y286000D02*
D03*
X124134D02*
D03*
X115866Y238000D02*
D03*
X124134D02*
D03*
D29*
X274716Y149500D02*
D03*
Y154500D02*
D03*
Y159500D02*
D03*
Y164500D02*
D03*
Y169500D02*
D03*
Y174500D02*
D03*
Y179500D02*
D03*
Y184500D02*
D03*
X239283Y149500D02*
D03*
Y154500D02*
D03*
Y159500D02*
D03*
Y164500D02*
D03*
Y169500D02*
D03*
Y174500D02*
D03*
Y179500D02*
D03*
Y184500D02*
D03*
X349716Y149500D02*
D03*
Y154500D02*
D03*
Y159500D02*
D03*
Y164500D02*
D03*
Y169500D02*
D03*
Y174500D02*
D03*
Y179500D02*
D03*
Y184500D02*
D03*
X314283Y149500D02*
D03*
Y154500D02*
D03*
Y159500D02*
D03*
Y164500D02*
D03*
Y169500D02*
D03*
Y174500D02*
D03*
Y179500D02*
D03*
Y184500D02*
D03*
D30*
X284016Y395039D02*
D03*
Y402520D02*
D03*
Y410000D02*
D03*
Y417480D02*
D03*
Y424961D02*
D03*
X335984D02*
D03*
Y417480D02*
D03*
Y410000D02*
D03*
Y402520D02*
D03*
Y395039D02*
D03*
D31*
X295039Y435984D02*
D03*
X302520D02*
D03*
X310000D02*
D03*
X317480D02*
D03*
X324961D02*
D03*
Y384016D02*
D03*
X317480D02*
D03*
X310000D02*
D03*
X302520D02*
D03*
X295039D02*
D03*
D32*
X196000Y199598D02*
D03*
Y210228D02*
D03*
D33*
X171031Y198087D02*
D03*
X173000D02*
D03*
X174969D02*
D03*
Y203913D02*
D03*
X173000D02*
D03*
X171031D02*
D03*
D34*
X226358Y484000D02*
D03*
X233642D02*
D03*
D35*
X142953Y155000D02*
D03*
X137047D02*
D03*
X172953Y130000D02*
D03*
X167047D02*
D03*
X202953Y487000D02*
D03*
X197047D02*
D03*
D36*
X176000Y233020D02*
D03*
Y222980D02*
D03*
X160000Y233020D02*
D03*
Y222980D02*
D03*
D37*
X124000Y186000D02*
D03*
X142000Y491000D02*
D03*
X393000Y250000D02*
D03*
X368000Y142000D02*
D03*
X110000Y143000D02*
D03*
X175000Y120000D02*
D03*
X276000Y114000D02*
D03*
X163000Y214000D02*
D03*
X157000Y198000D02*
D03*
X191000Y239000D02*
D03*
X186000Y191000D02*
D03*
X187000Y152000D02*
D03*
X121000Y153000D02*
D03*
X344000Y328000D02*
D03*
X253000Y314000D02*
D03*
X233000D02*
D03*
D38*
X253000Y324000D02*
D03*
Y329118D02*
D03*
X230000Y402559D02*
D03*
Y397441D02*
D03*
Y387559D02*
D03*
Y382441D02*
D03*
X233000Y329118D02*
D03*
Y324000D02*
D03*
D39*
X197441Y394000D02*
D03*
X202559D02*
D03*
Y384000D02*
D03*
X197441D02*
D03*
X167441Y324000D02*
D03*
X172559D02*
D03*
X167441Y334000D02*
D03*
X172559D02*
D03*
X295000Y275000D02*
D03*
X289882D02*
D03*
X117441Y435000D02*
D03*
X122559D02*
D03*
X295000Y235000D02*
D03*
X289882D02*
D03*
X117441Y425000D02*
D03*
X122559D02*
D03*
X295000Y225000D02*
D03*
X289882D02*
D03*
X342669Y259032D02*
D03*
X337551D02*
D03*
D40*
X166000Y182953D02*
D03*
Y177047D02*
D03*
X186000Y182953D02*
D03*
Y177047D02*
D03*
D41*
X218000Y235953D02*
D03*
Y230047D02*
D03*
Y217953D02*
D03*
Y212047D02*
D03*
D42*
X204000Y179441D02*
D03*
Y184559D02*
D03*
X219000Y179441D02*
D03*
Y184559D02*
D03*
D43*
X123937Y316000D02*
D03*
X116063D02*
D03*
X123937Y267000D02*
D03*
X116063D02*
D03*
X362000Y328000D02*
D03*
X354126D02*
D03*
X373937Y170000D02*
D03*
X366063D02*
D03*
X373937Y155000D02*
D03*
X366063D02*
D03*
M02*
