G04*
G04 #@! TF.GenerationSoftware,Altium Limited,Altium Designer,23.8.1 (32)*
G04*
G04 Layer_Physical_Order=2*
G04 Layer_Color=36540*
%FSLAX25Y25*%
%MOIN*%
G70*
G04*
G04 #@! TF.SameCoordinates,29178C35-F4AC-4926-8FEA-C3B9FECDB407*
G04*
G04*
G04 #@! TF.FilePolarity,Positive*
G04*
G01*
G75*
%ADD14C,0.01000*%
%ADD67C,0.06000*%
%ADD71C,0.03937*%
%ADD73C,0.03543*%
%ADD79C,0.05118*%
%ADD80R,0.05118X0.05118*%
%ADD81C,0.35433*%
%ADD82C,0.04724*%
%ADD83C,0.02205*%
G36*
X381265Y499297D02*
X383773Y498967D01*
X386216Y498312D01*
X388553Y497344D01*
X390744Y496080D01*
X392751Y494540D01*
X394540Y492751D01*
X396080Y490744D01*
X397344Y488553D01*
X398312Y486216D01*
X398967Y483773D01*
X399297Y481265D01*
Y480000D01*
X399297Y120008D01*
X399297Y118735D01*
X398967Y116227D01*
X398312Y113784D01*
X397344Y111447D01*
X396080Y109256D01*
X394540Y107249D01*
X392751Y105460D01*
X390744Y103920D01*
X388553Y102656D01*
X386216Y101688D01*
X383773Y101033D01*
X381265Y100703D01*
X118735D01*
X116227Y101033D01*
X113784Y101687D01*
X111448Y102655D01*
X109257Y103920D01*
X107250Y105459D01*
X105462Y107248D01*
X103921Y109254D01*
X102657Y111445D01*
X101688Y113781D01*
X101033Y116225D01*
X100703Y118732D01*
X100703Y119997D01*
X100703Y480000D01*
Y481265D01*
X101033Y483773D01*
X101687Y486216D01*
X102655Y488553D01*
X103920Y490743D01*
X105459Y492750D01*
X107248Y494538D01*
X109254Y496078D01*
X111445Y497343D01*
X113781Y498312D01*
X116225Y498967D01*
X118732Y499297D01*
X119997Y499297D01*
X380000Y499297D01*
X381265Y499297D01*
D02*
G37*
%LPC*%
G36*
X215470Y487557D02*
X214533D01*
X213628Y487315D01*
X212817Y486846D01*
X212154Y486184D01*
X211685Y485372D01*
X211443Y484467D01*
Y483530D01*
X211685Y482624D01*
X212154Y481813D01*
X212817Y481150D01*
X213628Y480682D01*
X214533Y480439D01*
X215470D01*
X216376Y480682D01*
X217187Y481150D01*
X217850Y481813D01*
X218318Y482624D01*
X218561Y483530D01*
Y484467D01*
X218318Y485372D01*
X217850Y486184D01*
X217187Y486846D01*
X216376Y487315D01*
X215470Y487557D01*
D02*
G37*
G36*
X155467Y477561D02*
X154530D01*
X153624Y477318D01*
X152813Y476850D01*
X152150Y476187D01*
X151682Y475376D01*
X151439Y474470D01*
Y473533D01*
X151682Y472628D01*
X152150Y471816D01*
X152813Y471154D01*
X153624Y470685D01*
X154530Y470443D01*
X155467D01*
X156372Y470685D01*
X157184Y471154D01*
X157846Y471816D01*
X158315Y472628D01*
X158557Y473533D01*
Y474470D01*
X158315Y475376D01*
X157846Y476187D01*
X157184Y476850D01*
X156372Y477318D01*
X155467Y477561D01*
D02*
G37*
G36*
X205539Y478089D02*
X204462D01*
X203421Y477810D01*
X202488Y477272D01*
X201727Y476510D01*
X201188Y475577D01*
X200909Y474537D01*
Y473460D01*
X201188Y472419D01*
X201727Y471487D01*
X202488Y470725D01*
X203421Y470186D01*
X204462Y469908D01*
X205539D01*
X206579Y470186D01*
X207512Y470725D01*
X208273Y471487D01*
X208812Y472419D01*
X209090Y473460D01*
Y474537D01*
X208812Y475577D01*
X208273Y476510D01*
X207512Y477272D01*
X206579Y477810D01*
X205539Y478089D01*
D02*
G37*
G36*
X155467Y467561D02*
X154530D01*
X153624Y467318D01*
X152813Y466850D01*
X152150Y466187D01*
X151682Y465376D01*
X151439Y464470D01*
Y463533D01*
X151682Y462628D01*
X152150Y461817D01*
X152813Y461154D01*
X153624Y460685D01*
X154530Y460443D01*
X155467D01*
X156372Y460685D01*
X157184Y461154D01*
X157846Y461817D01*
X158315Y462628D01*
X158557Y463533D01*
Y464470D01*
X158315Y465376D01*
X157846Y466187D01*
X157184Y466850D01*
X156372Y467318D01*
X155467Y467561D01*
D02*
G37*
G36*
X215470Y467557D02*
X214533D01*
X213628Y467315D01*
X212817Y466846D01*
X212154Y466184D01*
X211685Y465372D01*
X211443Y464467D01*
Y463530D01*
X211685Y462624D01*
X212154Y461813D01*
X212817Y461150D01*
X213628Y460682D01*
X214533Y460439D01*
X215470D01*
X216376Y460682D01*
X217187Y461150D01*
X217850Y461813D01*
X218318Y462624D01*
X218561Y463530D01*
Y464467D01*
X218318Y465372D01*
X217850Y466184D01*
X217187Y466846D01*
X216376Y467315D01*
X215470Y467557D01*
D02*
G37*
G36*
X177418Y468102D02*
X176582D01*
X175809Y467782D01*
X175218Y467191D01*
X174898Y466418D01*
Y465582D01*
X175218Y464809D01*
X175734Y464292D01*
X175777Y464000D01*
X175734Y463707D01*
X175218Y463191D01*
X174898Y462418D01*
Y461582D01*
X175218Y460809D01*
X175809Y460218D01*
X176582Y459898D01*
X177418D01*
X178191Y460218D01*
X178782Y460809D01*
X179102Y461582D01*
Y462418D01*
X178782Y463191D01*
X178266Y463707D01*
X178223Y464000D01*
X178266Y464292D01*
X178782Y464809D01*
X179102Y465582D01*
Y466418D01*
X178782Y467191D01*
X178191Y467782D01*
X177418Y468102D01*
D02*
G37*
G36*
X172418D02*
X171582D01*
X170809Y467782D01*
X170218Y467191D01*
X169898Y466418D01*
Y465582D01*
X170218Y464809D01*
X170734Y464292D01*
X170777Y464000D01*
X170734Y463707D01*
X170218Y463191D01*
X169898Y462418D01*
Y461582D01*
X170218Y460809D01*
X170809Y460218D01*
X171582Y459898D01*
X172418D01*
X173191Y460218D01*
X173782Y460809D01*
X174102Y461582D01*
Y462418D01*
X173782Y463191D01*
X173266Y463707D01*
X173223Y464000D01*
X173266Y464292D01*
X173782Y464809D01*
X174102Y465582D01*
Y466418D01*
X173782Y467191D01*
X173191Y467782D01*
X172418Y468102D01*
D02*
G37*
G36*
X113922Y457102D02*
X113086D01*
X112313Y456782D01*
X111722Y456191D01*
X111402Y455418D01*
Y454582D01*
X111722Y453809D01*
X112313Y453218D01*
X113086Y452898D01*
X113922D01*
X114695Y453218D01*
X115286Y453809D01*
X115606Y454582D01*
Y455418D01*
X115286Y456191D01*
X114695Y456782D01*
X113922Y457102D01*
D02*
G37*
G36*
X155467Y457561D02*
X154530D01*
X153624Y457318D01*
X152813Y456850D01*
X152150Y456187D01*
X151682Y455376D01*
X151439Y454470D01*
Y453533D01*
X151682Y452628D01*
X152150Y451817D01*
X152813Y451154D01*
X153624Y450685D01*
X154530Y450443D01*
X155467D01*
X156372Y450685D01*
X157184Y451154D01*
X157846Y451817D01*
X158315Y452628D01*
X158557Y453533D01*
Y454470D01*
X158315Y455376D01*
X157846Y456187D01*
X157184Y456850D01*
X156372Y457318D01*
X155467Y457561D01*
D02*
G37*
G36*
X215470Y457557D02*
X214533D01*
X213628Y457315D01*
X212817Y456846D01*
X212154Y456183D01*
X211685Y455372D01*
X211443Y454467D01*
Y453530D01*
X211685Y452624D01*
X212154Y451813D01*
X212817Y451150D01*
X213628Y450682D01*
X214533Y450439D01*
X215470D01*
X216376Y450682D01*
X217187Y451150D01*
X217850Y451813D01*
X218318Y452624D01*
X218561Y453530D01*
Y454467D01*
X218318Y455372D01*
X217850Y456183D01*
X217187Y456846D01*
X216376Y457315D01*
X215470Y457557D01*
D02*
G37*
G36*
X113922Y447102D02*
X113086D01*
X112313Y446782D01*
X111722Y446191D01*
X111402Y445418D01*
Y444582D01*
X111722Y443809D01*
X112313Y443218D01*
X113086Y442898D01*
X113922D01*
X114695Y443218D01*
X115286Y443809D01*
X115606Y444582D01*
Y445418D01*
X115286Y446191D01*
X114695Y446782D01*
X113922Y447102D01*
D02*
G37*
G36*
X155467Y447561D02*
X154530D01*
X153624Y447318D01*
X152813Y446850D01*
X152150Y446187D01*
X151682Y445376D01*
X151439Y444470D01*
Y443533D01*
X151682Y442628D01*
X152150Y441817D01*
X152813Y441154D01*
X153624Y440685D01*
X154530Y440443D01*
X155467D01*
X156372Y440685D01*
X157184Y441154D01*
X157846Y441817D01*
X158315Y442628D01*
X158557Y443533D01*
Y444470D01*
X158315Y445376D01*
X157846Y446187D01*
X157184Y446850D01*
X156372Y447318D01*
X155467Y447561D01*
D02*
G37*
G36*
X215470Y447557D02*
X214533D01*
X213628Y447315D01*
X212817Y446846D01*
X212154Y446183D01*
X211685Y445372D01*
X211443Y444467D01*
Y443530D01*
X211685Y442624D01*
X212154Y441813D01*
X212817Y441150D01*
X213628Y440682D01*
X214533Y440439D01*
X215470D01*
X216376Y440682D01*
X217187Y441150D01*
X217850Y441813D01*
X218318Y442624D01*
X218561Y443530D01*
Y444467D01*
X218318Y445372D01*
X217850Y446183D01*
X217187Y446846D01*
X216376Y447315D01*
X215470Y447557D01*
D02*
G37*
G36*
X310418Y443402D02*
X309582D01*
X308809Y443082D01*
X308218Y442490D01*
X307898Y441717D01*
Y440881D01*
X308218Y440108D01*
X308809Y439517D01*
X309582Y439197D01*
X310418D01*
X311191Y439517D01*
X311782Y440108D01*
X312102Y440881D01*
Y441717D01*
X311782Y442490D01*
X311191Y443082D01*
X310418Y443402D01*
D02*
G37*
G36*
X318418Y443102D02*
X317582D01*
X316809Y442782D01*
X316218Y442191D01*
X315898Y441418D01*
Y440582D01*
X316218Y439809D01*
X316809Y439218D01*
X317582Y438898D01*
X318418D01*
X319191Y439218D01*
X319782Y439809D01*
X320102Y440582D01*
Y441418D01*
X319782Y442191D01*
X319191Y442782D01*
X318418Y443102D01*
D02*
G37*
G36*
X302418D02*
X301582D01*
X300809Y442782D01*
X300218Y442191D01*
X299898Y441418D01*
Y440582D01*
X300218Y439809D01*
X300809Y439218D01*
X301582Y438898D01*
X302418D01*
X303191Y439218D01*
X303782Y439809D01*
X304102Y440582D01*
Y441418D01*
X303782Y442191D01*
X303191Y442782D01*
X302418Y443102D01*
D02*
G37*
G36*
X113418Y437102D02*
X112582D01*
X111809Y436782D01*
X111218Y436191D01*
X110898Y435418D01*
Y434582D01*
X111218Y433809D01*
X111809Y433218D01*
X112582Y432898D01*
X113418D01*
X114191Y433218D01*
X114782Y433809D01*
X115102Y434582D01*
Y435418D01*
X114782Y436191D01*
X114191Y436782D01*
X113418Y437102D01*
D02*
G37*
G36*
X155467Y437561D02*
X154530D01*
X153624Y437318D01*
X152813Y436850D01*
X152150Y436187D01*
X151682Y435376D01*
X151439Y434470D01*
Y433533D01*
X151682Y432628D01*
X152150Y431816D01*
X152813Y431154D01*
X153624Y430685D01*
X154530Y430443D01*
X155467D01*
X156372Y430685D01*
X157184Y431154D01*
X157846Y431816D01*
X158315Y432628D01*
X158557Y433533D01*
Y434470D01*
X158315Y435376D01*
X157846Y436187D01*
X157184Y436850D01*
X156372Y437318D01*
X155467Y437561D01*
D02*
G37*
G36*
X215470Y437557D02*
X214533D01*
X213628Y437315D01*
X212817Y436846D01*
X212154Y436184D01*
X211685Y435372D01*
X211443Y434467D01*
Y433530D01*
X211685Y432624D01*
X212154Y431813D01*
X212817Y431150D01*
X213628Y430682D01*
X214533Y430439D01*
X215470D01*
X216376Y430682D01*
X217187Y431150D01*
X217850Y431813D01*
X218318Y432624D01*
X218561Y433530D01*
Y434467D01*
X218318Y435372D01*
X217850Y436184D01*
X217187Y436846D01*
X216376Y437315D01*
X215470Y437557D01*
D02*
G37*
G36*
X112418Y427102D02*
X111582D01*
X110809Y426782D01*
X110218Y426191D01*
X109898Y425418D01*
Y424582D01*
X110218Y423809D01*
X110809Y423218D01*
X111582Y422898D01*
X112418D01*
X113191Y423218D01*
X113782Y423809D01*
X114102Y424582D01*
Y425418D01*
X113782Y426191D01*
X113191Y426782D01*
X112418Y427102D01*
D02*
G37*
G36*
X155467Y427561D02*
X154530D01*
X153624Y427318D01*
X152813Y426850D01*
X152150Y426187D01*
X151682Y425376D01*
X151439Y424470D01*
Y423533D01*
X151682Y422628D01*
X152150Y421816D01*
X152813Y421154D01*
X153624Y420685D01*
X154530Y420443D01*
X155467D01*
X156372Y420685D01*
X157184Y421154D01*
X157846Y421816D01*
X158315Y422628D01*
X158557Y423533D01*
Y424470D01*
X158315Y425376D01*
X157846Y426187D01*
X157184Y426850D01*
X156372Y427318D01*
X155467Y427561D01*
D02*
G37*
G36*
X215470Y427557D02*
X214533D01*
X213628Y427315D01*
X212817Y426846D01*
X212154Y426184D01*
X211685Y425372D01*
X211443Y424467D01*
Y423530D01*
X211685Y422624D01*
X212154Y421813D01*
X212817Y421150D01*
X213628Y420682D01*
X214533Y420439D01*
X215470D01*
X216376Y420682D01*
X217187Y421150D01*
X217850Y421813D01*
X218318Y422624D01*
X218561Y423530D01*
Y424467D01*
X218318Y425372D01*
X217850Y426184D01*
X217187Y426846D01*
X216376Y427315D01*
X215470Y427557D01*
D02*
G37*
G36*
X228418Y419602D02*
X227582D01*
X226809Y419282D01*
X226218Y418691D01*
X225898Y417918D01*
Y417082D01*
X226218Y416309D01*
X226809Y415718D01*
X227582Y415398D01*
X228418D01*
X229191Y415718D01*
X229782Y416309D01*
X230102Y417082D01*
Y417918D01*
X229782Y418691D01*
X229191Y419282D01*
X228418Y419602D01*
D02*
G37*
G36*
X278899Y419583D02*
X278062D01*
X277289Y419263D01*
X276698Y418671D01*
X276378Y417899D01*
Y417062D01*
X276698Y416289D01*
X277289Y415698D01*
X278062Y415378D01*
X278899D01*
X279671Y415698D01*
X280263Y416289D01*
X280583Y417062D01*
Y417899D01*
X280263Y418671D01*
X279671Y419263D01*
X278899Y419583D01*
D02*
G37*
G36*
X341418Y419102D02*
X340582D01*
X339809Y418782D01*
X339218Y418191D01*
X338898Y417418D01*
Y416582D01*
X339218Y415809D01*
X339809Y415218D01*
X340582Y414898D01*
X341418D01*
X342191Y415218D01*
X342782Y415809D01*
X343102Y416582D01*
Y417418D01*
X342782Y418191D01*
X342191Y418782D01*
X341418Y419102D01*
D02*
G37*
G36*
X155467Y417561D02*
X154530D01*
X153624Y417318D01*
X152813Y416850D01*
X152150Y416187D01*
X151682Y415376D01*
X151439Y414470D01*
Y413533D01*
X151682Y412628D01*
X152150Y411817D01*
X152813Y411154D01*
X153624Y410685D01*
X154530Y410443D01*
X155467D01*
X156372Y410685D01*
X157184Y411154D01*
X157846Y411817D01*
X158315Y412628D01*
X158557Y413533D01*
Y414470D01*
X158315Y415376D01*
X157846Y416187D01*
X157184Y416850D01*
X156372Y417318D01*
X155467Y417561D01*
D02*
G37*
G36*
X215470Y417557D02*
X214533D01*
X213628Y417315D01*
X212817Y416846D01*
X212154Y416184D01*
X211685Y415372D01*
X211443Y414467D01*
Y413530D01*
X211685Y412624D01*
X212154Y411813D01*
X212817Y411150D01*
X213628Y410682D01*
X214533Y410439D01*
X215470D01*
X216376Y410682D01*
X217187Y411150D01*
X217850Y411813D01*
X218318Y412624D01*
X218561Y413530D01*
Y414467D01*
X218318Y415372D01*
X217850Y416184D01*
X217187Y416846D01*
X216376Y417315D01*
X215470Y417557D01*
D02*
G37*
G36*
X120527Y417000D02*
X119473D01*
X118456Y416727D01*
X117544Y416201D01*
X116799Y415456D01*
X116273Y414544D01*
X116000Y413527D01*
Y412473D01*
X116273Y411456D01*
X116799Y410544D01*
X117544Y409799D01*
X118456Y409273D01*
X119473Y409000D01*
X120527D01*
X121544Y409273D01*
X122456Y409799D01*
X123201Y410544D01*
X123727Y411456D01*
X124000Y412473D01*
Y413527D01*
X123727Y414544D01*
X123201Y415456D01*
X122456Y416201D01*
X121544Y416727D01*
X120527Y417000D01*
D02*
G37*
G36*
X279119Y412102D02*
X278283D01*
X277510Y411782D01*
X276919Y411191D01*
X276598Y410418D01*
Y409582D01*
X276919Y408809D01*
X277510Y408218D01*
X278283Y407898D01*
X279119D01*
X279892Y408218D01*
X280483Y408809D01*
X280803Y409582D01*
Y410418D01*
X280483Y411191D01*
X279892Y411782D01*
X279119Y412102D01*
D02*
G37*
G36*
X155467Y407561D02*
X154530D01*
X153624Y407318D01*
X152813Y406850D01*
X152150Y406187D01*
X151682Y405376D01*
X151439Y404470D01*
Y403533D01*
X151682Y402628D01*
X152150Y401817D01*
X152813Y401154D01*
X153624Y400685D01*
X154530Y400443D01*
X155467D01*
X156372Y400685D01*
X157184Y401154D01*
X157846Y401817D01*
X158315Y402628D01*
X158557Y403533D01*
Y404470D01*
X158315Y405376D01*
X157846Y406187D01*
X157184Y406850D01*
X156372Y407318D01*
X155467Y407561D01*
D02*
G37*
G36*
X215470Y407557D02*
X214533D01*
X213628Y407315D01*
X212817Y406846D01*
X212154Y406183D01*
X211685Y405372D01*
X211443Y404467D01*
Y403530D01*
X211685Y402624D01*
X212154Y401813D01*
X212817Y401150D01*
X213628Y400682D01*
X214533Y400439D01*
X215470D01*
X216376Y400682D01*
X217187Y401150D01*
X217850Y401813D01*
X218318Y402624D01*
X218561Y403530D01*
Y404467D01*
X218318Y405372D01*
X217850Y406183D01*
X217187Y406846D01*
X216376Y407315D01*
X215470Y407557D01*
D02*
G37*
G36*
X278938Y404622D02*
X278101D01*
X277329Y404302D01*
X276737Y403711D01*
X276417Y402938D01*
Y402102D01*
X276737Y401329D01*
X277329Y400737D01*
X278101Y400417D01*
X278938D01*
X279711Y400737D01*
X280302Y401329D01*
X280622Y402102D01*
Y402938D01*
X280302Y403711D01*
X279711Y404302D01*
X278938Y404622D01*
D02*
G37*
G36*
X341418Y404102D02*
X340582D01*
X339809Y403782D01*
X339218Y403191D01*
X338898Y402418D01*
Y401582D01*
X339218Y400809D01*
X339809Y400218D01*
X340582Y399898D01*
X341418D01*
X342191Y400218D01*
X342782Y400809D01*
X343102Y401582D01*
Y402418D01*
X342782Y403191D01*
X342191Y403782D01*
X341418Y404102D01*
D02*
G37*
G36*
X120527Y407000D02*
X119473D01*
X118456Y406727D01*
X117544Y406201D01*
X116799Y405456D01*
X116273Y404544D01*
X116000Y403527D01*
Y402473D01*
X116273Y401456D01*
X116799Y400544D01*
X117544Y399799D01*
X118456Y399273D01*
X119473Y399000D01*
X120527D01*
X121544Y399273D01*
X122456Y399799D01*
X123201Y400544D01*
X123727Y401456D01*
X124000Y402473D01*
Y403527D01*
X123727Y404544D01*
X123201Y405456D01*
X122456Y406201D01*
X121544Y406727D01*
X120527Y407000D01*
D02*
G37*
G36*
X224977Y399543D02*
X224141D01*
X223368Y399223D01*
X222777Y398632D01*
X222457Y397859D01*
Y397023D01*
X222777Y396250D01*
X223368Y395659D01*
X224141Y395339D01*
X224977D01*
X225750Y395659D01*
X226341Y396250D01*
X226661Y397023D01*
Y397859D01*
X226341Y398632D01*
X225750Y399223D01*
X224977Y399543D01*
D02*
G37*
G36*
X176418Y396102D02*
X175582D01*
X174809Y395782D01*
X174218Y395191D01*
X173898Y394418D01*
Y393582D01*
X174218Y392809D01*
X174809Y392218D01*
X175582Y391898D01*
X176418D01*
X177191Y392218D01*
X177782Y392809D01*
X178102Y393582D01*
Y394418D01*
X177782Y395191D01*
X177191Y395782D01*
X176418Y396102D01*
D02*
G37*
G36*
X155467Y397561D02*
X154530D01*
X153624Y397318D01*
X152813Y396850D01*
X152150Y396187D01*
X151682Y395376D01*
X151439Y394470D01*
Y393533D01*
X151682Y392628D01*
X152150Y391816D01*
X152813Y391154D01*
X153624Y390685D01*
X154530Y390443D01*
X155467D01*
X156372Y390685D01*
X157184Y391154D01*
X157846Y391816D01*
X158315Y392628D01*
X158557Y393533D01*
Y394470D01*
X158315Y395376D01*
X157846Y396187D01*
X157184Y396850D01*
X156372Y397318D01*
X155467Y397561D01*
D02*
G37*
G36*
X215470Y397557D02*
X214533D01*
X213628Y397315D01*
X212817Y396846D01*
X212154Y396183D01*
X211685Y395372D01*
X211443Y394467D01*
Y393530D01*
X211685Y392624D01*
X212154Y391813D01*
X212817Y391150D01*
X213628Y390682D01*
X214533Y390439D01*
X215470D01*
X216376Y390682D01*
X217187Y391150D01*
X217850Y391813D01*
X218318Y392624D01*
X218561Y393530D01*
Y394467D01*
X218318Y395372D01*
X217850Y396183D01*
X217187Y396846D01*
X216376Y397315D01*
X215470Y397557D01*
D02*
G37*
G36*
X176418Y391102D02*
X175582D01*
X174809Y390782D01*
X174218Y390191D01*
X173898Y389418D01*
Y388582D01*
X174218Y387809D01*
X174809Y387218D01*
X175582Y386898D01*
X176418D01*
X177191Y387218D01*
X177782Y387809D01*
X178102Y388582D01*
Y389418D01*
X177782Y390191D01*
X177191Y390782D01*
X176418Y391102D01*
D02*
G37*
G36*
X155467Y387561D02*
X154530D01*
X153624Y387318D01*
X152813Y386850D01*
X152150Y386187D01*
X151682Y385376D01*
X151439Y384470D01*
Y383533D01*
X151682Y382628D01*
X152150Y381817D01*
X152813Y381154D01*
X153624Y380685D01*
X154530Y380443D01*
X155467D01*
X156372Y380685D01*
X157184Y381154D01*
X157846Y381817D01*
X158315Y382628D01*
X158557Y383533D01*
Y384470D01*
X158315Y385376D01*
X157846Y386187D01*
X157184Y386850D01*
X156372Y387318D01*
X155467Y387561D01*
D02*
G37*
G36*
X215470Y387557D02*
X214533D01*
X213628Y387315D01*
X212817Y386846D01*
X212154Y386184D01*
X211685Y385372D01*
X211443Y384467D01*
Y383530D01*
X211685Y382624D01*
X212154Y381813D01*
X212817Y381150D01*
X213628Y380682D01*
X214533Y380439D01*
X215470D01*
X216376Y380682D01*
X217187Y381150D01*
X217850Y381813D01*
X218318Y382624D01*
X218561Y383530D01*
Y384467D01*
X218318Y385372D01*
X217850Y386184D01*
X217187Y386846D01*
X216376Y387315D01*
X215470Y387557D01*
D02*
G37*
G36*
X224859Y384543D02*
X224023D01*
X223250Y384223D01*
X222659Y383632D01*
X222339Y382859D01*
Y382023D01*
X222659Y381250D01*
X223250Y380659D01*
X224023Y380339D01*
X224859D01*
X225632Y380659D01*
X226223Y381250D01*
X226543Y382023D01*
Y382859D01*
X226223Y383632D01*
X225632Y384223D01*
X224859Y384543D01*
D02*
G37*
G36*
X120527Y387000D02*
X119473D01*
X118456Y386727D01*
X117544Y386201D01*
X116799Y385456D01*
X116273Y384544D01*
X116000Y383527D01*
Y382473D01*
X116273Y381456D01*
X116799Y380544D01*
X117544Y379799D01*
X118456Y379273D01*
X119473Y379000D01*
X120527D01*
X121544Y379273D01*
X122456Y379799D01*
X123201Y380544D01*
X123727Y381456D01*
X124000Y382473D01*
Y383527D01*
X123727Y384544D01*
X123201Y385456D01*
X122456Y386201D01*
X121544Y386727D01*
X120527Y387000D01*
D02*
G37*
G36*
X302418Y381102D02*
X301582D01*
X300809Y380782D01*
X300218Y380191D01*
X299898Y379418D01*
Y378582D01*
X300218Y377809D01*
X300809Y377218D01*
X301582Y376898D01*
X302418D01*
X303191Y377218D01*
X303782Y377809D01*
X304102Y378582D01*
Y379418D01*
X303782Y380191D01*
X303191Y380782D01*
X302418Y381102D01*
D02*
G37*
G36*
X310418Y380803D02*
X309582D01*
X308809Y380483D01*
X308218Y379892D01*
X307898Y379119D01*
Y378283D01*
X308218Y377510D01*
X308809Y376919D01*
X309582Y376598D01*
X310418D01*
X311191Y376919D01*
X311782Y377510D01*
X312102Y378283D01*
Y379119D01*
X311782Y379892D01*
X311191Y380483D01*
X310418Y380803D01*
D02*
G37*
G36*
X155467Y377561D02*
X154530D01*
X153624Y377318D01*
X152813Y376850D01*
X152150Y376187D01*
X151682Y375376D01*
X151439Y374470D01*
Y373533D01*
X151682Y372628D01*
X152150Y371816D01*
X152813Y371154D01*
X153624Y370685D01*
X154530Y370443D01*
X155467D01*
X156372Y370685D01*
X157184Y371154D01*
X157846Y371816D01*
X158315Y372628D01*
X158557Y373533D01*
Y374470D01*
X158315Y375376D01*
X157846Y376187D01*
X157184Y376850D01*
X156372Y377318D01*
X155467Y377561D01*
D02*
G37*
G36*
X215470Y377557D02*
X214533D01*
X213628Y377315D01*
X212817Y376846D01*
X212154Y376184D01*
X211685Y375372D01*
X211443Y374467D01*
Y373530D01*
X211685Y372624D01*
X212154Y371813D01*
X212817Y371150D01*
X213628Y370682D01*
X214533Y370439D01*
X215470D01*
X216376Y370682D01*
X217187Y371150D01*
X217850Y371813D01*
X218318Y372624D01*
X218561Y373530D01*
Y374467D01*
X218318Y375372D01*
X217850Y376184D01*
X217187Y376846D01*
X216376Y377315D01*
X215470Y377557D01*
D02*
G37*
G36*
X120527Y377000D02*
X119473D01*
X118456Y376727D01*
X117544Y376201D01*
X116799Y375456D01*
X116273Y374544D01*
X116000Y373527D01*
Y372473D01*
X116273Y371456D01*
X116799Y370544D01*
X117544Y369799D01*
X118456Y369273D01*
X119473Y369000D01*
X120527D01*
X121544Y369273D01*
X122456Y369799D01*
X123201Y370544D01*
X123727Y371456D01*
X124000Y372473D01*
Y373527D01*
X123727Y374544D01*
X123201Y375456D01*
X122456Y376201D01*
X121544Y376727D01*
X120527Y377000D01*
D02*
G37*
G36*
X155467Y367561D02*
X154530D01*
X153624Y367318D01*
X152813Y366850D01*
X152150Y366187D01*
X151682Y365376D01*
X151439Y364470D01*
Y363533D01*
X151682Y362628D01*
X152150Y361817D01*
X152813Y361154D01*
X153624Y360685D01*
X154530Y360443D01*
X155467D01*
X156372Y360685D01*
X157184Y361154D01*
X157846Y361817D01*
X158315Y362628D01*
X158557Y363533D01*
Y364470D01*
X158315Y365376D01*
X157846Y366187D01*
X157184Y366850D01*
X156372Y367318D01*
X155467Y367561D01*
D02*
G37*
G36*
X215470Y367557D02*
X214533D01*
X213628Y367315D01*
X212817Y366846D01*
X212154Y366183D01*
X211685Y365372D01*
X211443Y364467D01*
Y363530D01*
X211685Y362624D01*
X212154Y361813D01*
X212817Y361150D01*
X213628Y360682D01*
X214533Y360439D01*
X215470D01*
X216376Y360682D01*
X217187Y361150D01*
X217850Y361813D01*
X218318Y362624D01*
X218561Y363530D01*
Y364467D01*
X218318Y365372D01*
X217850Y366183D01*
X217187Y366846D01*
X216376Y367315D01*
X215470Y367557D01*
D02*
G37*
G36*
X155467Y357561D02*
X154530D01*
X153624Y357318D01*
X152813Y356850D01*
X152150Y356187D01*
X151682Y355376D01*
X151439Y354470D01*
Y353533D01*
X151682Y352628D01*
X152150Y351817D01*
X152813Y351154D01*
X153624Y350685D01*
X154530Y350443D01*
X155467D01*
X156372Y350685D01*
X157184Y351154D01*
X157846Y351817D01*
X158315Y352628D01*
X158557Y353533D01*
Y354470D01*
X158315Y355376D01*
X157846Y356187D01*
X157184Y356850D01*
X156372Y357318D01*
X155467Y357561D01*
D02*
G37*
G36*
X215470Y357557D02*
X214533D01*
X213628Y357315D01*
X212817Y356846D01*
X212154Y356184D01*
X211685Y355372D01*
X211443Y354467D01*
Y353530D01*
X211685Y352624D01*
X212154Y351813D01*
X212817Y351150D01*
X213628Y350682D01*
X214533Y350439D01*
X215470D01*
X216376Y350682D01*
X217187Y351150D01*
X217850Y351813D01*
X218318Y352624D01*
X218561Y353530D01*
Y354467D01*
X218318Y355372D01*
X217850Y356184D01*
X217187Y356846D01*
X216376Y357315D01*
X215470Y357557D01*
D02*
G37*
G36*
X120527Y355000D02*
X119473D01*
X118456Y354727D01*
X117544Y354201D01*
X116799Y353456D01*
X116273Y352544D01*
X116000Y351527D01*
Y350473D01*
X116273Y349456D01*
X116799Y348544D01*
X117544Y347799D01*
X118456Y347273D01*
X119473Y347000D01*
X120527D01*
X121544Y347273D01*
X122456Y347799D01*
X123201Y348544D01*
X123727Y349456D01*
X124000Y350473D01*
Y351527D01*
X123727Y352544D01*
X123201Y353456D01*
X122456Y354201D01*
X121544Y354727D01*
X120527Y355000D01*
D02*
G37*
G36*
X155467Y347561D02*
X154530D01*
X153624Y347318D01*
X152813Y346850D01*
X152150Y346187D01*
X151682Y345376D01*
X151439Y344470D01*
Y343533D01*
X151682Y342628D01*
X152150Y341816D01*
X152813Y341154D01*
X153624Y340685D01*
X154530Y340443D01*
X155467D01*
X156372Y340685D01*
X157184Y341154D01*
X157846Y341816D01*
X158315Y342628D01*
X158557Y343533D01*
Y344470D01*
X158315Y345376D01*
X157846Y346187D01*
X157184Y346850D01*
X156372Y347318D01*
X155467Y347561D01*
D02*
G37*
G36*
X120527Y345000D02*
X119473D01*
X118456Y344727D01*
X117544Y344201D01*
X116799Y343456D01*
X116273Y342544D01*
X116000Y341527D01*
Y340473D01*
X116273Y339456D01*
X116799Y338544D01*
X117544Y337799D01*
X118456Y337273D01*
X119473Y337000D01*
X120527D01*
X121544Y337273D01*
X122456Y337799D01*
X123201Y338544D01*
X123727Y339456D01*
X124000Y340473D01*
Y341527D01*
X123727Y342544D01*
X123201Y343456D01*
X122456Y344201D01*
X121544Y344727D01*
X120527Y345000D01*
D02*
G37*
G36*
X176418Y336102D02*
X175582D01*
X174809Y335782D01*
X174218Y335191D01*
X173898Y334418D01*
Y333582D01*
X174218Y332809D01*
X174809Y332218D01*
X175582Y331898D01*
X176418D01*
X177191Y332218D01*
X177782Y332809D01*
X178102Y333582D01*
Y334418D01*
X177782Y335191D01*
X177191Y335782D01*
X176418Y336102D01*
D02*
G37*
G36*
X253418Y335102D02*
X252582D01*
X251809Y334782D01*
X251218Y334191D01*
X250898Y333418D01*
Y332582D01*
X251218Y331809D01*
X251809Y331218D01*
X252582Y330898D01*
X253418D01*
X254191Y331218D01*
X254782Y331809D01*
X255102Y332582D01*
Y333418D01*
X254782Y334191D01*
X254191Y334782D01*
X253418Y335102D01*
D02*
G37*
G36*
X233418D02*
X232582D01*
X231809Y334782D01*
X231218Y334191D01*
X230898Y333418D01*
Y332582D01*
X231218Y331809D01*
X231809Y331218D01*
X232582Y330898D01*
X233418D01*
X234191Y331218D01*
X234782Y331809D01*
X235102Y332582D01*
Y333418D01*
X234782Y334191D01*
X234191Y334782D01*
X233418Y335102D01*
D02*
G37*
G36*
X155467Y337561D02*
X154530D01*
X153624Y337318D01*
X152813Y336850D01*
X152150Y336187D01*
X151682Y335376D01*
X151439Y334470D01*
Y333533D01*
X151682Y332628D01*
X152150Y331817D01*
X152813Y331154D01*
X153624Y330685D01*
X154530Y330443D01*
X155467D01*
X156372Y330685D01*
X157184Y331154D01*
X157846Y331817D01*
X158315Y332628D01*
X158557Y333533D01*
Y334470D01*
X158315Y335376D01*
X157846Y336187D01*
X157184Y336850D01*
X156372Y337318D01*
X155467Y337561D01*
D02*
G37*
G36*
X215470Y337557D02*
X214533D01*
X213628Y337315D01*
X212817Y336846D01*
X212154Y336184D01*
X211685Y335372D01*
X211443Y334467D01*
Y333530D01*
X211685Y332624D01*
X212154Y331813D01*
X212817Y331150D01*
X213628Y330682D01*
X214533Y330439D01*
X215470D01*
X216376Y330682D01*
X217187Y331150D01*
X217850Y331813D01*
X218318Y332624D01*
X218561Y333530D01*
Y334467D01*
X218318Y335372D01*
X217850Y336184D01*
X217187Y336846D01*
X216376Y337315D01*
X215470Y337557D01*
D02*
G37*
G36*
X346418Y334102D02*
X345582D01*
X344809Y333782D01*
X344218Y333191D01*
X343898Y332418D01*
Y331582D01*
X344218Y330809D01*
X344809Y330218D01*
X345582Y329898D01*
X346418D01*
X347191Y330218D01*
X347782Y330809D01*
X348102Y331582D01*
Y332418D01*
X347782Y333191D01*
X347191Y333782D01*
X346418Y334102D01*
D02*
G37*
G36*
X290418Y333102D02*
X289582D01*
X288809Y332782D01*
X288218Y332191D01*
X287898Y331418D01*
Y330582D01*
X288218Y329809D01*
X288809Y329218D01*
X289582Y328898D01*
X290418D01*
X291191Y329218D01*
X291782Y329809D01*
X292102Y330582D01*
Y331418D01*
X291782Y332191D01*
X291191Y332782D01*
X290418Y333102D01*
D02*
G37*
G36*
X176418Y326102D02*
X175582D01*
X174809Y325782D01*
X174218Y325191D01*
X173898Y324418D01*
Y323582D01*
X174218Y322809D01*
X174809Y322218D01*
X175582Y321898D01*
X176418D01*
X177191Y322218D01*
X177782Y322809D01*
X178102Y323582D01*
Y324418D01*
X177782Y325191D01*
X177191Y325782D01*
X176418Y326102D01*
D02*
G37*
G36*
X302918Y325102D02*
X302082D01*
X301309Y324782D01*
X300718Y324191D01*
X300398Y323418D01*
Y322582D01*
X300718Y321809D01*
X301309Y321218D01*
X302082Y320898D01*
X302918D01*
X303691Y321218D01*
X304282Y321809D01*
X304602Y322582D01*
Y323418D01*
X304282Y324191D01*
X303691Y324782D01*
X302918Y325102D01*
D02*
G37*
G36*
X329418Y321102D02*
X328582D01*
X327809Y320782D01*
X327500Y320473D01*
X327191Y320782D01*
X326418Y321102D01*
X325582D01*
X324809Y320782D01*
X324218Y320191D01*
X323898Y319418D01*
Y318582D01*
X324218Y317809D01*
X324809Y317218D01*
X325582Y316898D01*
X326418D01*
X327191Y317218D01*
X327500Y317527D01*
X327809Y317218D01*
X328582Y316898D01*
X329418D01*
X330191Y317218D01*
X330782Y317809D01*
X331102Y318582D01*
Y319418D01*
X330782Y320191D01*
X330191Y320782D01*
X329418Y321102D01*
D02*
G37*
G36*
X155467Y327561D02*
X154530D01*
X153624Y327318D01*
X152813Y326850D01*
X152150Y326187D01*
X151682Y325376D01*
X151439Y324470D01*
Y323533D01*
X151682Y322628D01*
X152150Y321816D01*
X152813Y321154D01*
X153624Y320685D01*
X154530Y320443D01*
X155467D01*
X156372Y320685D01*
X157184Y321154D01*
X157846Y321816D01*
X158315Y322628D01*
X158557Y323533D01*
Y324470D01*
X158315Y325376D01*
X157846Y326187D01*
X157184Y326850D01*
X156372Y327318D01*
X155467Y327561D01*
D02*
G37*
G36*
X215470Y327557D02*
X214533D01*
X213628Y327315D01*
X212817Y326846D01*
X212154Y326184D01*
X211685Y325372D01*
X211443Y324467D01*
Y323530D01*
X211685Y322624D01*
X212154Y321813D01*
X212817Y321150D01*
X213628Y320682D01*
X214533Y320439D01*
X215470D01*
X216376Y320682D01*
X217187Y321150D01*
X217850Y321813D01*
X218318Y322624D01*
X218561Y323530D01*
Y324467D01*
X218318Y325372D01*
X217850Y326184D01*
X217187Y326846D01*
X216376Y327315D01*
X215470Y327557D01*
D02*
G37*
G36*
X243816Y318705D02*
X242979D01*
X242207Y318385D01*
X241615Y317793D01*
X241295Y317021D01*
Y316184D01*
X241615Y315411D01*
X242207Y314820D01*
X242979Y314500D01*
X243816D01*
X244588Y314820D01*
X245180Y315411D01*
X245500Y316184D01*
Y317021D01*
X245180Y317793D01*
X244588Y318385D01*
X243816Y318705D01*
D02*
G37*
G36*
X131418Y318102D02*
X130582D01*
X129809Y317782D01*
X129218Y317191D01*
X128898Y316418D01*
Y315582D01*
X129218Y314809D01*
X129809Y314218D01*
X130582Y313898D01*
X131418D01*
X132191Y314218D01*
X132782Y314809D01*
X133102Y315582D01*
Y316418D01*
X132782Y317191D01*
X132191Y317782D01*
X131418Y318102D01*
D02*
G37*
G36*
X239418Y316102D02*
X238582D01*
X237809Y315782D01*
X237218Y315191D01*
X236898Y314418D01*
Y313582D01*
X237218Y312809D01*
X237809Y312218D01*
X238582Y311898D01*
X239418D01*
X240191Y312218D01*
X240782Y312809D01*
X241102Y313582D01*
Y314418D01*
X240782Y315191D01*
X240191Y315782D01*
X239418Y316102D01*
D02*
G37*
G36*
X155467Y317561D02*
X154530D01*
X153624Y317318D01*
X152813Y316850D01*
X152150Y316187D01*
X151682Y315376D01*
X151439Y314470D01*
Y313533D01*
X151682Y312628D01*
X152150Y311817D01*
X152813Y311154D01*
X153624Y310685D01*
X154530Y310443D01*
X155467D01*
X156372Y310685D01*
X157184Y311154D01*
X157846Y311817D01*
X158315Y312628D01*
X158557Y313533D01*
Y314470D01*
X158315Y315376D01*
X157846Y316187D01*
X157184Y316850D01*
X156372Y317318D01*
X155467Y317561D01*
D02*
G37*
G36*
X215470Y317557D02*
X214533D01*
X213628Y317315D01*
X212817Y316846D01*
X212154Y316183D01*
X211685Y315372D01*
X211443Y314467D01*
Y313530D01*
X211685Y312624D01*
X212154Y311813D01*
X212817Y311150D01*
X213628Y310682D01*
X214533Y310439D01*
X215470D01*
X216376Y310682D01*
X217187Y311150D01*
X217850Y311813D01*
X218318Y312624D01*
X218561Y313530D01*
Y314467D01*
X218318Y315372D01*
X217850Y316183D01*
X217187Y316846D01*
X216376Y317315D01*
X215470Y317557D01*
D02*
G37*
G36*
X299418Y311102D02*
X298582D01*
X297809Y310782D01*
X297292Y310266D01*
X297000Y310223D01*
X296708Y310266D01*
X296191Y310782D01*
X295418Y311102D01*
X294582D01*
X293809Y310782D01*
X293218Y310191D01*
X292898Y309418D01*
Y308582D01*
X293218Y307809D01*
X293809Y307218D01*
X294582Y306898D01*
X295418D01*
X296191Y307218D01*
X296708Y307734D01*
X297000Y307777D01*
X297292Y307734D01*
X297809Y307218D01*
X298582Y306898D01*
X299418D01*
X300191Y307218D01*
X300782Y307809D01*
X301102Y308582D01*
Y309418D01*
X300782Y310191D01*
X300191Y310782D01*
X299418Y311102D01*
D02*
G37*
G36*
X334032Y311134D02*
X333196D01*
X332423Y310814D01*
X331832Y310222D01*
X331512Y309450D01*
Y308613D01*
X331832Y307841D01*
X332423Y307249D01*
X333196Y306929D01*
X334032D01*
X334805Y307249D01*
X335397Y307841D01*
X335717Y308613D01*
Y309450D01*
X335397Y310222D01*
X334805Y310814D01*
X334032Y311134D01*
D02*
G37*
G36*
X194418Y309102D02*
X193582D01*
X192809Y308782D01*
X192218Y308191D01*
X191898Y307418D01*
Y306582D01*
X192218Y305809D01*
X192809Y305218D01*
X193582Y304898D01*
X194418D01*
X195191Y305218D01*
X195782Y305809D01*
X196102Y306582D01*
Y307418D01*
X195782Y308191D01*
X195191Y308782D01*
X194418Y309102D01*
D02*
G37*
G36*
X155467Y307561D02*
X154530D01*
X153624Y307318D01*
X152813Y306850D01*
X152150Y306187D01*
X151682Y305376D01*
X151439Y304470D01*
Y303533D01*
X151682Y302628D01*
X152150Y301817D01*
X152813Y301154D01*
X153624Y300685D01*
X154530Y300443D01*
X155467D01*
X156372Y300685D01*
X157184Y301154D01*
X157846Y301817D01*
X158315Y302628D01*
X158557Y303533D01*
Y304470D01*
X158315Y305376D01*
X157846Y306187D01*
X157184Y306850D01*
X156372Y307318D01*
X155467Y307561D01*
D02*
G37*
G36*
X215470Y307557D02*
X214533D01*
X213628Y307315D01*
X212817Y306846D01*
X212154Y306184D01*
X211685Y305372D01*
X211443Y304467D01*
Y303530D01*
X211685Y302624D01*
X212154Y301813D01*
X212817Y301150D01*
X213628Y300682D01*
X214533Y300439D01*
X215470D01*
X216376Y300682D01*
X217187Y301150D01*
X217850Y301813D01*
X218318Y302624D01*
X218561Y303530D01*
Y304467D01*
X218318Y305372D01*
X217850Y306184D01*
X217187Y306846D01*
X216376Y307315D01*
X215470Y307557D01*
D02*
G37*
G36*
X197418Y302102D02*
X196582D01*
X195809Y301782D01*
X195218Y301191D01*
X194898Y300418D01*
Y299582D01*
X195218Y298809D01*
X195809Y298218D01*
X196582Y297898D01*
X197418D01*
X198191Y298218D01*
X198782Y298809D01*
X199102Y299582D01*
Y300418D01*
X198782Y301191D01*
X198191Y301782D01*
X197418Y302102D01*
D02*
G37*
G36*
X334032Y301134D02*
X333196D01*
X332423Y300814D01*
X331832Y300222D01*
X331512Y299450D01*
Y298613D01*
X331832Y297841D01*
X332423Y297249D01*
X333196Y296929D01*
X334032D01*
X334805Y297249D01*
X335397Y297841D01*
X335717Y298613D01*
Y299450D01*
X335397Y300222D01*
X334805Y300814D01*
X334032Y301134D01*
D02*
G37*
G36*
X197418Y295102D02*
X196582D01*
X195809Y294782D01*
X195218Y294191D01*
X194898Y293418D01*
Y292582D01*
X195218Y291809D01*
X195809Y291218D01*
X196582Y290898D01*
X197418D01*
X198191Y291218D01*
X198782Y291809D01*
X199102Y292582D01*
Y293418D01*
X198782Y294191D01*
X198191Y294782D01*
X197418Y295102D01*
D02*
G37*
G36*
X155467Y297561D02*
X154530D01*
X153624Y297318D01*
X152813Y296850D01*
X152150Y296187D01*
X151682Y295376D01*
X151439Y294470D01*
Y293533D01*
X151682Y292628D01*
X152150Y291816D01*
X152813Y291154D01*
X153624Y290685D01*
X154530Y290443D01*
X155467D01*
X156372Y290685D01*
X157184Y291154D01*
X157846Y291816D01*
X158315Y292628D01*
X158557Y293533D01*
Y294470D01*
X158315Y295376D01*
X157846Y296187D01*
X157184Y296850D01*
X156372Y297318D01*
X155467Y297561D01*
D02*
G37*
G36*
X215470Y297557D02*
X214533D01*
X213628Y297315D01*
X212817Y296846D01*
X212154Y296183D01*
X211685Y295372D01*
X211443Y294467D01*
Y293530D01*
X211685Y292624D01*
X212154Y291813D01*
X212817Y291150D01*
X213628Y290682D01*
X214533Y290439D01*
X215470D01*
X216376Y290682D01*
X217187Y291150D01*
X217850Y291813D01*
X218318Y292624D01*
X218561Y293530D01*
Y294467D01*
X218318Y295372D01*
X217850Y296183D01*
X217187Y296846D01*
X216376Y297315D01*
X215470Y297557D01*
D02*
G37*
G36*
X334032Y291134D02*
X333196D01*
X332423Y290814D01*
X331832Y290222D01*
X331512Y289450D01*
Y288613D01*
X331832Y287841D01*
X332423Y287249D01*
X333196Y286929D01*
X334032D01*
X334805Y287249D01*
X335397Y287841D01*
X335717Y288613D01*
Y289450D01*
X335397Y290222D01*
X334805Y290814D01*
X334032Y291134D01*
D02*
G37*
G36*
X265418Y286102D02*
X264582D01*
X263809Y285782D01*
X263218Y285191D01*
X262898Y284418D01*
Y283582D01*
X263218Y282809D01*
X263809Y282218D01*
X264582Y281898D01*
X265418D01*
X266191Y282218D01*
X266782Y282809D01*
X267102Y283582D01*
Y284418D01*
X266782Y285191D01*
X266191Y285782D01*
X265418Y286102D01*
D02*
G37*
G36*
X155467Y287561D02*
X154530D01*
X153624Y287318D01*
X152813Y286850D01*
X152150Y286187D01*
X151682Y285376D01*
X151439Y284470D01*
Y283533D01*
X151682Y282628D01*
X152150Y281817D01*
X152813Y281154D01*
X153624Y280685D01*
X154530Y280443D01*
X155467D01*
X156372Y280685D01*
X157184Y281154D01*
X157846Y281817D01*
X158315Y282628D01*
X158557Y283533D01*
Y284470D01*
X158315Y285376D01*
X157846Y286187D01*
X157184Y286850D01*
X156372Y287318D01*
X155467Y287561D01*
D02*
G37*
G36*
X215470Y287557D02*
X214533D01*
X213628Y287315D01*
X212817Y286846D01*
X212154Y286184D01*
X211685Y285372D01*
X211443Y284467D01*
Y283530D01*
X211685Y282624D01*
X212154Y281813D01*
X212817Y281150D01*
X213628Y280682D01*
X214533Y280439D01*
X215470D01*
X216376Y280682D01*
X217187Y281150D01*
X217850Y281813D01*
X218318Y282624D01*
X218561Y283530D01*
Y284467D01*
X218318Y285372D01*
X217850Y286184D01*
X217187Y286846D01*
X216376Y287315D01*
X215470Y287557D01*
D02*
G37*
G36*
X334032Y281134D02*
X333196D01*
X332423Y280814D01*
X331832Y280222D01*
X331512Y279450D01*
Y278613D01*
X331832Y277841D01*
X332423Y277249D01*
X333196Y276929D01*
X334032D01*
X334805Y277249D01*
X335397Y277841D01*
X335717Y278613D01*
Y279450D01*
X335397Y280222D01*
X334805Y280814D01*
X334032Y281134D01*
D02*
G37*
G36*
X177418Y276102D02*
X176582D01*
X175809Y275782D01*
X175218Y275191D01*
X174898Y274418D01*
Y273582D01*
X175218Y272809D01*
X175809Y272218D01*
X176582Y271898D01*
X177418D01*
X178191Y272218D01*
X178782Y272809D01*
X179102Y273582D01*
Y274418D01*
X178782Y275191D01*
X178191Y275782D01*
X177418Y276102D01*
D02*
G37*
G36*
X310527Y279000D02*
X309473D01*
X308456Y278727D01*
X307544Y278201D01*
X306799Y277456D01*
X306273Y276544D01*
X306000Y275527D01*
Y274473D01*
X306273Y273456D01*
X306799Y272544D01*
X307544Y271799D01*
X308456Y271273D01*
X309473Y271000D01*
X310527D01*
X311544Y271273D01*
X312456Y271799D01*
X313201Y272544D01*
X313727Y273456D01*
X314000Y274473D01*
Y275527D01*
X313727Y276544D01*
X313201Y277456D01*
X312456Y278201D01*
X311544Y278727D01*
X310527Y279000D01*
D02*
G37*
G36*
X244000D02*
X236000D01*
Y271000D01*
X244000D01*
Y279000D01*
D02*
G37*
G36*
X155467Y277561D02*
X154530D01*
X153624Y277318D01*
X152813Y276850D01*
X152150Y276187D01*
X151682Y275376D01*
X151439Y274470D01*
Y273533D01*
X151682Y272628D01*
X152150Y271816D01*
X152813Y271154D01*
X153624Y270685D01*
X154530Y270443D01*
X155467D01*
X156372Y270685D01*
X157184Y271154D01*
X157846Y271816D01*
X158315Y272628D01*
X158557Y273533D01*
Y274470D01*
X158315Y275376D01*
X157846Y276187D01*
X157184Y276850D01*
X156372Y277318D01*
X155467Y277561D01*
D02*
G37*
G36*
X215470Y277557D02*
X214533D01*
X213628Y277315D01*
X212817Y276846D01*
X212154Y276184D01*
X211685Y275372D01*
X211443Y274467D01*
Y273530D01*
X211685Y272624D01*
X212154Y271813D01*
X212817Y271150D01*
X213628Y270682D01*
X214533Y270439D01*
X215470D01*
X216376Y270682D01*
X217187Y271150D01*
X217850Y271813D01*
X218318Y272624D01*
X218561Y273530D01*
Y274467D01*
X218318Y275372D01*
X217850Y276184D01*
X217187Y276846D01*
X216376Y277315D01*
X215470Y277557D01*
D02*
G37*
G36*
X177418Y266102D02*
X176582D01*
X175809Y265782D01*
X175218Y265191D01*
X174898Y264418D01*
Y263582D01*
X175218Y262809D01*
X175809Y262218D01*
X176582Y261898D01*
X177418D01*
X178191Y262218D01*
X178782Y262809D01*
X179102Y263582D01*
Y264418D01*
X178782Y265191D01*
X178191Y265782D01*
X177418Y266102D01*
D02*
G37*
G36*
X310527Y269000D02*
X309473D01*
X308456Y268727D01*
X307544Y268201D01*
X306799Y267456D01*
X306273Y266544D01*
X306000Y265527D01*
Y264473D01*
X306273Y263456D01*
X306799Y262544D01*
X307544Y261799D01*
X308456Y261273D01*
X309473Y261000D01*
X310527D01*
X311544Y261273D01*
X312456Y261799D01*
X313201Y262544D01*
X313727Y263456D01*
X314000Y264473D01*
Y265527D01*
X313727Y266544D01*
X313201Y267456D01*
X312456Y268201D01*
X311544Y268727D01*
X310527Y269000D01*
D02*
G37*
G36*
X240527D02*
X239473D01*
X238456Y268727D01*
X237544Y268201D01*
X236799Y267456D01*
X236273Y266544D01*
X236000Y265527D01*
Y264473D01*
X236273Y263456D01*
X236799Y262544D01*
X237544Y261799D01*
X238456Y261273D01*
X239473Y261000D01*
X240527D01*
X241544Y261273D01*
X242456Y261799D01*
X243201Y262544D01*
X243727Y263456D01*
X244000Y264473D01*
Y265527D01*
X243727Y266544D01*
X243201Y267456D01*
X242456Y268201D01*
X241544Y268727D01*
X240527Y269000D01*
D02*
G37*
G36*
X155467Y267561D02*
X154530D01*
X153624Y267318D01*
X152813Y266850D01*
X152150Y266187D01*
X151682Y265376D01*
X151439Y264470D01*
Y263533D01*
X151682Y262628D01*
X152150Y261817D01*
X152813Y261154D01*
X153624Y260685D01*
X154530Y260443D01*
X155467D01*
X156372Y260685D01*
X157184Y261154D01*
X157846Y261817D01*
X158315Y262628D01*
X158557Y263533D01*
Y264470D01*
X158315Y265376D01*
X157846Y266187D01*
X157184Y266850D01*
X156372Y267318D01*
X155467Y267561D01*
D02*
G37*
G36*
X215470Y267557D02*
X214533D01*
X213628Y267315D01*
X212817Y266846D01*
X212154Y266183D01*
X211685Y265372D01*
X211443Y264467D01*
Y263530D01*
X211685Y262624D01*
X212154Y261813D01*
X212817Y261150D01*
X213628Y260682D01*
X214533Y260439D01*
X215470D01*
X216376Y260682D01*
X217187Y261150D01*
X217850Y261813D01*
X218318Y262624D01*
X218561Y263530D01*
Y264467D01*
X218318Y265372D01*
X217850Y266183D01*
X217187Y266846D01*
X216376Y267315D01*
X215470Y267557D01*
D02*
G37*
G36*
X124418Y264102D02*
X123582D01*
X122809Y263782D01*
X122218Y263191D01*
X121898Y262418D01*
Y261582D01*
X122218Y260809D01*
X122809Y260218D01*
X123582Y259898D01*
X124418D01*
X125191Y260218D01*
X125782Y260809D01*
X126102Y261582D01*
Y262418D01*
X125782Y263191D01*
X125191Y263782D01*
X124418Y264102D01*
D02*
G37*
G36*
X362247Y304028D02*
X361517D01*
X360812Y303839D01*
X360180Y303474D01*
X359664Y302958D01*
X359299Y302326D01*
X359110Y301621D01*
Y300891D01*
X359299Y300186D01*
X359664Y299554D01*
X360122Y299096D01*
X360154Y298795D01*
X360122Y298494D01*
X359664Y298037D01*
X359299Y297405D01*
X359110Y296700D01*
Y295970D01*
X359299Y295265D01*
X359664Y294633D01*
X360122Y294175D01*
X360154Y293874D01*
X360122Y293573D01*
X359664Y293115D01*
X359299Y292483D01*
X359110Y291778D01*
Y291049D01*
X359299Y290344D01*
X359664Y289711D01*
X360122Y289254D01*
X360154Y288953D01*
X360122Y288652D01*
X359664Y288194D01*
X359299Y287562D01*
X359110Y286857D01*
Y286127D01*
X359299Y285422D01*
X359664Y284790D01*
X360122Y284332D01*
X360154Y284032D01*
X360122Y283731D01*
X359664Y283273D01*
X359299Y282641D01*
X359110Y281936D01*
Y281206D01*
X359299Y280501D01*
X359664Y279869D01*
X360122Y279411D01*
X360154Y279110D01*
X360122Y278809D01*
X359664Y278351D01*
X359299Y277719D01*
X359110Y277014D01*
Y276285D01*
X359299Y275580D01*
X359664Y274948D01*
X360122Y274490D01*
X360154Y274189D01*
X360122Y273888D01*
X359664Y273430D01*
X359299Y272798D01*
X359110Y272093D01*
Y271363D01*
X359299Y270658D01*
X359664Y270026D01*
X360122Y269569D01*
X360154Y269268D01*
X360122Y268967D01*
X359664Y268509D01*
X359299Y267877D01*
X359110Y267172D01*
Y266442D01*
X359299Y265737D01*
X359634Y265158D01*
X359513Y264740D01*
X359478Y264657D01*
X359110D01*
Y259114D01*
X364653D01*
Y264657D01*
X364285D01*
X364251Y264740D01*
X364130Y265158D01*
X364465Y265737D01*
X364653Y266442D01*
Y267172D01*
X364465Y267877D01*
X364100Y268509D01*
X363642Y268967D01*
X363610Y269268D01*
X363642Y269569D01*
X364100Y270026D01*
X364465Y270658D01*
X364653Y271363D01*
Y272093D01*
X364465Y272798D01*
X364100Y273430D01*
X363642Y273888D01*
X363610Y274189D01*
X363642Y274490D01*
X364100Y274948D01*
X364465Y275580D01*
X364653Y276285D01*
Y277014D01*
X364465Y277719D01*
X364100Y278351D01*
X363642Y278809D01*
X363610Y279110D01*
X363642Y279411D01*
X364100Y279869D01*
X364465Y280501D01*
X364653Y281206D01*
Y281936D01*
X364465Y282641D01*
X364100Y283273D01*
X363642Y283731D01*
X363610Y284032D01*
X363642Y284332D01*
X364100Y284790D01*
X364465Y285422D01*
X364653Y286127D01*
Y286857D01*
X364465Y287562D01*
X364100Y288194D01*
X363642Y288652D01*
X363610Y288953D01*
X363642Y289254D01*
X364100Y289711D01*
X364465Y290344D01*
X364653Y291049D01*
Y291778D01*
X364465Y292483D01*
X364100Y293115D01*
X363642Y293573D01*
X363610Y293874D01*
X363642Y294175D01*
X364100Y294633D01*
X364465Y295265D01*
X364653Y295970D01*
Y296700D01*
X364465Y297405D01*
X364100Y298037D01*
X363642Y298494D01*
X363610Y298795D01*
X363642Y299096D01*
X364100Y299554D01*
X364465Y300186D01*
X364653Y300891D01*
Y301621D01*
X364465Y302326D01*
X364100Y302958D01*
X363584Y303474D01*
X362952Y303839D01*
X362247Y304028D01*
D02*
G37*
G36*
X386820Y304224D02*
X386038D01*
X385283Y304022D01*
X384606Y303631D01*
X384054Y303079D01*
X383663Y302402D01*
X383461Y301647D01*
Y300865D01*
X383663Y300110D01*
X384054Y299433D01*
X384351Y299136D01*
X384555Y298795D01*
X384351Y298455D01*
X384054Y298157D01*
X383663Y297481D01*
X383461Y296726D01*
Y295944D01*
X383663Y295189D01*
X384054Y294512D01*
X384351Y294215D01*
X384555Y293874D01*
X384351Y293533D01*
X384054Y293236D01*
X383663Y292559D01*
X383461Y291804D01*
Y291023D01*
X383663Y290268D01*
X384054Y289591D01*
X384351Y289293D01*
X384555Y288953D01*
X384351Y288612D01*
X384054Y288315D01*
X383663Y287638D01*
X383461Y286883D01*
Y286101D01*
X383663Y285346D01*
X384054Y284669D01*
X384351Y284372D01*
X384555Y284032D01*
X384351Y283691D01*
X384054Y283394D01*
X383663Y282717D01*
X383461Y281962D01*
Y281180D01*
X383663Y280425D01*
X384054Y279748D01*
X384351Y279451D01*
X384555Y279110D01*
X384351Y278770D01*
X384054Y278472D01*
X383663Y277795D01*
X383461Y277040D01*
Y276259D01*
X383663Y275504D01*
X384054Y274827D01*
X384351Y274530D01*
X384555Y274189D01*
X384351Y273848D01*
X384054Y273551D01*
X383663Y272874D01*
X383461Y272119D01*
Y271338D01*
X383663Y270583D01*
X384054Y269906D01*
X384351Y269608D01*
X384555Y269268D01*
X384351Y268927D01*
X384054Y268630D01*
X383663Y267953D01*
X383461Y267198D01*
Y266416D01*
X383663Y265661D01*
X383840Y265354D01*
X383552Y264854D01*
X383461D01*
Y258917D01*
X389398D01*
Y264854D01*
X389307D01*
X389018Y265354D01*
X389195Y265661D01*
X389398Y266416D01*
Y267198D01*
X389195Y267953D01*
X388805Y268630D01*
X388507Y268927D01*
X388303Y269268D01*
X388507Y269608D01*
X388805Y269906D01*
X389195Y270583D01*
X389398Y271338D01*
Y272119D01*
X389195Y272874D01*
X388805Y273551D01*
X388507Y273848D01*
X388303Y274189D01*
X388507Y274530D01*
X388805Y274827D01*
X389195Y275504D01*
X389398Y276259D01*
Y277040D01*
X389195Y277795D01*
X388805Y278472D01*
X388507Y278770D01*
X388303Y279110D01*
X388507Y279451D01*
X388805Y279748D01*
X389195Y280425D01*
X389398Y281180D01*
Y281962D01*
X389195Y282717D01*
X388805Y283394D01*
X388507Y283691D01*
X388303Y284032D01*
X388507Y284372D01*
X388805Y284669D01*
X389195Y285346D01*
X389398Y286101D01*
Y286883D01*
X389195Y287638D01*
X388805Y288315D01*
X388507Y288612D01*
X388303Y288953D01*
X388507Y289293D01*
X388805Y289591D01*
X389195Y290268D01*
X389398Y291023D01*
Y291804D01*
X389195Y292559D01*
X388805Y293236D01*
X388507Y293533D01*
X388303Y293874D01*
X388507Y294215D01*
X388805Y294512D01*
X389195Y295189D01*
X389398Y295944D01*
Y296726D01*
X389195Y297481D01*
X388805Y298157D01*
X388507Y298455D01*
X388303Y298795D01*
X388507Y299136D01*
X388805Y299433D01*
X389195Y300110D01*
X389398Y300865D01*
Y301647D01*
X389195Y302402D01*
X388805Y303079D01*
X388252Y303631D01*
X387575Y304022D01*
X386820Y304224D01*
D02*
G37*
G36*
X136418Y255102D02*
X135582D01*
X134809Y254782D01*
X134292Y254266D01*
X134000Y254223D01*
X133707Y254266D01*
X133191Y254782D01*
X132418Y255102D01*
X131582D01*
X130809Y254782D01*
X130218Y254191D01*
X129898Y253418D01*
Y252582D01*
X130218Y251809D01*
X130809Y251218D01*
X131582Y250898D01*
X132418D01*
X133191Y251218D01*
X133707Y251734D01*
X134000Y251777D01*
X134292Y251734D01*
X134809Y251218D01*
X135582Y250898D01*
X136418D01*
X137191Y251218D01*
X137782Y251809D01*
X138102Y252582D01*
Y253418D01*
X137782Y254191D01*
X137191Y254782D01*
X136418Y255102D01*
D02*
G37*
G36*
X177418Y256102D02*
X176582D01*
X175809Y255782D01*
X175218Y255191D01*
X174898Y254418D01*
Y253582D01*
X175218Y252809D01*
X175809Y252218D01*
X176582Y251898D01*
X177418D01*
X178191Y252218D01*
X178782Y252809D01*
X179102Y253582D01*
Y254418D01*
X178782Y255191D01*
X178191Y255782D01*
X177418Y256102D01*
D02*
G37*
G36*
X310527Y259000D02*
X309473D01*
X308456Y258727D01*
X307544Y258201D01*
X306799Y257456D01*
X306273Y256544D01*
X306000Y255527D01*
Y254473D01*
X306273Y253456D01*
X306799Y252544D01*
X307544Y251799D01*
X308456Y251273D01*
X309473Y251000D01*
X310527D01*
X311544Y251273D01*
X312456Y251799D01*
X313201Y252544D01*
X313727Y253456D01*
X314000Y254473D01*
Y255527D01*
X313727Y256544D01*
X313201Y257456D01*
X312456Y258201D01*
X311544Y258727D01*
X310527Y259000D01*
D02*
G37*
G36*
X155467Y257561D02*
X154530D01*
X153624Y257318D01*
X152813Y256850D01*
X152150Y256187D01*
X151682Y255376D01*
X151439Y254470D01*
Y253533D01*
X151682Y252628D01*
X152150Y251817D01*
X152813Y251154D01*
X153624Y250685D01*
X154530Y250443D01*
X155467D01*
X156372Y250685D01*
X157184Y251154D01*
X157846Y251817D01*
X158315Y252628D01*
X158557Y253533D01*
Y254470D01*
X158315Y255376D01*
X157846Y256187D01*
X157184Y256850D01*
X156372Y257318D01*
X155467Y257561D01*
D02*
G37*
G36*
X215470Y257557D02*
X214533D01*
X213628Y257315D01*
X212817Y256846D01*
X212154Y256184D01*
X211685Y255372D01*
X211443Y254467D01*
Y253530D01*
X211685Y252624D01*
X212154Y251813D01*
X212817Y251150D01*
X213628Y250682D01*
X214533Y250439D01*
X215470D01*
X216376Y250682D01*
X217187Y251150D01*
X217850Y251813D01*
X218318Y252624D01*
X218561Y253530D01*
Y254467D01*
X218318Y255372D01*
X217850Y256184D01*
X217187Y256846D01*
X216376Y257315D01*
X215470Y257557D01*
D02*
G37*
G36*
X334032Y251134D02*
X333196D01*
X332423Y250814D01*
X331832Y250222D01*
X331512Y249450D01*
Y248613D01*
X331832Y247841D01*
X332423Y247249D01*
X333196Y246929D01*
X334032D01*
X334805Y247249D01*
X335397Y247841D01*
X335717Y248613D01*
Y249450D01*
X335397Y250222D01*
X334805Y250814D01*
X334032Y251134D01*
D02*
G37*
G36*
X140418Y251102D02*
X139582D01*
X138809Y250782D01*
X138218Y250191D01*
X137898Y249418D01*
Y248582D01*
X138218Y247809D01*
X138809Y247218D01*
X139582Y246898D01*
X140418D01*
X141191Y247218D01*
X141782Y247809D01*
X142102Y248582D01*
Y249418D01*
X141782Y250191D01*
X141191Y250782D01*
X140418Y251102D01*
D02*
G37*
G36*
X188418Y246102D02*
X187582D01*
X186809Y245782D01*
X186293Y245266D01*
X186000Y245223D01*
X185707Y245266D01*
X185191Y245782D01*
X184418Y246102D01*
X183582D01*
X182809Y245782D01*
X182218Y245191D01*
X181898Y244418D01*
Y243582D01*
X182218Y242809D01*
X182527Y242500D01*
X182218Y242191D01*
X181898Y241418D01*
Y240582D01*
X182218Y239809D01*
X182809Y239218D01*
X183582Y238898D01*
X184418D01*
X185191Y239218D01*
X185782Y239809D01*
X186102Y240582D01*
Y241418D01*
X185782Y242191D01*
X185718Y242255D01*
X185850Y242596D01*
X186380Y242647D01*
X186809Y242218D01*
X187582Y241898D01*
X188418D01*
X189191Y242218D01*
X189782Y242809D01*
X190102Y243582D01*
Y244418D01*
X189782Y245191D01*
X189191Y245782D01*
X188418Y246102D01*
D02*
G37*
G36*
X147418Y247102D02*
X146582D01*
X145809Y246782D01*
X145218Y246191D01*
X144898Y245418D01*
Y244582D01*
X145218Y243809D01*
X145809Y243218D01*
X146582Y242898D01*
X147418D01*
X148191Y243218D01*
X148782Y243809D01*
X149102Y244582D01*
Y245418D01*
X148782Y246191D01*
X148191Y246782D01*
X147418Y247102D01*
D02*
G37*
G36*
X310527Y249000D02*
X309473D01*
X308456Y248727D01*
X307544Y248201D01*
X306799Y247456D01*
X306273Y246544D01*
X306000Y245527D01*
Y244473D01*
X306273Y243456D01*
X306799Y242544D01*
X307544Y241799D01*
X308456Y241273D01*
X309473Y241000D01*
X310527D01*
X311544Y241273D01*
X312456Y241799D01*
X313201Y242544D01*
X313727Y243456D01*
X314000Y244473D01*
Y245527D01*
X313727Y246544D01*
X313201Y247456D01*
X312456Y248201D01*
X311544Y248727D01*
X310527Y249000D01*
D02*
G37*
G36*
X240527D02*
X239473D01*
X238456Y248727D01*
X237544Y248201D01*
X236799Y247456D01*
X236273Y246544D01*
X236000Y245527D01*
Y244473D01*
X236273Y243456D01*
X236799Y242544D01*
X237544Y241799D01*
X238456Y241273D01*
X239473Y241000D01*
X240527D01*
X241544Y241273D01*
X242456Y241799D01*
X243201Y242544D01*
X243727Y243456D01*
X244000Y244473D01*
Y245527D01*
X243727Y246544D01*
X243201Y247456D01*
X242456Y248201D01*
X241544Y248727D01*
X240527Y249000D01*
D02*
G37*
G36*
X371418Y245102D02*
X370582D01*
X369809Y244782D01*
X369218Y244191D01*
X368898Y243418D01*
Y242582D01*
X369218Y241809D01*
X369809Y241218D01*
X370582Y240898D01*
X371418D01*
X372191Y241218D01*
X372782Y241809D01*
X373102Y242582D01*
Y243418D01*
X372782Y244191D01*
X372191Y244782D01*
X371418Y245102D01*
D02*
G37*
G36*
X388418Y242102D02*
X387582D01*
X386809Y241782D01*
X386218Y241191D01*
X385898Y240418D01*
Y239582D01*
X386218Y238809D01*
X386809Y238218D01*
X387582Y237898D01*
X388418D01*
X389191Y238218D01*
X389782Y238809D01*
X390102Y239582D01*
Y240418D01*
X389782Y241191D01*
X389191Y241782D01*
X388418Y242102D01*
D02*
G37*
G36*
X206418Y232102D02*
X205582D01*
X204809Y231782D01*
X204292Y231266D01*
X204000Y231223D01*
X203708Y231266D01*
X203191Y231782D01*
X202418Y232102D01*
X201582D01*
X200809Y231782D01*
X200218Y231191D01*
X199898Y230418D01*
Y229582D01*
X200218Y228809D01*
X200734Y228292D01*
X200777Y228000D01*
X200734Y227708D01*
X200218Y227191D01*
X199898Y226418D01*
Y225582D01*
X200218Y224809D01*
X200809Y224218D01*
X201582Y223898D01*
X202418D01*
X203191Y224218D01*
X203708Y224734D01*
X204000Y224777D01*
X204292Y224734D01*
X204809Y224218D01*
X205582Y223898D01*
X206418D01*
X207191Y224218D01*
X207782Y224809D01*
X208102Y225582D01*
Y226418D01*
X207782Y227191D01*
X207266Y227708D01*
X207223Y228000D01*
X207266Y228292D01*
X207782Y228809D01*
X208102Y229582D01*
Y230418D01*
X207782Y231191D01*
X207191Y231782D01*
X206418Y232102D01*
D02*
G37*
G36*
X310527Y239000D02*
X309473D01*
X308456Y238727D01*
X307544Y238201D01*
X306799Y237456D01*
X306273Y236544D01*
X306000Y235527D01*
Y234473D01*
X306273Y233456D01*
X306799Y232544D01*
X307544Y231799D01*
X308456Y231273D01*
X309473Y231000D01*
X310527D01*
X311544Y231273D01*
X312456Y231799D01*
X313201Y232544D01*
X313727Y233456D01*
X314000Y234473D01*
Y235527D01*
X313727Y236544D01*
X313201Y237456D01*
X312456Y238201D01*
X311544Y238727D01*
X310527Y239000D01*
D02*
G37*
G36*
X240527D02*
X239473D01*
X238456Y238727D01*
X237544Y238201D01*
X236799Y237456D01*
X236273Y236544D01*
X236000Y235527D01*
Y234473D01*
X236273Y233456D01*
X236799Y232544D01*
X237544Y231799D01*
X238456Y231273D01*
X239473Y231000D01*
X240527D01*
X241544Y231273D01*
X242456Y231799D01*
X243201Y232544D01*
X243727Y233456D01*
X244000Y234473D01*
Y235527D01*
X243727Y236544D01*
X243201Y237456D01*
X242456Y238201D01*
X241544Y238727D01*
X240527Y239000D01*
D02*
G37*
G36*
X393418Y233102D02*
X392582D01*
X391809Y232782D01*
X391218Y232191D01*
X390898Y231418D01*
Y230582D01*
X391218Y229809D01*
X391809Y229218D01*
X392582Y228898D01*
X393418D01*
X394191Y229218D01*
X394782Y229809D01*
X395102Y230582D01*
Y231418D01*
X394782Y232191D01*
X394191Y232782D01*
X393418Y233102D01*
D02*
G37*
G36*
X137418Y229102D02*
X136582D01*
X135809Y228782D01*
X135218Y228191D01*
X134898Y227418D01*
Y226582D01*
X135218Y225809D01*
X135809Y225218D01*
X136582Y224898D01*
X137418D01*
X138191Y225218D01*
X138782Y225809D01*
X139102Y226582D01*
Y227418D01*
X138782Y228191D01*
X138191Y228782D01*
X137418Y229102D01*
D02*
G37*
G36*
X310527Y229000D02*
X309473D01*
X308456Y228727D01*
X307544Y228201D01*
X306799Y227456D01*
X306273Y226544D01*
X306000Y225527D01*
Y224473D01*
X306273Y223456D01*
X306799Y222544D01*
X307544Y221799D01*
X308456Y221273D01*
X309473Y221000D01*
X310527D01*
X311544Y221273D01*
X312456Y221799D01*
X313201Y222544D01*
X313727Y223456D01*
X314000Y224473D01*
Y225527D01*
X313727Y226544D01*
X313201Y227456D01*
X312456Y228201D01*
X311544Y228727D01*
X310527Y229000D01*
D02*
G37*
G36*
X240527D02*
X239473D01*
X238456Y228727D01*
X237544Y228201D01*
X236799Y227456D01*
X236273Y226544D01*
X236000Y225527D01*
Y224473D01*
X236273Y223456D01*
X236799Y222544D01*
X237544Y221799D01*
X238456Y221273D01*
X239473Y221000D01*
X240527D01*
X241544Y221273D01*
X242456Y221799D01*
X243201Y222544D01*
X243727Y223456D01*
X244000Y224473D01*
Y225527D01*
X243727Y226544D01*
X243201Y227456D01*
X242456Y228201D01*
X241544Y228727D01*
X240527Y229000D01*
D02*
G37*
G36*
X377859Y224543D02*
X377023D01*
X376250Y224223D01*
X375659Y223632D01*
X375339Y222859D01*
Y222023D01*
X375659Y221250D01*
X376250Y220659D01*
X377023Y220339D01*
X377859D01*
X378632Y220659D01*
X379223Y221250D01*
X379543Y222023D01*
Y222859D01*
X379223Y223632D01*
X378632Y224223D01*
X377859Y224543D01*
D02*
G37*
G36*
X315418Y215102D02*
X314582D01*
X313809Y214782D01*
X313218Y214191D01*
X312898Y213418D01*
Y212582D01*
X313218Y211809D01*
X313809Y211218D01*
X314582Y210898D01*
X315418D01*
X316191Y211218D01*
X316782Y211809D01*
X317102Y212582D01*
Y213418D01*
X316782Y214191D01*
X316191Y214782D01*
X315418Y215102D01*
D02*
G37*
G36*
X310418D02*
X309582D01*
X308809Y214782D01*
X308218Y214191D01*
X307898Y213418D01*
Y212582D01*
X308218Y211809D01*
X308809Y211218D01*
X309582Y210898D01*
X310418D01*
X311191Y211218D01*
X311782Y211809D01*
X312102Y212582D01*
Y213418D01*
X311782Y214191D01*
X311191Y214782D01*
X310418Y215102D01*
D02*
G37*
G36*
X372158Y208362D02*
X371322D01*
X370549Y208042D01*
X369958Y207451D01*
X369638Y206678D01*
Y205842D01*
X369958Y205069D01*
X370549Y204478D01*
X371322Y204157D01*
X372158D01*
X372931Y204478D01*
X373522Y205069D01*
X373843Y205842D01*
Y206678D01*
X373522Y207451D01*
X372931Y208042D01*
X372158Y208362D01*
D02*
G37*
G36*
X300418Y199102D02*
X299582D01*
X298809Y198782D01*
X298218Y198191D01*
X297898Y197418D01*
Y196582D01*
X298218Y195809D01*
X298809Y195218D01*
X299582Y194898D01*
X300418D01*
X301191Y195218D01*
X301782Y195809D01*
X302102Y196582D01*
Y197418D01*
X301782Y198191D01*
X301191Y198782D01*
X300418Y199102D01*
D02*
G37*
G36*
X280418D02*
X279582D01*
X278809Y198782D01*
X278218Y198191D01*
X277898Y197418D01*
Y196582D01*
X278218Y195809D01*
X278809Y195218D01*
X279582Y194898D01*
X280418D01*
X281191Y195218D01*
X281782Y195809D01*
X282102Y196582D01*
Y197418D01*
X281782Y198191D01*
X281191Y198782D01*
X280418Y199102D01*
D02*
G37*
G36*
X337418Y196102D02*
X336582D01*
X335809Y195782D01*
X335218Y195191D01*
X334898Y194418D01*
Y193582D01*
X335218Y192809D01*
X335809Y192218D01*
X336582Y191898D01*
X337418D01*
X338191Y192218D01*
X338782Y192809D01*
X339102Y193582D01*
Y194418D01*
X338782Y195191D01*
X338191Y195782D01*
X337418Y196102D01*
D02*
G37*
G36*
X318418D02*
X317582D01*
X316809Y195782D01*
X316218Y195191D01*
X315898Y194418D01*
Y193582D01*
X316218Y192809D01*
X316809Y192218D01*
X317582Y191898D01*
X318418D01*
X319191Y192218D01*
X319782Y192809D01*
X320102Y193582D01*
Y194418D01*
X319782Y195191D01*
X319191Y195782D01*
X318418Y196102D01*
D02*
G37*
G36*
X260418Y193102D02*
X259582D01*
X258809Y192782D01*
X258218Y192191D01*
X257898Y191418D01*
Y190582D01*
X258218Y189809D01*
X258809Y189218D01*
X259582Y188898D01*
X260418D01*
X261191Y189218D01*
X261782Y189809D01*
X262102Y190582D01*
Y191418D01*
X261782Y192191D01*
X261191Y192782D01*
X260418Y193102D01*
D02*
G37*
G36*
X148418Y192102D02*
X147582D01*
X146809Y191782D01*
X146218Y191191D01*
X145898Y190418D01*
Y189582D01*
X146218Y188809D01*
X146527Y188500D01*
X146218Y188191D01*
X145898Y187418D01*
Y186582D01*
X146218Y185809D01*
X146809Y185218D01*
X147582Y184898D01*
X148418D01*
X149191Y185218D01*
X149782Y185809D01*
X150102Y186582D01*
Y187418D01*
X149782Y188191D01*
X149473Y188500D01*
X149782Y188809D01*
X150102Y189582D01*
Y190418D01*
X149782Y191191D01*
X149191Y191782D01*
X148418Y192102D01*
D02*
G37*
G36*
X372678Y188362D02*
X371842D01*
X371069Y188042D01*
X370478Y187451D01*
X370158Y186678D01*
Y185842D01*
X370478Y185069D01*
X371069Y184477D01*
X371842Y184158D01*
X372678D01*
X373451Y184477D01*
X374042Y185069D01*
X374362Y185842D01*
Y186678D01*
X374042Y187451D01*
X373451Y188042D01*
X372678Y188362D01*
D02*
G37*
G36*
X233418Y182102D02*
X232582D01*
X231809Y181782D01*
X231218Y181191D01*
X230898Y180418D01*
Y179582D01*
X231218Y178809D01*
X231809Y178218D01*
X232582Y177898D01*
X233418D01*
X234191Y178218D01*
X234782Y178809D01*
X235102Y179582D01*
Y180418D01*
X234782Y181191D01*
X234191Y181782D01*
X233418Y182102D01*
D02*
G37*
G36*
X344918Y181602D02*
X344082D01*
X343309Y181282D01*
X342718Y180691D01*
X342398Y179918D01*
Y179082D01*
X342718Y178309D01*
X343309Y177718D01*
X344082Y177398D01*
X344918D01*
X345691Y177718D01*
X346282Y178309D01*
X346602Y179082D01*
Y179918D01*
X346282Y180691D01*
X345691Y181282D01*
X344918Y181602D01*
D02*
G37*
G36*
X269418Y186102D02*
X268582D01*
X267809Y185782D01*
X267218Y185191D01*
X266898Y184418D01*
Y183582D01*
X267218Y182809D01*
X267809Y182218D01*
X268535Y181917D01*
X268583Y181755D01*
X268588Y181398D01*
X268309Y181282D01*
X267718Y180691D01*
X267398Y179918D01*
Y179082D01*
X267718Y178309D01*
X268309Y177718D01*
X269082Y177398D01*
X269918D01*
X270691Y177718D01*
X271282Y178309D01*
X271602Y179082D01*
Y179918D01*
X271282Y180691D01*
X270691Y181282D01*
X269965Y181583D01*
X269917Y181745D01*
X269912Y182102D01*
X270191Y182218D01*
X270782Y182809D01*
X271102Y183582D01*
Y184418D01*
X270782Y185191D01*
X270191Y185782D01*
X269418Y186102D01*
D02*
G37*
G36*
X326418Y181102D02*
X325582D01*
X324809Y180782D01*
X324218Y180191D01*
X323898Y179418D01*
Y178582D01*
X324218Y177809D01*
X324809Y177218D01*
X325582Y176898D01*
X326418D01*
X327191Y177218D01*
X327782Y177809D01*
X328102Y178582D01*
Y179418D01*
X327782Y180191D01*
X327191Y180782D01*
X326418Y181102D01*
D02*
G37*
G36*
X244418Y177102D02*
X243582D01*
X242809Y176782D01*
X242218Y176191D01*
X241898Y175418D01*
Y174582D01*
X242218Y173809D01*
X242809Y173218D01*
X243582Y172898D01*
X244418D01*
X245191Y173218D01*
X245782Y173809D01*
X246102Y174582D01*
Y175418D01*
X245782Y176191D01*
X245191Y176782D01*
X244418Y177102D01*
D02*
G37*
G36*
X319918Y176602D02*
X319082D01*
X318309Y176282D01*
X317718Y175691D01*
X317398Y174918D01*
Y174082D01*
X317718Y173309D01*
X318309Y172718D01*
X319082Y172398D01*
X319918D01*
X320691Y172718D01*
X321282Y173309D01*
X321602Y174082D01*
Y174918D01*
X321282Y175691D01*
X320691Y176282D01*
X319918Y176602D01*
D02*
G37*
G36*
X233418Y172102D02*
X232582D01*
X231809Y171782D01*
X231218Y171191D01*
X230898Y170418D01*
Y169582D01*
X231218Y168809D01*
X231809Y168218D01*
X232582Y167898D01*
X233418D01*
X234191Y168218D01*
X234782Y168809D01*
X235102Y169582D01*
Y170418D01*
X234782Y171191D01*
X234191Y171782D01*
X233418Y172102D01*
D02*
G37*
G36*
X344918Y171602D02*
X344082D01*
X343309Y171282D01*
X342718Y170691D01*
X342398Y169918D01*
Y169082D01*
X342718Y168309D01*
X343309Y167718D01*
X344082Y167398D01*
X344918D01*
X345691Y167718D01*
X346282Y168309D01*
X346602Y169082D01*
Y169918D01*
X346282Y170691D01*
X345691Y171282D01*
X344918Y171602D01*
D02*
G37*
G36*
X269918D02*
X269082D01*
X268309Y171282D01*
X267718Y170691D01*
X267398Y169918D01*
Y169082D01*
X267718Y168309D01*
X268309Y167718D01*
X269082Y167398D01*
X269918D01*
X270691Y167718D01*
X271282Y168309D01*
X271602Y169082D01*
Y169918D01*
X271282Y170691D01*
X270691Y171282D01*
X269918Y171602D01*
D02*
G37*
G36*
X390527Y174000D02*
X389473D01*
X388456Y173727D01*
X387544Y173201D01*
X386799Y172456D01*
X386273Y171544D01*
X386000Y170527D01*
Y169473D01*
X386273Y168456D01*
X386799Y167544D01*
X387544Y166799D01*
X388456Y166273D01*
X389473Y166000D01*
X390527D01*
X391544Y166273D01*
X392456Y166799D01*
X393201Y167544D01*
X393727Y168456D01*
X394000Y169473D01*
Y170527D01*
X393727Y171544D01*
X393201Y172456D01*
X392456Y173201D01*
X391544Y173727D01*
X390527Y174000D01*
D02*
G37*
G36*
X323418Y167102D02*
X322582D01*
X321809Y166782D01*
X321218Y166191D01*
X320898Y165418D01*
Y164582D01*
X321218Y163809D01*
X321809Y163218D01*
X322582Y162898D01*
X323418D01*
X324191Y163218D01*
X324782Y163809D01*
X325102Y164582D01*
Y165418D01*
X324782Y166191D01*
X324191Y166782D01*
X323418Y167102D01*
D02*
G37*
G36*
X233418D02*
X232582D01*
X231809Y166782D01*
X231218Y166191D01*
X230898Y165418D01*
Y164582D01*
X231218Y163809D01*
X231809Y163218D01*
X232582Y162898D01*
X233418D01*
X234191Y163218D01*
X234782Y163809D01*
X235102Y164582D01*
Y165418D01*
X234782Y166191D01*
X234191Y166782D01*
X233418Y167102D01*
D02*
G37*
G36*
X344918Y166602D02*
X344082D01*
X343309Y166282D01*
X342718Y165691D01*
X342398Y164918D01*
Y164082D01*
X342718Y163309D01*
X343309Y162718D01*
X344082Y162398D01*
X344918D01*
X345691Y162718D01*
X346282Y163309D01*
X346602Y164082D01*
Y164918D01*
X346282Y165691D01*
X345691Y166282D01*
X344918Y166602D01*
D02*
G37*
G36*
X269918D02*
X269082D01*
X268309Y166282D01*
X267718Y165691D01*
X267398Y164918D01*
Y164082D01*
X267718Y163309D01*
X268309Y162718D01*
X269082Y162398D01*
X269918D01*
X270691Y162718D01*
X271282Y163309D01*
X271602Y164082D01*
Y164918D01*
X271282Y165691D01*
X270691Y166282D01*
X269918Y166602D01*
D02*
G37*
G36*
X208418Y166102D02*
X207582D01*
X206809Y165782D01*
X206218Y165191D01*
X205898Y164418D01*
Y163582D01*
X206218Y162809D01*
X206809Y162218D01*
X207582Y161898D01*
X208418D01*
X209191Y162218D01*
X209782Y162809D01*
X210102Y163582D01*
Y164418D01*
X209782Y165191D01*
X209191Y165782D01*
X208418Y166102D01*
D02*
G37*
G36*
X287158Y165362D02*
X286322D01*
X285549Y165042D01*
X284958Y164451D01*
X284638Y163678D01*
Y162842D01*
X284958Y162069D01*
X285549Y161477D01*
X286322Y161158D01*
X287158D01*
X287931Y161477D01*
X288523Y162069D01*
X288843Y162842D01*
Y163678D01*
X288523Y164451D01*
X287931Y165042D01*
X287158Y165362D01*
D02*
G37*
G36*
X356418Y165102D02*
X355582D01*
X354809Y164782D01*
X354218Y164191D01*
X353898Y163418D01*
Y162582D01*
X354218Y161809D01*
X354809Y161218D01*
X355582Y160898D01*
X356418D01*
X357191Y161218D01*
X357782Y161809D01*
X358102Y162582D01*
Y163418D01*
X357782Y164191D01*
X357191Y164782D01*
X356418Y165102D01*
D02*
G37*
G36*
X187418D02*
X186582D01*
X185809Y164782D01*
X185218Y164191D01*
X184898Y163418D01*
Y162582D01*
X185218Y161809D01*
X185809Y161218D01*
X186582Y160898D01*
X187418D01*
X188191Y161218D01*
X188782Y161809D01*
X189102Y162582D01*
Y163418D01*
X188782Y164191D01*
X188191Y164782D01*
X187418Y165102D01*
D02*
G37*
G36*
X169434Y161118D02*
X168598D01*
X167825Y160798D01*
X167500Y160473D01*
X167191Y160782D01*
X166418Y161102D01*
X165582D01*
X164809Y160782D01*
X164218Y160191D01*
X163898Y159418D01*
Y158582D01*
X164218Y157809D01*
X164809Y157218D01*
X165582Y156898D01*
X166418D01*
X167191Y157218D01*
X167516Y157543D01*
X167825Y157233D01*
X168598Y156913D01*
X169434D01*
X170207Y157233D01*
X170798Y157825D01*
X171118Y158598D01*
Y159434D01*
X170798Y160207D01*
X170207Y160798D01*
X169434Y161118D01*
D02*
G37*
G36*
X143418Y168102D02*
X142582D01*
X141809Y167782D01*
X141218Y167191D01*
X140898Y166418D01*
Y165582D01*
X141218Y164809D01*
X141734Y164293D01*
X141777Y164000D01*
X141734Y163707D01*
X141218Y163191D01*
X140898Y162418D01*
Y161582D01*
X141218Y160809D01*
X141809Y160218D01*
X142582Y159898D01*
X143418D01*
X144191Y160218D01*
X144782Y160809D01*
X145102Y161582D01*
Y162418D01*
X144782Y163191D01*
X144266Y163707D01*
X144223Y164000D01*
X144266Y164293D01*
X144782Y164809D01*
X145102Y165582D01*
Y166418D01*
X144782Y167191D01*
X144191Y167782D01*
X143418Y168102D01*
D02*
G37*
G36*
X181240Y161118D02*
X180404D01*
X179631Y160798D01*
X179040Y160207D01*
X178720Y159434D01*
Y158598D01*
X179040Y157825D01*
X179631Y157233D01*
X180404Y156913D01*
X181240D01*
X182013Y157233D01*
X182403Y157624D01*
X182809Y157218D01*
X183582Y156898D01*
X184418D01*
X185191Y157218D01*
X185782Y157809D01*
X186102Y158582D01*
Y159418D01*
X185782Y160191D01*
X185191Y160782D01*
X184418Y161102D01*
X183582D01*
X182809Y160782D01*
X182419Y160392D01*
X182013Y160798D01*
X181240Y161118D01*
D02*
G37*
G36*
X390527Y164000D02*
X389473D01*
X388456Y163727D01*
X387544Y163201D01*
X386799Y162456D01*
X386273Y161544D01*
X386000Y160527D01*
Y159473D01*
X386273Y158456D01*
X386799Y157544D01*
X387544Y156799D01*
X388456Y156273D01*
X389473Y156000D01*
X390527D01*
X391544Y156273D01*
X392456Y156799D01*
X393201Y157544D01*
X393727Y158456D01*
X394000Y159473D01*
Y160527D01*
X393727Y161544D01*
X393201Y162456D01*
X392456Y163201D01*
X391544Y163727D01*
X390527Y164000D01*
D02*
G37*
G36*
X214284Y161236D02*
X213448D01*
X212675Y160916D01*
X212084Y160325D01*
X211764Y159552D01*
Y158716D01*
X212084Y157943D01*
X212675Y157352D01*
X213448Y157032D01*
X214284D01*
X215057Y157352D01*
X215398Y157692D01*
X215898Y157485D01*
Y157228D01*
X216218Y156455D01*
X216809Y155863D01*
X217582Y155543D01*
X218418D01*
X219191Y155863D01*
X219782Y156455D01*
X220102Y157228D01*
Y158064D01*
X219782Y158837D01*
X219191Y159428D01*
X218418Y159748D01*
X217582D01*
X216809Y159428D01*
X216469Y159087D01*
X215968Y159294D01*
Y159552D01*
X215648Y160325D01*
X215057Y160916D01*
X214284Y161236D01*
D02*
G37*
G36*
X200418Y159102D02*
X199582D01*
X198809Y158782D01*
X198218Y158191D01*
X197898Y157418D01*
Y156582D01*
X198218Y155809D01*
X198809Y155218D01*
X199582Y154898D01*
X200418D01*
X201191Y155218D01*
X201782Y155809D01*
X202102Y156582D01*
Y157418D01*
X201782Y158191D01*
X201191Y158782D01*
X200418Y159102D01*
D02*
G37*
G36*
X269418Y157102D02*
X268582D01*
X267809Y156782D01*
X267218Y156191D01*
X266898Y155418D01*
Y154582D01*
X267218Y153809D01*
X267809Y153218D01*
X268582Y152898D01*
X269418D01*
X270191Y153218D01*
X270782Y153809D01*
X271102Y154582D01*
Y155418D01*
X270782Y156191D01*
X270191Y156782D01*
X269418Y157102D01*
D02*
G37*
G36*
X344918Y156602D02*
X344082D01*
X343309Y156282D01*
X342718Y155691D01*
X342398Y154918D01*
Y154082D01*
X342718Y153309D01*
X343309Y152718D01*
X344082Y152398D01*
X344918D01*
X345691Y152718D01*
X346282Y153309D01*
X346602Y154082D01*
Y154918D01*
X346282Y155691D01*
X345691Y156282D01*
X344918Y156602D01*
D02*
G37*
G36*
X233418Y156102D02*
X232582D01*
X231809Y155782D01*
X231218Y155191D01*
X230898Y154418D01*
Y153582D01*
X231218Y152809D01*
X231809Y152218D01*
X232582Y151898D01*
X233418D01*
X234191Y152218D01*
X234782Y152809D01*
X235102Y153582D01*
Y154418D01*
X234782Y155191D01*
X234191Y155782D01*
X233418Y156102D01*
D02*
G37*
G36*
X319918Y151602D02*
X319082D01*
X318309Y151282D01*
X317718Y150691D01*
X317398Y149918D01*
Y149082D01*
X317718Y148309D01*
X318309Y147718D01*
X319082Y147398D01*
X319918D01*
X320691Y147718D01*
X321282Y148309D01*
X321602Y149082D01*
Y149918D01*
X321282Y150691D01*
X320691Y151282D01*
X319918Y151602D01*
D02*
G37*
G36*
X244918D02*
X244082D01*
X243309Y151282D01*
X242718Y150691D01*
X242398Y149918D01*
Y149082D01*
X242718Y148309D01*
X243309Y147718D01*
X244082Y147398D01*
X244918D01*
X245691Y147718D01*
X246282Y148309D01*
X246602Y149082D01*
Y149918D01*
X246282Y150691D01*
X245691Y151282D01*
X244918Y151602D01*
D02*
G37*
G36*
X287418Y146102D02*
X286582D01*
X285809Y145782D01*
X285218Y145191D01*
X284898Y144418D01*
Y143582D01*
X285218Y142809D01*
X285809Y142218D01*
X286582Y141898D01*
X287418D01*
X288191Y142218D01*
X288782Y142809D01*
X289102Y143582D01*
Y144418D01*
X288782Y145191D01*
X288191Y145782D01*
X287418Y146102D01*
D02*
G37*
G36*
X299425Y133008D02*
X292701D01*
Y126284D01*
X299425D01*
Y133008D01*
D02*
G37*
G36*
X199425D02*
X192701D01*
Y126284D01*
X199425D01*
Y133008D01*
D02*
G37*
G36*
X340527Y114000D02*
X339473D01*
X338456Y113727D01*
X337544Y113201D01*
X336799Y112456D01*
X336273Y111544D01*
X336000Y110527D01*
Y109473D01*
X336273Y108456D01*
X336799Y107544D01*
X337544Y106799D01*
X338456Y106273D01*
X339473Y106000D01*
X340527D01*
X341544Y106273D01*
X342456Y106799D01*
X343201Y107544D01*
X343727Y108456D01*
X344000Y109473D01*
Y110527D01*
X343727Y111544D01*
X343201Y112456D01*
X342456Y113201D01*
X341544Y113727D01*
X340527Y114000D01*
D02*
G37*
G36*
X330527D02*
X329473D01*
X328456Y113727D01*
X327544Y113201D01*
X326799Y112456D01*
X326273Y111544D01*
X326000Y110527D01*
Y109473D01*
X326273Y108456D01*
X326799Y107544D01*
X327544Y106799D01*
X328456Y106273D01*
X329473Y106000D01*
X330527D01*
X331544Y106273D01*
X332456Y106799D01*
X333201Y107544D01*
X333727Y108456D01*
X334000Y109473D01*
Y110527D01*
X333727Y111544D01*
X333201Y112456D01*
X332456Y113201D01*
X331544Y113727D01*
X330527Y114000D01*
D02*
G37*
G36*
X240527D02*
X239473D01*
X238456Y113727D01*
X237544Y113201D01*
X236799Y112456D01*
X236273Y111544D01*
X236000Y110527D01*
Y109473D01*
X236273Y108456D01*
X236799Y107544D01*
X237544Y106799D01*
X238456Y106273D01*
X239473Y106000D01*
X240527D01*
X241544Y106273D01*
X242456Y106799D01*
X243201Y107544D01*
X243727Y108456D01*
X244000Y109473D01*
Y110527D01*
X243727Y111544D01*
X243201Y112456D01*
X242456Y113201D01*
X241544Y113727D01*
X240527Y114000D01*
D02*
G37*
G36*
X230527D02*
X229473D01*
X228456Y113727D01*
X227544Y113201D01*
X226799Y112456D01*
X226273Y111544D01*
X226000Y110527D01*
Y109473D01*
X226273Y108456D01*
X226799Y107544D01*
X227544Y106799D01*
X228456Y106273D01*
X229473Y106000D01*
X230527D01*
X231544Y106273D01*
X232456Y106799D01*
X233201Y107544D01*
X233727Y108456D01*
X234000Y109473D01*
Y110527D01*
X233727Y111544D01*
X233201Y112456D01*
X232456Y113201D01*
X231544Y113727D01*
X230527Y114000D01*
D02*
G37*
G36*
X145418Y108102D02*
X144582D01*
X143809Y107782D01*
X143218Y107191D01*
X142898Y106418D01*
Y105582D01*
X143218Y104809D01*
X143809Y104218D01*
X144582Y103898D01*
X145418D01*
X146191Y104218D01*
X146782Y104809D01*
X147102Y105582D01*
Y106418D01*
X146782Y107191D01*
X146191Y107782D01*
X145418Y108102D01*
D02*
G37*
%LPD*%
D14*
X380000Y100000D02*
G03*
X400000Y120000I0J20000D01*
G01*
X100000Y120000D02*
G03*
X120000Y100000I20000J0D01*
G01*
X400000Y480000D02*
G03*
X380000Y500000I-20000J0D01*
G01*
X120000Y500000D02*
G03*
X100000Y480000I0J-20000D01*
G01*
Y120000D02*
Y480000D01*
X400000Y120000D02*
X400000Y480000D01*
X120000Y100000D02*
X380000D01*
X120000Y500000D02*
X380000D01*
D67*
X250000Y110000D02*
D03*
X240000Y255000D02*
D03*
X390000Y150000D02*
D03*
X350000Y110000D02*
D03*
D71*
X386429Y306177D02*
D03*
D73*
X361882D02*
D03*
D79*
X215002Y473998D02*
D03*
Y343998D02*
D03*
D80*
X154998Y484002D02*
D03*
D81*
X120000Y120000D02*
D03*
Y480000D02*
D03*
X380000D02*
D03*
Y120000D02*
D03*
D82*
X303937Y129646D02*
D03*
X203937D02*
D03*
D83*
X397500Y470000D02*
D03*
X395000Y465000D02*
D03*
X397500Y460000D02*
D03*
X395000Y455000D02*
D03*
X397500Y450000D02*
D03*
X395000Y445000D02*
D03*
X397500Y440000D02*
D03*
X395000Y435000D02*
D03*
X397500Y430000D02*
D03*
X395000Y425000D02*
D03*
X397500Y420000D02*
D03*
X395000Y415000D02*
D03*
X397500Y410000D02*
D03*
X395000Y405000D02*
D03*
X397500Y400000D02*
D03*
X395000Y395000D02*
D03*
X397500Y390000D02*
D03*
X395000Y385000D02*
D03*
X397500Y380000D02*
D03*
X395000Y375000D02*
D03*
X397500Y370000D02*
D03*
X395000Y365000D02*
D03*
X397500Y360000D02*
D03*
X395000Y355000D02*
D03*
X397500Y350000D02*
D03*
X395000Y345000D02*
D03*
X397500Y340000D02*
D03*
X395000Y335000D02*
D03*
X397500Y330000D02*
D03*
X395000Y325000D02*
D03*
X397500Y320000D02*
D03*
X395000Y315000D02*
D03*
X397500Y310000D02*
D03*
X395000Y305000D02*
D03*
X397500Y300000D02*
D03*
X395000Y295000D02*
D03*
X397500Y290000D02*
D03*
X395000Y285000D02*
D03*
X397500Y280000D02*
D03*
X395000Y275000D02*
D03*
X397500Y270000D02*
D03*
X395000Y265000D02*
D03*
X397500Y260000D02*
D03*
X395000Y255000D02*
D03*
X397500Y250000D02*
D03*
X395000Y245000D02*
D03*
X397500Y240000D02*
D03*
Y230000D02*
D03*
X395000Y225000D02*
D03*
X397500Y220000D02*
D03*
X395000Y215000D02*
D03*
X397500Y210000D02*
D03*
X395000Y205000D02*
D03*
X397500Y200000D02*
D03*
Y190000D02*
D03*
Y180000D02*
D03*
X395000Y175000D02*
D03*
X397500Y170000D02*
D03*
X395000Y165000D02*
D03*
X397500Y160000D02*
D03*
X395000Y155000D02*
D03*
X397500Y150000D02*
D03*
X395000Y145000D02*
D03*
X397500Y140000D02*
D03*
X395000Y135000D02*
D03*
X397500Y130000D02*
D03*
X392500Y460000D02*
D03*
X390000Y455000D02*
D03*
X392500Y450000D02*
D03*
X390000Y445000D02*
D03*
X392500Y440000D02*
D03*
X390000Y435000D02*
D03*
X392500Y430000D02*
D03*
X390000Y425000D02*
D03*
X392500Y420000D02*
D03*
X390000Y415000D02*
D03*
X392500Y410000D02*
D03*
X390000Y405000D02*
D03*
X392500Y400000D02*
D03*
X390000Y395000D02*
D03*
X392500Y390000D02*
D03*
X390000Y385000D02*
D03*
X392500Y380000D02*
D03*
X390000Y375000D02*
D03*
X392500Y370000D02*
D03*
X390000Y365000D02*
D03*
X392500Y360000D02*
D03*
X390000Y355000D02*
D03*
X392500Y350000D02*
D03*
X390000Y345000D02*
D03*
X392500Y340000D02*
D03*
X390000Y335000D02*
D03*
X392500Y320000D02*
D03*
X390000Y315000D02*
D03*
X392500Y310000D02*
D03*
Y300000D02*
D03*
Y290000D02*
D03*
Y280000D02*
D03*
Y270000D02*
D03*
Y260000D02*
D03*
X390000Y255000D02*
D03*
X392500Y220000D02*
D03*
X390000Y215000D02*
D03*
X392500Y210000D02*
D03*
Y140000D02*
D03*
X387500Y460000D02*
D03*
X385000Y455000D02*
D03*
X387500Y450000D02*
D03*
X385000Y445000D02*
D03*
X387500Y440000D02*
D03*
X385000Y435000D02*
D03*
X387500Y430000D02*
D03*
X385000Y425000D02*
D03*
X387500Y420000D02*
D03*
X385000Y415000D02*
D03*
X387500Y410000D02*
D03*
X385000Y405000D02*
D03*
X387500Y400000D02*
D03*
X385000Y395000D02*
D03*
X387500Y390000D02*
D03*
X385000Y385000D02*
D03*
X387500Y380000D02*
D03*
X385000Y375000D02*
D03*
X387500Y370000D02*
D03*
X385000Y365000D02*
D03*
X387500Y360000D02*
D03*
X385000Y355000D02*
D03*
X387500Y350000D02*
D03*
X385000Y345000D02*
D03*
X387500Y340000D02*
D03*
X385000Y335000D02*
D03*
X387500Y320000D02*
D03*
X385000Y315000D02*
D03*
Y255000D02*
D03*
X387500Y250000D02*
D03*
Y230000D02*
D03*
Y220000D02*
D03*
X385000Y215000D02*
D03*
X387500Y200000D02*
D03*
X385000Y195000D02*
D03*
Y165000D02*
D03*
Y155000D02*
D03*
Y145000D02*
D03*
X387500Y140000D02*
D03*
X382500Y460000D02*
D03*
X380000Y455000D02*
D03*
X382500Y450000D02*
D03*
X380000Y445000D02*
D03*
X382500Y440000D02*
D03*
X380000Y435000D02*
D03*
X382500Y430000D02*
D03*
X380000Y425000D02*
D03*
X382500Y420000D02*
D03*
X380000Y415000D02*
D03*
X382500Y410000D02*
D03*
X380000Y405000D02*
D03*
X382500Y400000D02*
D03*
X380000Y395000D02*
D03*
X382500Y390000D02*
D03*
X380000Y385000D02*
D03*
X382500Y380000D02*
D03*
X380000Y375000D02*
D03*
X382500Y370000D02*
D03*
X380000Y365000D02*
D03*
X382500Y360000D02*
D03*
X380000Y355000D02*
D03*
X382500Y350000D02*
D03*
X380000Y345000D02*
D03*
X382500Y340000D02*
D03*
X380000Y335000D02*
D03*
X382500Y320000D02*
D03*
X380000Y315000D02*
D03*
X382500Y310000D02*
D03*
X380000Y305000D02*
D03*
Y255000D02*
D03*
X382500Y250000D02*
D03*
Y200000D02*
D03*
X380000Y165000D02*
D03*
Y155000D02*
D03*
X382500Y150000D02*
D03*
X380000Y145000D02*
D03*
X382500Y140000D02*
D03*
X377500Y460000D02*
D03*
X375000Y455000D02*
D03*
X377500Y450000D02*
D03*
X375000Y445000D02*
D03*
X377500Y440000D02*
D03*
X375000Y435000D02*
D03*
X377500Y430000D02*
D03*
X375000Y425000D02*
D03*
X377500Y420000D02*
D03*
X375000Y415000D02*
D03*
X377500Y410000D02*
D03*
X375000Y405000D02*
D03*
X377500Y400000D02*
D03*
X375000Y395000D02*
D03*
X377500Y390000D02*
D03*
X375000Y385000D02*
D03*
X377500Y380000D02*
D03*
X375000Y375000D02*
D03*
X377500Y370000D02*
D03*
X375000Y365000D02*
D03*
X377500Y360000D02*
D03*
X375000Y355000D02*
D03*
X377500Y350000D02*
D03*
X375000Y345000D02*
D03*
X377500Y340000D02*
D03*
X375000Y335000D02*
D03*
X377500Y320000D02*
D03*
X375000Y315000D02*
D03*
X377500Y310000D02*
D03*
X375000Y305000D02*
D03*
Y255000D02*
D03*
X377500Y250000D02*
D03*
Y230000D02*
D03*
Y150000D02*
D03*
X375000Y145000D02*
D03*
X377500Y140000D02*
D03*
X372500Y460000D02*
D03*
X370000Y455000D02*
D03*
X372500Y450000D02*
D03*
X370000Y445000D02*
D03*
X372500Y440000D02*
D03*
X370000Y435000D02*
D03*
X372500Y430000D02*
D03*
X370000Y425000D02*
D03*
X372500Y420000D02*
D03*
X370000Y415000D02*
D03*
X372500Y410000D02*
D03*
X370000Y405000D02*
D03*
X372500Y400000D02*
D03*
X370000Y395000D02*
D03*
X372500Y390000D02*
D03*
X370000Y385000D02*
D03*
X372500Y380000D02*
D03*
X370000Y375000D02*
D03*
X372500Y370000D02*
D03*
X370000Y365000D02*
D03*
X372500Y360000D02*
D03*
X370000Y355000D02*
D03*
X372500Y350000D02*
D03*
X370000Y345000D02*
D03*
X372500Y340000D02*
D03*
X370000Y335000D02*
D03*
X372500Y320000D02*
D03*
X370000Y315000D02*
D03*
X372500Y310000D02*
D03*
X370000Y305000D02*
D03*
Y255000D02*
D03*
X372500Y250000D02*
D03*
Y240000D02*
D03*
X370000Y235000D02*
D03*
X372500Y230000D02*
D03*
X370000Y225000D02*
D03*
X372500Y160000D02*
D03*
Y150000D02*
D03*
Y140000D02*
D03*
X365000Y495000D02*
D03*
Y465000D02*
D03*
X367500Y460000D02*
D03*
X365000Y455000D02*
D03*
X367500Y450000D02*
D03*
X365000Y445000D02*
D03*
X367500Y440000D02*
D03*
X365000Y435000D02*
D03*
X367500Y430000D02*
D03*
X365000Y425000D02*
D03*
X367500Y420000D02*
D03*
X365000Y415000D02*
D03*
X367500Y410000D02*
D03*
X365000Y405000D02*
D03*
X367500Y400000D02*
D03*
X365000Y395000D02*
D03*
X367500Y390000D02*
D03*
X365000Y385000D02*
D03*
X367500Y380000D02*
D03*
X365000Y375000D02*
D03*
X367500Y370000D02*
D03*
X365000Y365000D02*
D03*
X367500Y360000D02*
D03*
X365000Y355000D02*
D03*
X367500Y350000D02*
D03*
X365000Y345000D02*
D03*
X367500Y340000D02*
D03*
X365000Y335000D02*
D03*
X367500Y320000D02*
D03*
X365000Y315000D02*
D03*
X367500Y310000D02*
D03*
X365000Y245000D02*
D03*
X367500Y230000D02*
D03*
Y220000D02*
D03*
X365000Y195000D02*
D03*
X367500Y150000D02*
D03*
X365000Y145000D02*
D03*
Y135000D02*
D03*
Y105000D02*
D03*
X360000Y495000D02*
D03*
X362500Y490000D02*
D03*
X360000Y485000D02*
D03*
Y475000D02*
D03*
X362500Y470000D02*
D03*
X360000Y465000D02*
D03*
X362500Y460000D02*
D03*
X360000Y455000D02*
D03*
X362500Y450000D02*
D03*
X360000Y445000D02*
D03*
X362500Y440000D02*
D03*
X360000Y435000D02*
D03*
X362500Y430000D02*
D03*
X360000Y425000D02*
D03*
X362500Y420000D02*
D03*
X360000Y415000D02*
D03*
X362500Y410000D02*
D03*
X360000Y405000D02*
D03*
X362500Y400000D02*
D03*
X360000Y395000D02*
D03*
X362500Y390000D02*
D03*
X360000Y385000D02*
D03*
X362500Y380000D02*
D03*
X360000Y375000D02*
D03*
X362500Y370000D02*
D03*
X360000Y365000D02*
D03*
X362500Y360000D02*
D03*
X360000Y355000D02*
D03*
X362500Y350000D02*
D03*
X360000Y345000D02*
D03*
X362500Y340000D02*
D03*
X360000Y335000D02*
D03*
X362500Y320000D02*
D03*
X360000Y315000D02*
D03*
X362500Y250000D02*
D03*
X360000Y245000D02*
D03*
X362500Y210000D02*
D03*
X360000Y205000D02*
D03*
X362500Y150000D02*
D03*
X360000Y145000D02*
D03*
X362500Y140000D02*
D03*
X360000Y135000D02*
D03*
X362500Y130000D02*
D03*
X360000Y125000D02*
D03*
Y115000D02*
D03*
X362500Y110000D02*
D03*
X360000Y105000D02*
D03*
X355000Y495000D02*
D03*
X357500Y490000D02*
D03*
X355000Y485000D02*
D03*
X357500Y480000D02*
D03*
X355000Y475000D02*
D03*
X357500Y470000D02*
D03*
X355000Y465000D02*
D03*
X357500Y460000D02*
D03*
X355000Y455000D02*
D03*
X357500Y450000D02*
D03*
X355000Y445000D02*
D03*
X357500Y440000D02*
D03*
X355000Y435000D02*
D03*
X357500Y430000D02*
D03*
X355000Y425000D02*
D03*
X357500Y420000D02*
D03*
X355000Y415000D02*
D03*
X357500Y410000D02*
D03*
X355000Y405000D02*
D03*
X357500Y400000D02*
D03*
X355000Y395000D02*
D03*
X357500Y390000D02*
D03*
X355000Y385000D02*
D03*
X357500Y380000D02*
D03*
X355000Y375000D02*
D03*
X357500Y370000D02*
D03*
X355000Y365000D02*
D03*
X357500Y360000D02*
D03*
X355000Y355000D02*
D03*
X357500Y350000D02*
D03*
X355000Y345000D02*
D03*
X357500Y340000D02*
D03*
X355000Y335000D02*
D03*
X357500Y320000D02*
D03*
X355000Y315000D02*
D03*
X357500Y310000D02*
D03*
Y290000D02*
D03*
X355000Y255000D02*
D03*
X357500Y250000D02*
D03*
Y140000D02*
D03*
X355000Y135000D02*
D03*
X357500Y130000D02*
D03*
X355000Y125000D02*
D03*
X357500Y120000D02*
D03*
X355000Y115000D02*
D03*
X357500Y110000D02*
D03*
X355000Y105000D02*
D03*
X350000Y495000D02*
D03*
X352500Y490000D02*
D03*
X350000Y485000D02*
D03*
X352500Y480000D02*
D03*
X350000Y475000D02*
D03*
X352500Y470000D02*
D03*
X350000Y465000D02*
D03*
X352500Y460000D02*
D03*
X350000Y455000D02*
D03*
X352500Y450000D02*
D03*
X350000Y445000D02*
D03*
X352500Y440000D02*
D03*
X350000Y435000D02*
D03*
X352500Y430000D02*
D03*
Y420000D02*
D03*
Y410000D02*
D03*
X350000Y405000D02*
D03*
X352500Y400000D02*
D03*
X350000Y395000D02*
D03*
X352500Y390000D02*
D03*
X350000Y385000D02*
D03*
X352500Y380000D02*
D03*
X350000Y375000D02*
D03*
X352500Y370000D02*
D03*
X350000Y365000D02*
D03*
X352500Y360000D02*
D03*
X350000Y355000D02*
D03*
X352500Y350000D02*
D03*
X350000Y345000D02*
D03*
X352500Y340000D02*
D03*
X350000Y335000D02*
D03*
X352500Y320000D02*
D03*
Y250000D02*
D03*
Y240000D02*
D03*
X350000Y235000D02*
D03*
X352500Y230000D02*
D03*
X350000Y225000D02*
D03*
X352500Y210000D02*
D03*
Y200000D02*
D03*
Y140000D02*
D03*
X350000Y135000D02*
D03*
X352500Y130000D02*
D03*
X350000Y125000D02*
D03*
X352500Y120000D02*
D03*
X345000Y495000D02*
D03*
X347500Y490000D02*
D03*
X345000Y485000D02*
D03*
X347500Y410000D02*
D03*
X345000Y405000D02*
D03*
X347500Y400000D02*
D03*
Y320000D02*
D03*
Y300000D02*
D03*
Y290000D02*
D03*
Y280000D02*
D03*
X345000Y255000D02*
D03*
X347500Y240000D02*
D03*
Y230000D02*
D03*
Y220000D02*
D03*
Y210000D02*
D03*
X345000Y205000D02*
D03*
X347500Y190000D02*
D03*
X345000Y105000D02*
D03*
X340000Y495000D02*
D03*
X342500Y490000D02*
D03*
X340000Y475000D02*
D03*
X342500Y470000D02*
D03*
X340000Y465000D02*
D03*
X342500Y460000D02*
D03*
X340000Y455000D02*
D03*
X342500Y450000D02*
D03*
X340000Y445000D02*
D03*
X342500Y440000D02*
D03*
X340000Y435000D02*
D03*
X342500Y430000D02*
D03*
Y420000D02*
D03*
Y410000D02*
D03*
Y390000D02*
D03*
X340000Y385000D02*
D03*
X342500Y380000D02*
D03*
X340000Y375000D02*
D03*
X342500Y370000D02*
D03*
X340000Y365000D02*
D03*
X342500Y360000D02*
D03*
X340000Y355000D02*
D03*
X342500Y350000D02*
D03*
X340000Y345000D02*
D03*
X342500Y340000D02*
D03*
X340000Y335000D02*
D03*
Y325000D02*
D03*
Y205000D02*
D03*
X342500Y200000D02*
D03*
Y190000D02*
D03*
X340000Y185000D02*
D03*
Y125000D02*
D03*
X335000Y495000D02*
D03*
Y485000D02*
D03*
X337500Y480000D02*
D03*
X335000Y475000D02*
D03*
X337500Y470000D02*
D03*
X335000Y465000D02*
D03*
X337500Y460000D02*
D03*
X335000Y455000D02*
D03*
X337500Y450000D02*
D03*
X335000Y445000D02*
D03*
X337500Y440000D02*
D03*
X335000Y435000D02*
D03*
Y385000D02*
D03*
X337500Y380000D02*
D03*
X335000Y375000D02*
D03*
X337500Y370000D02*
D03*
X335000Y365000D02*
D03*
X337500Y360000D02*
D03*
X335000Y355000D02*
D03*
X337500Y350000D02*
D03*
X335000Y345000D02*
D03*
X337500Y340000D02*
D03*
X335000Y335000D02*
D03*
X337500Y330000D02*
D03*
X335000Y325000D02*
D03*
Y255000D02*
D03*
X337500Y230000D02*
D03*
X335000Y205000D02*
D03*
X337500Y200000D02*
D03*
Y190000D02*
D03*
X335000Y135000D02*
D03*
X337500Y130000D02*
D03*
X335000Y125000D02*
D03*
X337500Y120000D02*
D03*
X335000Y115000D02*
D03*
Y105000D02*
D03*
X330000Y485000D02*
D03*
X332500Y480000D02*
D03*
X330000Y475000D02*
D03*
X332500Y470000D02*
D03*
X330000Y465000D02*
D03*
X332500Y460000D02*
D03*
X330000Y455000D02*
D03*
X332500Y450000D02*
D03*
X330000Y445000D02*
D03*
X332500Y440000D02*
D03*
X330000Y425000D02*
D03*
Y415000D02*
D03*
Y405000D02*
D03*
Y395000D02*
D03*
X332500Y380000D02*
D03*
X330000Y375000D02*
D03*
X332500Y370000D02*
D03*
X330000Y365000D02*
D03*
X332500Y360000D02*
D03*
X330000Y355000D02*
D03*
X332500Y350000D02*
D03*
X330000Y345000D02*
D03*
X332500Y340000D02*
D03*
X330000Y335000D02*
D03*
X332500Y330000D02*
D03*
X330000Y325000D02*
D03*
X327500Y490000D02*
D03*
X325000Y485000D02*
D03*
X327500Y480000D02*
D03*
X325000Y475000D02*
D03*
X327500Y470000D02*
D03*
X325000Y465000D02*
D03*
X327500Y460000D02*
D03*
X325000Y455000D02*
D03*
X327500Y450000D02*
D03*
X325000Y445000D02*
D03*
X327500Y430000D02*
D03*
X325000Y425000D02*
D03*
X327500Y420000D02*
D03*
X325000Y415000D02*
D03*
X327500Y410000D02*
D03*
X325000Y405000D02*
D03*
X327500Y400000D02*
D03*
X325000Y395000D02*
D03*
X327500Y390000D02*
D03*
X325000Y375000D02*
D03*
X327500Y370000D02*
D03*
X325000Y365000D02*
D03*
X327500Y360000D02*
D03*
X325000Y355000D02*
D03*
X327500Y350000D02*
D03*
X325000Y345000D02*
D03*
X327500Y340000D02*
D03*
X325000Y335000D02*
D03*
X327500Y330000D02*
D03*
X325000Y325000D02*
D03*
Y125000D02*
D03*
Y115000D02*
D03*
Y105000D02*
D03*
X322500Y490000D02*
D03*
X320000Y485000D02*
D03*
X322500Y480000D02*
D03*
X320000Y475000D02*
D03*
X322500Y470000D02*
D03*
X320000Y465000D02*
D03*
X322500Y460000D02*
D03*
Y450000D02*
D03*
Y430000D02*
D03*
X320000Y425000D02*
D03*
X322500Y420000D02*
D03*
X320000Y415000D02*
D03*
X322500Y410000D02*
D03*
X320000Y405000D02*
D03*
X322500Y400000D02*
D03*
X320000Y395000D02*
D03*
X322500Y390000D02*
D03*
X320000Y375000D02*
D03*
X322500Y370000D02*
D03*
X320000Y365000D02*
D03*
X322500Y360000D02*
D03*
X320000Y355000D02*
D03*
X322500Y350000D02*
D03*
X320000Y345000D02*
D03*
X322500Y340000D02*
D03*
X320000Y335000D02*
D03*
X322500Y330000D02*
D03*
X320000Y325000D02*
D03*
Y315000D02*
D03*
Y295000D02*
D03*
X322500Y130000D02*
D03*
X320000Y125000D02*
D03*
X322500Y120000D02*
D03*
X320000Y115000D02*
D03*
X322500Y110000D02*
D03*
X320000Y105000D02*
D03*
X317500Y490000D02*
D03*
X315000Y485000D02*
D03*
X317500Y480000D02*
D03*
X315000Y475000D02*
D03*
X317500Y470000D02*
D03*
Y430000D02*
D03*
X315000Y425000D02*
D03*
X317500Y420000D02*
D03*
X315000Y415000D02*
D03*
X317500Y410000D02*
D03*
X315000Y405000D02*
D03*
X317500Y400000D02*
D03*
X315000Y395000D02*
D03*
X317500Y390000D02*
D03*
X315000Y365000D02*
D03*
X317500Y360000D02*
D03*
X315000Y355000D02*
D03*
X317500Y350000D02*
D03*
X315000Y345000D02*
D03*
X317500Y340000D02*
D03*
X315000Y335000D02*
D03*
X317500Y330000D02*
D03*
X315000Y325000D02*
D03*
X317500Y320000D02*
D03*
X315000Y315000D02*
D03*
X317500Y310000D02*
D03*
X315000Y295000D02*
D03*
Y205000D02*
D03*
X317500Y190000D02*
D03*
Y130000D02*
D03*
X315000Y125000D02*
D03*
X317500Y120000D02*
D03*
X315000Y115000D02*
D03*
X317500Y110000D02*
D03*
X315000Y105000D02*
D03*
X312500Y490000D02*
D03*
X310000Y485000D02*
D03*
X312500Y480000D02*
D03*
X310000Y465000D02*
D03*
X312500Y460000D02*
D03*
X310000Y455000D02*
D03*
X312500Y450000D02*
D03*
X310000Y445000D02*
D03*
X312500Y430000D02*
D03*
X310000Y425000D02*
D03*
X312500Y420000D02*
D03*
X310000Y415000D02*
D03*
X312500Y410000D02*
D03*
X310000Y405000D02*
D03*
X312500Y400000D02*
D03*
X310000Y395000D02*
D03*
X312500Y390000D02*
D03*
X310000Y325000D02*
D03*
X312500Y320000D02*
D03*
X310000Y315000D02*
D03*
X312500Y310000D02*
D03*
Y240000D02*
D03*
Y230000D02*
D03*
Y220000D02*
D03*
X310000Y205000D02*
D03*
X312500Y200000D02*
D03*
X310000Y195000D02*
D03*
X312500Y130000D02*
D03*
X310000Y125000D02*
D03*
X312500Y120000D02*
D03*
X310000Y115000D02*
D03*
X312500Y110000D02*
D03*
X310000Y105000D02*
D03*
X307500Y490000D02*
D03*
X305000Y485000D02*
D03*
X307500Y480000D02*
D03*
Y470000D02*
D03*
X305000Y465000D02*
D03*
X307500Y460000D02*
D03*
X305000Y455000D02*
D03*
X307500Y450000D02*
D03*
Y430000D02*
D03*
X305000Y425000D02*
D03*
X307500Y420000D02*
D03*
X305000Y415000D02*
D03*
X307500Y410000D02*
D03*
X305000Y405000D02*
D03*
X307500Y400000D02*
D03*
X305000Y395000D02*
D03*
X307500Y390000D02*
D03*
Y370000D02*
D03*
X305000Y365000D02*
D03*
X307500Y360000D02*
D03*
X305000Y355000D02*
D03*
X307500Y350000D02*
D03*
X305000Y345000D02*
D03*
X307500Y340000D02*
D03*
X305000Y335000D02*
D03*
X307500Y320000D02*
D03*
X305000Y315000D02*
D03*
X307500Y310000D02*
D03*
Y240000D02*
D03*
Y230000D02*
D03*
Y220000D02*
D03*
X305000Y205000D02*
D03*
X307500Y200000D02*
D03*
X305000Y135000D02*
D03*
Y125000D02*
D03*
X307500Y120000D02*
D03*
X305000Y115000D02*
D03*
X307500Y110000D02*
D03*
X305000Y105000D02*
D03*
X302500Y490000D02*
D03*
X300000Y475000D02*
D03*
X302500Y470000D02*
D03*
X300000Y465000D02*
D03*
X302500Y460000D02*
D03*
X300000Y455000D02*
D03*
X302500Y430000D02*
D03*
X300000Y425000D02*
D03*
X302500Y420000D02*
D03*
X300000Y415000D02*
D03*
X302500Y410000D02*
D03*
X300000Y405000D02*
D03*
X302500Y400000D02*
D03*
X300000Y395000D02*
D03*
X302500Y390000D02*
D03*
X300000Y335000D02*
D03*
X302500Y330000D02*
D03*
Y310000D02*
D03*
X300000Y285000D02*
D03*
Y265000D02*
D03*
Y255000D02*
D03*
X302500Y240000D02*
D03*
Y230000D02*
D03*
Y220000D02*
D03*
X300000Y205000D02*
D03*
X302500Y200000D02*
D03*
X300000Y185000D02*
D03*
X302500Y120000D02*
D03*
X300000Y115000D02*
D03*
X302500Y110000D02*
D03*
X300000Y105000D02*
D03*
X297500Y490000D02*
D03*
Y480000D02*
D03*
X295000Y475000D02*
D03*
X297500Y470000D02*
D03*
X295000Y465000D02*
D03*
X297500Y460000D02*
D03*
Y450000D02*
D03*
Y430000D02*
D03*
X295000Y425000D02*
D03*
X297500Y420000D02*
D03*
X295000Y415000D02*
D03*
X297500Y410000D02*
D03*
X295000Y405000D02*
D03*
X297500Y400000D02*
D03*
X295000Y395000D02*
D03*
X297500Y390000D02*
D03*
X295000Y365000D02*
D03*
X297500Y360000D02*
D03*
X295000Y355000D02*
D03*
X297500Y350000D02*
D03*
X295000Y345000D02*
D03*
X297500Y330000D02*
D03*
X295000Y285000D02*
D03*
Y265000D02*
D03*
Y255000D02*
D03*
X297500Y240000D02*
D03*
Y230000D02*
D03*
Y220000D02*
D03*
X295000Y205000D02*
D03*
X297500Y200000D02*
D03*
Y190000D02*
D03*
X295000Y185000D02*
D03*
X297500Y120000D02*
D03*
X295000Y115000D02*
D03*
X297500Y110000D02*
D03*
X295000Y105000D02*
D03*
X290000Y485000D02*
D03*
X292500Y480000D02*
D03*
X290000Y475000D02*
D03*
X292500Y470000D02*
D03*
X290000Y465000D02*
D03*
Y445000D02*
D03*
X292500Y430000D02*
D03*
X290000Y425000D02*
D03*
X292500Y420000D02*
D03*
X290000Y415000D02*
D03*
X292500Y410000D02*
D03*
X290000Y405000D02*
D03*
X292500Y400000D02*
D03*
X290000Y395000D02*
D03*
X292500Y390000D02*
D03*
X290000Y375000D02*
D03*
X292500Y370000D02*
D03*
X290000Y365000D02*
D03*
X292500Y360000D02*
D03*
X290000Y355000D02*
D03*
X292500Y350000D02*
D03*
X290000Y345000D02*
D03*
X292500Y340000D02*
D03*
X290000Y295000D02*
D03*
Y285000D02*
D03*
Y265000D02*
D03*
Y255000D02*
D03*
X292500Y240000D02*
D03*
Y230000D02*
D03*
X290000Y205000D02*
D03*
Y195000D02*
D03*
X292500Y190000D02*
D03*
X290000Y185000D02*
D03*
X292500Y120000D02*
D03*
X290000Y115000D02*
D03*
X292500Y110000D02*
D03*
X290000Y105000D02*
D03*
X285000Y485000D02*
D03*
X287500Y480000D02*
D03*
X285000Y475000D02*
D03*
X287500Y470000D02*
D03*
Y460000D02*
D03*
Y450000D02*
D03*
X285000Y445000D02*
D03*
X287500Y440000D02*
D03*
X285000Y435000D02*
D03*
Y385000D02*
D03*
X287500Y380000D02*
D03*
X285000Y375000D02*
D03*
X287500Y370000D02*
D03*
X285000Y365000D02*
D03*
X287500Y360000D02*
D03*
X285000Y355000D02*
D03*
X287500Y350000D02*
D03*
X285000Y345000D02*
D03*
X287500Y340000D02*
D03*
X285000Y335000D02*
D03*
Y285000D02*
D03*
Y275000D02*
D03*
Y265000D02*
D03*
Y255000D02*
D03*
X287500Y240000D02*
D03*
X285000Y235000D02*
D03*
X287500Y230000D02*
D03*
Y210000D02*
D03*
X285000Y205000D02*
D03*
X287500Y120000D02*
D03*
X285000Y115000D02*
D03*
X287500Y110000D02*
D03*
X285000Y105000D02*
D03*
X280000Y485000D02*
D03*
X282500Y480000D02*
D03*
X280000Y475000D02*
D03*
Y455000D02*
D03*
X282500Y450000D02*
D03*
X280000Y445000D02*
D03*
X282500Y440000D02*
D03*
X280000Y435000D02*
D03*
Y385000D02*
D03*
X282500Y380000D02*
D03*
X280000Y375000D02*
D03*
X282500Y370000D02*
D03*
X280000Y365000D02*
D03*
X282500Y360000D02*
D03*
X280000Y355000D02*
D03*
X282500Y350000D02*
D03*
X280000Y345000D02*
D03*
X282500Y340000D02*
D03*
X280000Y335000D02*
D03*
X282500Y330000D02*
D03*
Y320000D02*
D03*
X280000Y285000D02*
D03*
Y275000D02*
D03*
Y265000D02*
D03*
Y255000D02*
D03*
X282500Y240000D02*
D03*
X280000Y235000D02*
D03*
Y215000D02*
D03*
X282500Y210000D02*
D03*
X280000Y205000D02*
D03*
X282500Y110000D02*
D03*
X280000Y105000D02*
D03*
X275000Y485000D02*
D03*
X277500Y480000D02*
D03*
Y470000D02*
D03*
Y460000D02*
D03*
X275000Y455000D02*
D03*
X277500Y450000D02*
D03*
X275000Y445000D02*
D03*
X277500Y440000D02*
D03*
X275000Y435000D02*
D03*
X277500Y430000D02*
D03*
X275000Y395000D02*
D03*
X277500Y390000D02*
D03*
X275000Y385000D02*
D03*
X277500Y380000D02*
D03*
X275000Y375000D02*
D03*
X277500Y370000D02*
D03*
X275000Y365000D02*
D03*
X277500Y360000D02*
D03*
X275000Y355000D02*
D03*
X277500Y350000D02*
D03*
X275000Y345000D02*
D03*
X277500Y340000D02*
D03*
X275000Y335000D02*
D03*
X277500Y330000D02*
D03*
Y320000D02*
D03*
Y310000D02*
D03*
X275000Y275000D02*
D03*
Y265000D02*
D03*
Y255000D02*
D03*
X277500Y240000D02*
D03*
Y220000D02*
D03*
X275000Y215000D02*
D03*
X277500Y210000D02*
D03*
X275000Y205000D02*
D03*
X277500Y120000D02*
D03*
Y110000D02*
D03*
X275000Y105000D02*
D03*
X270000Y485000D02*
D03*
Y465000D02*
D03*
X272500Y460000D02*
D03*
X270000Y455000D02*
D03*
X272500Y450000D02*
D03*
X270000Y445000D02*
D03*
X272500Y440000D02*
D03*
X270000Y435000D02*
D03*
X272500Y430000D02*
D03*
Y410000D02*
D03*
X270000Y405000D02*
D03*
X272500Y390000D02*
D03*
X270000Y385000D02*
D03*
X272500Y380000D02*
D03*
X270000Y375000D02*
D03*
X272500Y370000D02*
D03*
X270000Y365000D02*
D03*
X272500Y360000D02*
D03*
X270000Y355000D02*
D03*
X272500Y350000D02*
D03*
X270000Y345000D02*
D03*
X272500Y340000D02*
D03*
X270000Y335000D02*
D03*
X272500Y330000D02*
D03*
X270000Y315000D02*
D03*
Y305000D02*
D03*
Y295000D02*
D03*
Y225000D02*
D03*
X272500Y220000D02*
D03*
X270000Y215000D02*
D03*
X272500Y210000D02*
D03*
X270000Y205000D02*
D03*
X272500Y120000D02*
D03*
X270000Y115000D02*
D03*
X272500Y110000D02*
D03*
X270000Y105000D02*
D03*
X267500Y480000D02*
D03*
Y470000D02*
D03*
X265000Y465000D02*
D03*
X267500Y460000D02*
D03*
X265000Y455000D02*
D03*
X267500Y450000D02*
D03*
X265000Y445000D02*
D03*
X267500Y440000D02*
D03*
X265000Y435000D02*
D03*
X267500Y430000D02*
D03*
X265000Y425000D02*
D03*
X267500Y410000D02*
D03*
X265000Y405000D02*
D03*
Y385000D02*
D03*
X267500Y380000D02*
D03*
X265000Y375000D02*
D03*
X267500Y370000D02*
D03*
X265000Y365000D02*
D03*
X267500Y360000D02*
D03*
X265000Y355000D02*
D03*
X267500Y350000D02*
D03*
X265000Y345000D02*
D03*
X267500Y340000D02*
D03*
X265000Y335000D02*
D03*
X267500Y330000D02*
D03*
X265000Y315000D02*
D03*
Y305000D02*
D03*
Y295000D02*
D03*
X267500Y230000D02*
D03*
X265000Y225000D02*
D03*
X267500Y220000D02*
D03*
X265000Y215000D02*
D03*
X267500Y210000D02*
D03*
X265000Y205000D02*
D03*
X267500Y200000D02*
D03*
X265000Y185000D02*
D03*
X267500Y120000D02*
D03*
X265000Y115000D02*
D03*
X267500Y110000D02*
D03*
X265000Y105000D02*
D03*
X260000Y475000D02*
D03*
X262500Y470000D02*
D03*
X260000Y465000D02*
D03*
X262500Y460000D02*
D03*
X260000Y455000D02*
D03*
X262500Y450000D02*
D03*
X260000Y445000D02*
D03*
X262500Y440000D02*
D03*
X260000Y435000D02*
D03*
X262500Y430000D02*
D03*
X260000Y425000D02*
D03*
X262500Y410000D02*
D03*
X260000Y405000D02*
D03*
X262500Y400000D02*
D03*
X260000Y395000D02*
D03*
X262500Y380000D02*
D03*
X260000Y375000D02*
D03*
X262500Y370000D02*
D03*
X260000Y365000D02*
D03*
X262500Y360000D02*
D03*
X260000Y355000D02*
D03*
X262500Y350000D02*
D03*
X260000Y345000D02*
D03*
X262500Y340000D02*
D03*
X260000Y335000D02*
D03*
X262500Y330000D02*
D03*
X260000Y315000D02*
D03*
Y305000D02*
D03*
Y295000D02*
D03*
X262500Y230000D02*
D03*
X260000Y225000D02*
D03*
X262500Y220000D02*
D03*
X260000Y215000D02*
D03*
X262500Y210000D02*
D03*
X260000Y205000D02*
D03*
X262500Y120000D02*
D03*
X260000Y115000D02*
D03*
X262500Y110000D02*
D03*
X260000Y105000D02*
D03*
X257500Y480000D02*
D03*
X255000Y475000D02*
D03*
X257500Y470000D02*
D03*
X255000Y465000D02*
D03*
X257500Y460000D02*
D03*
X255000Y455000D02*
D03*
X257500Y450000D02*
D03*
X255000Y445000D02*
D03*
X257500Y440000D02*
D03*
X255000Y435000D02*
D03*
X257500Y430000D02*
D03*
X255000Y425000D02*
D03*
X257500Y410000D02*
D03*
X255000Y405000D02*
D03*
X257500Y400000D02*
D03*
X255000Y395000D02*
D03*
X257500Y370000D02*
D03*
Y360000D02*
D03*
Y350000D02*
D03*
Y340000D02*
D03*
Y330000D02*
D03*
X255000Y305000D02*
D03*
Y255000D02*
D03*
Y245000D02*
D03*
X257500Y240000D02*
D03*
X255000Y235000D02*
D03*
X257500Y220000D02*
D03*
X255000Y215000D02*
D03*
X257500Y210000D02*
D03*
X255000Y205000D02*
D03*
X257500Y200000D02*
D03*
X255000Y195000D02*
D03*
X257500Y120000D02*
D03*
X255000Y115000D02*
D03*
X257500Y110000D02*
D03*
X255000Y105000D02*
D03*
X252500Y480000D02*
D03*
X250000Y475000D02*
D03*
X252500Y470000D02*
D03*
X250000Y465000D02*
D03*
X252500Y460000D02*
D03*
X250000Y455000D02*
D03*
X252500Y450000D02*
D03*
X250000Y445000D02*
D03*
X252500Y440000D02*
D03*
X250000Y435000D02*
D03*
X252500Y430000D02*
D03*
X250000Y425000D02*
D03*
X252500Y410000D02*
D03*
X250000Y405000D02*
D03*
X252500Y400000D02*
D03*
X250000Y395000D02*
D03*
X252500Y390000D02*
D03*
X250000Y385000D02*
D03*
Y375000D02*
D03*
Y365000D02*
D03*
Y355000D02*
D03*
Y345000D02*
D03*
Y335000D02*
D03*
Y305000D02*
D03*
Y285000D02*
D03*
Y255000D02*
D03*
Y245000D02*
D03*
X252500Y240000D02*
D03*
Y220000D02*
D03*
X250000Y215000D02*
D03*
X252500Y210000D02*
D03*
X250000Y205000D02*
D03*
X252500Y200000D02*
D03*
Y120000D02*
D03*
X247500Y480000D02*
D03*
X245000Y475000D02*
D03*
X247500Y470000D02*
D03*
X245000Y465000D02*
D03*
X247500Y460000D02*
D03*
X245000Y455000D02*
D03*
X247500Y450000D02*
D03*
X245000Y445000D02*
D03*
X247500Y440000D02*
D03*
X245000Y435000D02*
D03*
X247500Y430000D02*
D03*
X245000Y425000D02*
D03*
X247500Y410000D02*
D03*
X245000Y405000D02*
D03*
X247500Y400000D02*
D03*
X245000Y395000D02*
D03*
X247500Y390000D02*
D03*
X245000Y385000D02*
D03*
X247500Y370000D02*
D03*
X245000Y365000D02*
D03*
X247500Y360000D02*
D03*
X245000Y355000D02*
D03*
X247500Y350000D02*
D03*
X245000Y345000D02*
D03*
X247500Y340000D02*
D03*
X245000Y335000D02*
D03*
X247500Y330000D02*
D03*
X245000Y285000D02*
D03*
X247500Y210000D02*
D03*
X245000Y205000D02*
D03*
X247500Y200000D02*
D03*
X245000Y105000D02*
D03*
X242500Y470000D02*
D03*
X240000Y465000D02*
D03*
X242500Y460000D02*
D03*
X240000Y455000D02*
D03*
X242500Y450000D02*
D03*
X240000Y445000D02*
D03*
X242500Y440000D02*
D03*
X240000Y435000D02*
D03*
X242500Y430000D02*
D03*
X240000Y425000D02*
D03*
X242500Y410000D02*
D03*
X240000Y405000D02*
D03*
X242500Y400000D02*
D03*
X240000Y395000D02*
D03*
X242500Y390000D02*
D03*
X240000Y385000D02*
D03*
X242500Y380000D02*
D03*
X240000Y375000D02*
D03*
X242500Y370000D02*
D03*
X240000Y365000D02*
D03*
X242500Y360000D02*
D03*
X240000Y355000D02*
D03*
X242500Y350000D02*
D03*
X240000Y345000D02*
D03*
X242500Y340000D02*
D03*
X240000Y335000D02*
D03*
X242500Y330000D02*
D03*
X240000Y295000D02*
D03*
Y285000D02*
D03*
X242500Y230000D02*
D03*
Y220000D02*
D03*
Y210000D02*
D03*
X240000Y205000D02*
D03*
X242500Y200000D02*
D03*
Y190000D02*
D03*
Y120000D02*
D03*
X237500Y470000D02*
D03*
X235000Y465000D02*
D03*
X237500Y460000D02*
D03*
X235000Y455000D02*
D03*
X237500Y450000D02*
D03*
X235000Y445000D02*
D03*
X237500Y440000D02*
D03*
X235000Y435000D02*
D03*
X237500Y430000D02*
D03*
X235000Y425000D02*
D03*
X237500Y410000D02*
D03*
X235000Y405000D02*
D03*
X237500Y400000D02*
D03*
Y390000D02*
D03*
Y380000D02*
D03*
Y360000D02*
D03*
Y350000D02*
D03*
Y340000D02*
D03*
Y330000D02*
D03*
X235000Y295000D02*
D03*
Y285000D02*
D03*
X237500Y240000D02*
D03*
X235000Y215000D02*
D03*
X237500Y200000D02*
D03*
X235000Y195000D02*
D03*
X237500Y120000D02*
D03*
X235000Y115000D02*
D03*
Y105000D02*
D03*
X232500Y460000D02*
D03*
Y450000D02*
D03*
Y440000D02*
D03*
Y430000D02*
D03*
Y410000D02*
D03*
Y370000D02*
D03*
X230000Y305000D02*
D03*
Y295000D02*
D03*
Y285000D02*
D03*
X232500Y260000D02*
D03*
Y250000D02*
D03*
X230000Y245000D02*
D03*
X232500Y240000D02*
D03*
X230000Y215000D02*
D03*
X232500Y210000D02*
D03*
Y200000D02*
D03*
X230000Y195000D02*
D03*
X225000Y475000D02*
D03*
X227500Y210000D02*
D03*
Y200000D02*
D03*
X225000Y115000D02*
D03*
Y105000D02*
D03*
X220000Y475000D02*
D03*
Y225000D02*
D03*
X222500Y210000D02*
D03*
Y200000D02*
D03*
X220000Y125000D02*
D03*
X222500Y120000D02*
D03*
X220000Y115000D02*
D03*
X222500Y110000D02*
D03*
X220000Y105000D02*
D03*
X215000Y245000D02*
D03*
Y135000D02*
D03*
X217500Y120000D02*
D03*
X215000Y115000D02*
D03*
X217500Y110000D02*
D03*
X215000Y105000D02*
D03*
X212500Y450000D02*
D03*
Y440000D02*
D03*
Y430000D02*
D03*
Y390000D02*
D03*
Y380000D02*
D03*
Y370000D02*
D03*
Y360000D02*
D03*
Y350000D02*
D03*
Y340000D02*
D03*
Y290000D02*
D03*
X210000Y135000D02*
D03*
X212500Y130000D02*
D03*
Y120000D02*
D03*
X210000Y115000D02*
D03*
X212500Y110000D02*
D03*
X210000Y105000D02*
D03*
X207500Y240000D02*
D03*
X205000Y145000D02*
D03*
X207500Y140000D02*
D03*
X205000Y135000D02*
D03*
Y125000D02*
D03*
X207500Y110000D02*
D03*
X205000Y105000D02*
D03*
X202500Y140000D02*
D03*
Y120000D02*
D03*
Y110000D02*
D03*
X200000Y105000D02*
D03*
X195000Y475000D02*
D03*
Y455000D02*
D03*
X197500Y450000D02*
D03*
X195000Y445000D02*
D03*
X197500Y440000D02*
D03*
X195000Y435000D02*
D03*
X197500Y430000D02*
D03*
X195000Y425000D02*
D03*
X197500Y420000D02*
D03*
X195000Y415000D02*
D03*
X197500Y410000D02*
D03*
X195000Y405000D02*
D03*
X197500Y400000D02*
D03*
X195000Y375000D02*
D03*
X197500Y370000D02*
D03*
Y120000D02*
D03*
X195000Y115000D02*
D03*
X192500Y220000D02*
D03*
Y110000D02*
D03*
X187500Y220000D02*
D03*
X185000Y215000D02*
D03*
X187500Y110000D02*
D03*
X180000Y485000D02*
D03*
X182500Y110000D02*
D03*
X175000Y485000D02*
D03*
X177500Y480000D02*
D03*
X175000Y475000D02*
D03*
X177500Y240000D02*
D03*
Y110000D02*
D03*
X170000Y485000D02*
D03*
X172500Y480000D02*
D03*
X170000Y475000D02*
D03*
Y315000D02*
D03*
Y305000D02*
D03*
Y295000D02*
D03*
Y285000D02*
D03*
Y275000D02*
D03*
Y265000D02*
D03*
X172500Y240000D02*
D03*
X170000Y235000D02*
D03*
X172500Y110000D02*
D03*
X165000Y485000D02*
D03*
X167500Y480000D02*
D03*
X165000Y475000D02*
D03*
X167500Y470000D02*
D03*
X165000Y465000D02*
D03*
X167500Y460000D02*
D03*
X165000Y455000D02*
D03*
X167500Y450000D02*
D03*
X165000Y445000D02*
D03*
X167500Y440000D02*
D03*
X165000Y435000D02*
D03*
X167500Y430000D02*
D03*
X165000Y405000D02*
D03*
X167500Y400000D02*
D03*
X165000Y375000D02*
D03*
X167500Y370000D02*
D03*
X165000Y365000D02*
D03*
X167500Y360000D02*
D03*
X165000Y355000D02*
D03*
X167500Y330000D02*
D03*
Y320000D02*
D03*
X165000Y315000D02*
D03*
X167500Y310000D02*
D03*
X165000Y305000D02*
D03*
X167500Y300000D02*
D03*
X165000Y295000D02*
D03*
X167500Y290000D02*
D03*
X165000Y285000D02*
D03*
X167500Y280000D02*
D03*
X165000Y275000D02*
D03*
X167500Y270000D02*
D03*
X165000Y265000D02*
D03*
X167500Y240000D02*
D03*
X165000Y195000D02*
D03*
Y125000D02*
D03*
X167500Y120000D02*
D03*
X165000Y115000D02*
D03*
X167500Y110000D02*
D03*
X160000Y485000D02*
D03*
X162500Y480000D02*
D03*
X160000Y475000D02*
D03*
X162500Y470000D02*
D03*
X160000Y465000D02*
D03*
X162500Y460000D02*
D03*
X160000Y455000D02*
D03*
X162500Y450000D02*
D03*
X160000Y445000D02*
D03*
X162500Y440000D02*
D03*
X160000Y435000D02*
D03*
Y425000D02*
D03*
Y415000D02*
D03*
X162500Y410000D02*
D03*
X160000Y405000D02*
D03*
Y395000D02*
D03*
Y385000D02*
D03*
X162500Y380000D02*
D03*
X160000Y375000D02*
D03*
X162500Y370000D02*
D03*
X160000Y365000D02*
D03*
X162500Y360000D02*
D03*
X160000Y355000D02*
D03*
X162500Y330000D02*
D03*
Y320000D02*
D03*
X160000Y315000D02*
D03*
X162500Y310000D02*
D03*
X160000Y305000D02*
D03*
X162500Y300000D02*
D03*
X160000Y295000D02*
D03*
X162500Y290000D02*
D03*
X160000Y285000D02*
D03*
X162500Y280000D02*
D03*
X160000Y275000D02*
D03*
X162500Y270000D02*
D03*
X160000Y265000D02*
D03*
X162500Y260000D02*
D03*
X160000Y255000D02*
D03*
Y135000D02*
D03*
X162500Y130000D02*
D03*
X160000Y125000D02*
D03*
X162500Y120000D02*
D03*
X160000Y115000D02*
D03*
X162500Y110000D02*
D03*
X157500Y470000D02*
D03*
Y460000D02*
D03*
Y450000D02*
D03*
Y440000D02*
D03*
Y410000D02*
D03*
Y380000D02*
D03*
Y370000D02*
D03*
Y360000D02*
D03*
Y330000D02*
D03*
Y320000D02*
D03*
Y310000D02*
D03*
Y300000D02*
D03*
Y290000D02*
D03*
Y280000D02*
D03*
Y270000D02*
D03*
Y260000D02*
D03*
Y140000D02*
D03*
X155000Y135000D02*
D03*
X157500Y130000D02*
D03*
X155000Y125000D02*
D03*
X157500Y110000D02*
D03*
X150000Y475000D02*
D03*
Y465000D02*
D03*
Y455000D02*
D03*
Y445000D02*
D03*
Y435000D02*
D03*
X152500Y430000D02*
D03*
X150000Y425000D02*
D03*
X152500Y420000D02*
D03*
X150000Y415000D02*
D03*
X152500Y410000D02*
D03*
X150000Y405000D02*
D03*
X152500Y400000D02*
D03*
X150000Y395000D02*
D03*
X152500Y390000D02*
D03*
X150000Y385000D02*
D03*
X152500Y380000D02*
D03*
X150000Y375000D02*
D03*
X152500Y370000D02*
D03*
X150000Y365000D02*
D03*
X152500Y360000D02*
D03*
X150000Y355000D02*
D03*
Y335000D02*
D03*
X152500Y330000D02*
D03*
X150000Y325000D02*
D03*
Y315000D02*
D03*
Y305000D02*
D03*
Y295000D02*
D03*
X152500Y290000D02*
D03*
X150000Y285000D02*
D03*
Y275000D02*
D03*
Y265000D02*
D03*
X152500Y210000D02*
D03*
X150000Y145000D02*
D03*
X152500Y140000D02*
D03*
X150000Y135000D02*
D03*
X152500Y130000D02*
D03*
X150000Y125000D02*
D03*
Y115000D02*
D03*
X145000Y495000D02*
D03*
X147500Y430000D02*
D03*
X145000Y425000D02*
D03*
X147500Y420000D02*
D03*
X145000Y415000D02*
D03*
X147500Y410000D02*
D03*
X145000Y405000D02*
D03*
X147500Y400000D02*
D03*
X145000Y395000D02*
D03*
X147500Y390000D02*
D03*
X145000Y385000D02*
D03*
X147500Y380000D02*
D03*
X145000Y375000D02*
D03*
X147500Y370000D02*
D03*
Y360000D02*
D03*
Y330000D02*
D03*
X145000Y295000D02*
D03*
X147500Y290000D02*
D03*
X145000Y285000D02*
D03*
Y145000D02*
D03*
X147500Y140000D02*
D03*
X145000Y135000D02*
D03*
X147500Y130000D02*
D03*
X145000Y115000D02*
D03*
X140000Y495000D02*
D03*
Y455000D02*
D03*
Y445000D02*
D03*
Y435000D02*
D03*
Y425000D02*
D03*
X142500Y420000D02*
D03*
X140000Y415000D02*
D03*
X142500Y410000D02*
D03*
X140000Y405000D02*
D03*
X142500Y400000D02*
D03*
X140000Y395000D02*
D03*
X142500Y390000D02*
D03*
X140000Y385000D02*
D03*
X142500Y380000D02*
D03*
X140000Y365000D02*
D03*
Y355000D02*
D03*
Y335000D02*
D03*
Y325000D02*
D03*
X142500Y300000D02*
D03*
Y290000D02*
D03*
Y280000D02*
D03*
X140000Y245000D02*
D03*
Y235000D02*
D03*
X142500Y200000D02*
D03*
Y180000D02*
D03*
X140000Y145000D02*
D03*
X142500Y140000D02*
D03*
X140000Y135000D02*
D03*
Y125000D02*
D03*
Y115000D02*
D03*
X142500Y110000D02*
D03*
X140000Y105000D02*
D03*
X135000Y495000D02*
D03*
X137500Y490000D02*
D03*
Y420000D02*
D03*
X135000Y415000D02*
D03*
X137500Y410000D02*
D03*
X135000Y405000D02*
D03*
X137500Y400000D02*
D03*
X135000Y395000D02*
D03*
X137500Y390000D02*
D03*
X135000Y385000D02*
D03*
Y375000D02*
D03*
X137500Y370000D02*
D03*
X135000Y365000D02*
D03*
X137500Y360000D02*
D03*
X135000Y165000D02*
D03*
X137500Y160000D02*
D03*
Y150000D02*
D03*
X135000Y145000D02*
D03*
X137500Y140000D02*
D03*
Y110000D02*
D03*
X135000Y105000D02*
D03*
X132500Y450000D02*
D03*
Y440000D02*
D03*
Y430000D02*
D03*
Y420000D02*
D03*
X130000Y415000D02*
D03*
X132500Y410000D02*
D03*
X130000Y405000D02*
D03*
X132500Y400000D02*
D03*
X130000Y395000D02*
D03*
X132500Y390000D02*
D03*
X130000Y375000D02*
D03*
X132500Y370000D02*
D03*
X130000Y365000D02*
D03*
X132500Y360000D02*
D03*
X130000Y335000D02*
D03*
X132500Y330000D02*
D03*
Y310000D02*
D03*
X130000Y305000D02*
D03*
X132500Y300000D02*
D03*
X130000Y295000D02*
D03*
X132500Y290000D02*
D03*
X130000Y285000D02*
D03*
X132500Y280000D02*
D03*
Y230000D02*
D03*
X130000Y195000D02*
D03*
X132500Y190000D02*
D03*
X130000Y165000D02*
D03*
X132500Y160000D02*
D03*
X130000Y155000D02*
D03*
X132500Y150000D02*
D03*
X130000Y145000D02*
D03*
X127500Y440000D02*
D03*
Y430000D02*
D03*
Y420000D02*
D03*
Y410000D02*
D03*
Y400000D02*
D03*
Y380000D02*
D03*
Y370000D02*
D03*
Y340000D02*
D03*
X125000Y325000D02*
D03*
X127500Y310000D02*
D03*
X125000Y305000D02*
D03*
X127500Y300000D02*
D03*
Y280000D02*
D03*
Y260000D02*
D03*
Y250000D02*
D03*
X125000Y225000D02*
D03*
X127500Y220000D02*
D03*
X125000Y215000D02*
D03*
X127500Y210000D02*
D03*
X125000Y205000D02*
D03*
X127500Y200000D02*
D03*
Y190000D02*
D03*
Y180000D02*
D03*
X125000Y165000D02*
D03*
X127500Y160000D02*
D03*
X125000Y155000D02*
D03*
X127500Y150000D02*
D03*
X122500Y460000D02*
D03*
Y440000D02*
D03*
Y430000D02*
D03*
Y420000D02*
D03*
X120000Y325000D02*
D03*
Y295000D02*
D03*
Y245000D02*
D03*
Y225000D02*
D03*
X122500Y220000D02*
D03*
Y210000D02*
D03*
Y200000D02*
D03*
Y180000D02*
D03*
Y160000D02*
D03*
X120000Y145000D02*
D03*
X122500Y140000D02*
D03*
X117500Y460000D02*
D03*
Y450000D02*
D03*
Y440000D02*
D03*
Y430000D02*
D03*
Y420000D02*
D03*
X115000Y325000D02*
D03*
Y305000D02*
D03*
Y295000D02*
D03*
Y275000D02*
D03*
Y255000D02*
D03*
X117500Y250000D02*
D03*
X115000Y245000D02*
D03*
X117500Y230000D02*
D03*
X115000Y225000D02*
D03*
X117500Y190000D02*
D03*
X115000Y185000D02*
D03*
X117500Y180000D02*
D03*
Y170000D02*
D03*
X115000Y145000D02*
D03*
X117500Y140000D02*
D03*
X112500Y460000D02*
D03*
X110000Y455000D02*
D03*
X112500Y450000D02*
D03*
X110000Y445000D02*
D03*
X112500Y440000D02*
D03*
Y430000D02*
D03*
Y420000D02*
D03*
X110000Y415000D02*
D03*
X112500Y410000D02*
D03*
X110000Y405000D02*
D03*
X112500Y400000D02*
D03*
X110000Y395000D02*
D03*
X112500Y390000D02*
D03*
X110000Y385000D02*
D03*
X112500Y380000D02*
D03*
X110000Y375000D02*
D03*
X112500Y370000D02*
D03*
X110000Y365000D02*
D03*
X112500Y360000D02*
D03*
X110000Y355000D02*
D03*
X112500Y350000D02*
D03*
X110000Y345000D02*
D03*
X112500Y340000D02*
D03*
X110000Y335000D02*
D03*
X112500Y330000D02*
D03*
X110000Y325000D02*
D03*
Y315000D02*
D03*
X112500Y310000D02*
D03*
X110000Y305000D02*
D03*
X112500Y300000D02*
D03*
X110000Y275000D02*
D03*
Y265000D02*
D03*
X112500Y260000D02*
D03*
X110000Y255000D02*
D03*
X112500Y250000D02*
D03*
X110000Y245000D02*
D03*
Y235000D02*
D03*
X112500Y230000D02*
D03*
X110000Y225000D02*
D03*
Y215000D02*
D03*
X112500Y190000D02*
D03*
X110000Y185000D02*
D03*
X112500Y180000D02*
D03*
Y170000D02*
D03*
X110000Y155000D02*
D03*
X112500Y150000D02*
D03*
X105000Y465000D02*
D03*
X107500Y460000D02*
D03*
X105000Y455000D02*
D03*
X107500Y450000D02*
D03*
X105000Y445000D02*
D03*
X107500Y440000D02*
D03*
X105000Y435000D02*
D03*
Y285000D02*
D03*
X107500Y280000D02*
D03*
X105000Y275000D02*
D03*
X107500Y270000D02*
D03*
X105000Y265000D02*
D03*
X107500Y260000D02*
D03*
X105000Y255000D02*
D03*
X107500Y250000D02*
D03*
X105000Y245000D02*
D03*
X107500Y240000D02*
D03*
X105000Y235000D02*
D03*
X107500Y230000D02*
D03*
X105000Y225000D02*
D03*
X107500Y220000D02*
D03*
X105000Y215000D02*
D03*
X107500Y210000D02*
D03*
X105000Y205000D02*
D03*
X107500Y200000D02*
D03*
X105000Y195000D02*
D03*
X107500Y190000D02*
D03*
X105000Y185000D02*
D03*
X107500Y180000D02*
D03*
X105000Y175000D02*
D03*
Y155000D02*
D03*
X107500Y150000D02*
D03*
X105000Y145000D02*
D03*
Y135000D02*
D03*
M02*
