M48
;Layer_Color=9474304
;FILE_FORMAT=2:4
INCH,TZ
;TYPE=PLATED
T01F00S00C0.0118
T02F00S00C0.0197
T03F00S00C0.0276
T04F00S00C0.0354
T05F00S00C0.0400
T06F00S00C0.0402
T07F00S00C0.1772
%
T01
X13500Y10500
X14000
X14500Y10600
X14250Y11000
X13750
X14000Y11500
X14500
X15000
Y12500
X15500
X15250Y13000
X14750
X15000Y13500
X15500
X15250Y14000
X14750
X14250
X13750
X14000Y14500
X14500
X15000
X14500Y13500
X14000
Y12500
X13500Y14500
X13000
X13250Y15000
X13750
X12750
X13000Y15500
X12500
X12000Y14500
X11500
X11750Y14000
X12250
X11250Y15000
X10750
X11000Y15500
X10500
Y14500
Y13500
X16000
X16250Y13000
X15750
X16000Y12500
X16500
X16750Y12000
X16250
X16500Y11500
X16000
X16250Y11000
X16750
X17250
X17750
X18250
X18750
X19250
X19500Y11500
X19750Y12000
X20250
X20500Y12500
Y13500
X21000
X21500
X21250Y13000
Y12000
X21750
X22250
X22500Y11500
X22000
X21500
X21000
X21250Y11000
X21750
X22250
X22500Y10500
X22000
X21500
X21000
X20500
X20000
X20250Y11000
X20750
X22000Y12500
X23750Y12000
X24250
X25250
X25750
X26250
X26750
X27250
X27750
X28750
X29250
X29750
X30250
X30750
X31000Y12500
X30500
Y13500
Y11500
X31000
X30750Y11000
X30250
X29750
X29250
X28750
X28250
X27750
X27250
X26750
X26250
X25750
X26000Y11500
X26500
X27000
Y10500
X27500
X28000
X28500
X29000
X29500
X30000
X30500
X31000
X30000Y11500
X29500
X29000
X28500
X26500Y10500
X26000
X25500
Y11500
X24500Y10500
X23500
Y11500
X23300Y15400
X24450Y14950
X26900Y15500
X28700Y14400
X20500Y14500
X20750Y14000
X20250
X15750
Y11000
X31250
X31750
X32250
X32500Y11500
X32000
X31500
X31750Y12000
X32250
X32500Y12500
X32000
X31500
X31750Y13000
X32250
X31250
Y12000
X31500Y10500
X32000
X32500
X33500
X34500
X35500
X36000
X36500
X36250Y11000
X35750
X36000Y11500
X35500
X35750Y12000
X35250
X35500Y12500
X36000
X36250Y13000
X35750
X35250
X35500Y13500
X36000
X36500
X36250Y14000
X35750
X35250
X35000Y13500
Y12500
X34000
X33500
X33750Y13000
X33500Y13500
X33750Y12000
X33500Y11500
X34450Y15450
X36250Y15000
X36750
X37250
X37750
X38250
X38500Y15500
X38000
Y14500
X38500
X38750Y14000
X39250
X39750
X39500Y14500
X39750Y15000
X39500Y15500
Y13500
X39750Y13000
X38250Y14000
X37750
X37250
X37500Y14500
X36500
X36000
X31950Y14950
X32300Y16500
X31950Y17450
X32600Y17900
X34450Y17950
X34000Y18500
X34250Y19000
X34750
X33750
X33700Y19400
X33750Y20000
X34250
X34500Y20500
X34000
X33500
X34750Y21000
X35250
X36250
X36000Y20500
X35250Y20000
X36500Y19500
X37226Y18626
X37174Y20626
X38250Y20000
X38750
X38500Y19500
X39750Y20000
X39500Y20500
X39750Y21000
X39250
X39500Y21500
X39000
X38500
X38750Y22000
X39250
X39750
X39500Y22500
X39750Y23000
X39300Y23100
X38750Y23000
X37750
X37250
X36750
X37000Y23500
X37250Y24000
X37100Y24300
X36500Y24500
X36000
X36250Y25000
X35750
X35250
X35500Y25500
X34500
X33500
X33361Y24903
X34750Y24000
X35250
X35000Y23500
X35250Y23000
X34750
X35000Y22500
X34750Y22000
X36750
X37000Y22500
X37744Y22244
X37750Y25000
X38250
X38750
X39000Y25500
X39500
X39750Y26000
X39250
X39500Y26500
X39750Y27000
X39250
X39500Y27500
X39750Y28000
X39250
X39500Y28500
X39750Y29000
X39250
X39500Y29500
X39750Y30000
X39250
X39500Y30500
X39750Y31000
X39250
X38250
X37750
X37250
X36750
X37000Y30500
X37500
X38000
X35750Y31000
Y29000
X34750
Y30000
X33361Y29903
Y28903
Y27903
X34750Y28000
X32000Y29500
X31500
X31750Y31000
X31250
X33361Y30903
X33750Y23000
X31250
Y24000
Y22000
X31500Y21300
Y20500
X31250Y20000
X31800Y19400
X31750Y19000
X34450Y16950
Y16450
X35600Y16300
X37250Y16000
X38000Y16500
X38500
X39500
X39750Y17000
X39500Y17500
X39750Y18000
Y19000
Y16000
Y24000
X39500Y24500
X39750Y25000
X38500Y25500
X38000
X37500
X37000
X37250Y25000
X38800Y24000
X30750
X30250
X29750
X29250
X28750
X28250
X27750
X28000Y23500
X28500
X28750Y23000
X29250
X29750
X30250
X30750
Y22000
X30250
X29750
X30000Y20500
X30500
X31000
X30750Y20000
X30250
X29750
X30000Y19700
X29750Y19000
X29250
X29500Y18500
X30000
X29000
Y19500
Y20500
X29500
X28500
X28000
X27500
X27000
X26500
X26000
X25500
X25000
X24500
X24000
X24250Y21000
X24750
X25250
X25750
X26250
X26750
X27250
X27750
X28250
X28750
X28000Y21500
X27500
X27000
X26500
X26000
X25500
X25000
X25250Y22000
X25750
X26250
X26750
X27250
X27750
X27000Y22500
X26500
X26000
X26250Y23000
X26750
X25500Y23500
X25750Y24000
X25250
X25500Y24500
X25000
Y25500
X25500
X27500
X28000
X28500
X29000
X29500
X30000
Y26500
X29500
X29000
X28500
X28000
X27500
Y27500
X28000
X28500
Y28500
X29000
X29500
X30000
X29000Y29500
X29500Y30900
X29900
X30250Y31000
X30750
X27750
X27000Y30500
X26500
X26000
X25500
X25000
X26000Y29500
X26500
X27000
X26500Y28400
X28000Y28500
X25000
X24500
X24000
X23500
X23000
Y29500
X23500
X24000
X23000Y30500
X21250Y29000
X19700Y29300
Y30000
X19400Y30700
X17000Y30500
X16500
X16000
X16250Y31000
X16750
Y30000
X16250
X15750
X16000Y29500
X16500
X17000
X16750Y29000
X16250
X15750
X16000Y28500
X16500
X17000
X16750Y28000
X16250
X15750
X16000Y27500
X16500
X17000
X16750Y27000
X16250
X15750
X16000Y26500
X16500
X17000
X17700Y26400
Y27400
Y25400
X17750Y24000
X17250
X16750
X17000Y23500
X18400Y24100
Y24400
X18800
X20750Y24000
X20600Y23000
X20200
Y22600
X20600
X22000Y22500
X22250Y21000
X22750
X23250
X23500Y21500
X23000
X24250Y22000
Y23000
X23750Y24000
X23250
X23000Y24500
X23250Y25000
Y26000
X21500Y24500
X19250Y22000
X18750
X18500Y21500
X16500Y19500
X16600Y15900
X16902Y15902
X18082Y15902
X18400Y15900
X18700Y16300
X20000Y15700
X20800Y16400
X21387Y15913
X21800Y15765
X23300Y16500
Y17000
Y18000
X24400Y17500
X24250Y19000
Y20000
X24750
X25250
X25750
X25500Y19500
X26000Y19100
X26500Y18500
X26900Y18400
X26950Y17950
Y16950
Y16450
X28674Y16326
X28000Y19700
X26750Y20000
X23750
X23250
X22750
X22250
X23000Y19500
X23500
X31000
Y21300
X16000Y25500
X16250Y26000
X15750
Y31000
X15000Y30500
Y29500
X14500
X14750Y29000
X15250
X15000Y28500
X14500
X14250Y29000
Y30000
X13250
X12750
X13000Y30500
X12500
X12750Y31000
X13250
X13000Y29500
X13250Y29000
X13000Y28500
X13250Y28000
X12750
X14250
X15000Y27500
Y26500
X14700Y24500
X14000
Y24900
X13600Y25300
X13200
X12750Y25000
Y26000
X12400Y26200
X11250Y26000
X10750
X11000Y26500
X10500
X10750Y27000
X11000Y27500
X11500
X10500
X10750Y28000
X10500Y28500
X11500Y29500
X12000
X11250Y30000
X11500Y30500
X11000
X11250Y31000
X11500Y25500
X11000
X10500
X10750Y25000
X11250
X11750
X12000Y24500
X11500
X11000
X10500
X10750Y24000
X11000Y23500
X10500
X10750Y23000
X11250
X11750
X12000Y22500
X12500
X12750Y22000
X12250
X12500Y21500
X12750Y21000
X12250
X12500Y20500
X12750Y20000
X12250
X13000Y19500
X13250Y19000
X12750
Y18000
X12250
X11750
X11250
X10750
X11000Y18500
X11500
X11750Y19000
X11250
X10750
X10500Y19500
X10750Y20000
X10500Y20500
X10750Y21000
X11000Y21500
X10500
X10750Y22000
X11000Y22500
X11500
X10500
X13250Y23000
X13700Y22700
X14000Y23500
X15250Y21000
X14250Y20000
X14800Y19000
Y18700
X14250Y18000
X14300Y16600
Y16200
X13750Y16000
X13250
X12750
X12250
X12500Y16500
X13000
X13500
X11750Y17000
X11250
X10500Y17500
Y18500
X11000Y31500
Y32500
X11500
X12000
X12500
X13250Y33000
X13000Y33500
X12750Y34000
X11250
X11000Y34500
X11250Y35000
X11000Y35500
X11250Y36000
X11000Y36500
X11250Y37000
X11000Y37500
X11250Y38000
X11000Y38500
X11250Y39000
X11000Y39500
X11250Y40000
X11000Y40500
X11250Y41000
X11000Y41500
X11250Y42000
X11750
X12250
X12750
X13250
X13750
X14250
X14750
X15250
X15000Y42500
X14500
X14000
Y43500
X15000
X15250Y43000
X14750
X13250
X12750
X12250
X11750
X11250
X11300Y43500
X11250Y44000
X11750
X12250
X12750
X13250
Y45000
X14000Y45500
X15000
Y46500
Y44500
X14000
X11350
X11000
X10500
X10750Y45000
X11250
X11750
X11350Y45500
X11000Y45500
X10500
X10750Y46000
X11250
X11750
X12250
X10500Y46500
X10750Y44000
X10500Y43500
X11200Y42500
X13000Y41500
X13500
X14000
X14500
X15000
X15250Y41000
X14750
X14250
X13750
X13250
X12750
X13000Y40500
X13500
X14000
X14500
X15000
X15250Y40000
X14750
X14250
X13750
X13250
X12750
X13000Y39500
X13500
X14000
X14500
X15000
X15250Y39000
X14750
X14250
X13750
X13250
X13500Y38500
X14000
X14500
X15000
X15250Y38000
X14750
X14250
X14500Y37500
X15000
X15250Y37000
X14750
X15000Y36500
X15250Y36000
X14750
X15000Y35500
X14000
X13750Y36000
X13250
X13500Y36500
X14000
X13750Y37000
X13250
X12750
X13000Y37500
X13500
X12750Y38000
X13000Y36500
X14000Y33500
X15000
X15250Y33000
X14750
X15000Y32500
Y31500
X14000Y32500
X13100Y31600
X11250Y33000
X11000Y33500
X15750Y33000
X16250
X16750
Y32000
X16250
X15750
X16000Y31500
X16500
X17000
X17600Y32400
Y33400
X16500Y35500
X16000
X16250Y36000
X16750
X16500Y36500
X16000
X16250Y37000
X16750
X16500Y37500
X16000
X16250Y38000
X15750
X16000Y38500
Y39500
Y40500
X16500
X16750Y40000
X17600Y39400
Y38900
X19750Y40000
X19500Y40500
X19750Y41000
X19500Y41500
X19750Y42000
X19500Y42500
X19750Y43000
X19500Y43500
X19750Y44000
X19500Y44500
X19750Y45000
X19500Y45500
X21250Y45000
Y44000
Y43000
X23250
X23750
X24250
X24750
X25250
X25750
X26250
X26750
X27250
X27750
X28000Y43500
X28500
X28750Y44000
X28250
X27750
X27250
X26750
X26250
X25750
X25250
X24750
X24250
X23750
X23250
X23500Y44500
X24000
X24500
X25000
X25500
X26000
X26500
X27000
X27500
X28000
X28500
X29000
X28750Y45000
X28250
X27750
X27250
X26750
X26250
X25750
X25250
X24750
X24250
X23750
X23250
X23500Y45500
X24000
X24500
X25000
X25500
X26000
X26500
X27000
X27500
X28000
X27750Y46000
X27250
X26750
X26250
X25750
X25250
X24750
X24250
X23750
X23250
X23500Y46500
X24000
X24500
X25000
X25500
X26000
X26500
X27000
X29000
X29500
X30000
X30500
X31000
X30750Y46000
X30250
X29750
X30000Y45500
X30500
X31000
X30750Y45000
X31000Y44500
Y44130
X30200Y44100
X30250Y43000
X30750
X31000Y42500
X30500
X30000
X29500
X29000
X29250Y43000
X29750
Y42000
X30250
X30750
X31000Y41500
X30500
X30000
X29500
X29000
X29250Y42000
Y41000
X29750
X30250
X30750
X31000Y40500
X30500
X30000
X29500
X29000
X29250Y40000
X29750
X30250
X30750
X31000Y39500
X30500
X30000
X29500
X29000
X29250Y39000
X29750
X30250
X30750
X31000Y37870
X30200Y37900
X30750Y37000
X30500Y36500
X30750Y36000
X30500Y35500
X30750Y35000
X30500Y34500
X30750Y34000
X30500Y33500
X30000
X30250Y33000
X29750
X29000Y33100
X28250Y33000
X27750
X27250
X26750
X26250
X25750
X26000Y33500
X26500
X27000
X27500
X28000
X28500
X28750Y34000
X29250
X29500Y34500
X29000
X28500
X28000
X27500
X27000
X26500
X26000
X26250Y35000
X26750
X27250
X27750
X28250
X28750
X29250
X29750
X29500Y35500
X29000
X28500
X28000
X27500
X27000
X26500
X26000
X26250Y36000
X26750
X27250
X27750
X28250
X28750
X29250
X29750
X29500Y36500
X29000
X28500
X28000
X27500
X27000
X26500
X26000
X26250Y37000
X26750
X27250
X27750
X28250
X28750
X29250
X29000Y37500
X28500
X28000
X27500
X27000
X26500
X26000
X26250Y38000
X26750
X27250
X27750
X28250
X28750
X28500Y38500
X28000
X27500
X27000
X26500
X27250Y39000
X27750
X27500Y39500
X27852Y40252
X27870Y41000
X27250
X26750
X26250
X25750
X25250
X24750
X24250
X23750
X23250
X23500Y40500
X24000
X24500
X25000
X25500
X26000
X26500
X27000
X26250Y40000
X25750
X25250
X24750
X24250
X23750
X24000Y39500
X24500
X25000
X25500
X26000
X25250Y39000
X24750
X24250
X23750
X24000Y38500
X24500
X25000
Y37500
X24750Y37000
X24250
X24500Y36500
X25000
X24750Y36000
X24250
X23750
X24000Y36500
Y37500
X24250Y38000
X23750
X23250Y37000
X21250
Y38000
Y39000
X22444Y38244
X22456Y39744
X22800Y41750
X23500Y42500
X24000
X24500
X25000
X25500
X26000
X26500
Y43500
X27000
X27500
X26000
X25500
X25000
X24500
X24000
X23500
X27848Y41748
X29750Y45000
X28750Y46000
X17700Y46200
Y46600
X17200
Y46200
X16750Y46000
X16250
X15750
X16000Y46500
X16500
Y45500
X16000
X16250Y45000
X16750
X16500Y44500
X16000
X16250Y44000
X16750
X16500Y43500
X16000
X15750Y44000
Y45000
X16000Y42500
Y41500
X16250Y41000
X15750
X16750Y43000
X15750Y37000
Y36000
X19750Y37000
X19500Y37500
X21250Y36000
Y35000
Y34000
X23750
X24250
X24750
X25000Y34500
X24500
X24000
X24250Y35000
X24750
X25000Y35500
X24500
X24000
X23750Y35000
X24000Y33500
X24500
X25000
X25300Y33300
X24750Y33000
X24250
X23750
X23300Y33300
X23900Y31400
X24340Y31660
X26000Y31500
X26500
X27000
X27750Y32000
X28250
Y34000
X27750
X27250
X26750
X26250
X25750
Y35000
Y36000
Y37000
X30250Y32300
X30750Y32000
X31000Y32500
Y31500
X30500
X31500
X32000
X31750Y32000
X31250
X31500Y32500
X32000
X32500
X33000
X33500
X34000
X33750Y33000
X33250
X32750
X32250
X31750
X32000Y33500
X32500
X33000
X33500
X34000
X34250Y34000
X33750
X33250
X32750
X32250
X31750
X32000Y34500
X32500
X33000
X33500
X34000
X34250Y35000
X33750
X33250
X32750
X32250
X31750
X32000Y35500
X32500
X33000
X33500
X34000
X34250Y36000
X33750
X33250
X32750
X32250
X31750
X32000Y36500
X32500
X33000
X33500
X34000
X34250Y37000
X33750
X33250
X32750
X32250
X32500Y37500
X33000
X33500
X34000
X34250Y38000
X33750
X33250
X33500Y38500
X34000
X34250Y39000
X35250
X35750
X36250
X36750
X37250
X37750
X38250
X38750
X39250
X39750
X39500Y39500
X39000
X38500
X38000
X37500
X37000
X36500
X36000
X35500
X35000
X35250Y40000
X35750
X36250
X36750
X37250
X37750
X38250
X38750
X39250
X39750
X39500Y40500
X39000
X38500
X38000
X37500
X37000
X36500
X36000
X35500
X35000
X34500
X34100Y40200
X34750Y40000
Y41000
X35250
X35750
X36250
X36750
X37250
X37750
X38250
X38750
X39250
X39750
X39500Y41500
X39000
X38500
X38000
X37500
X37000
X36500
X36000
X35500
X35750Y42000
X36250
X36750
X37250
X37750
X38250
X38750
X39250
X39750
X39500Y42500
X39000
X38500
X38000
X37500
X37000
X36500
X36000
X35500
X35750Y43000
X36250
X36750
X37250
X37750
X38250
X38750
X39250
X39750
X39500Y43500
X39000
X38500
X38000
X37500
X37000
X36500
X36000
X35500
X35000
X35250Y44000
X35750
X36250
X36750
X37250
X37750
X38250
X38750
X39250
X39750
X39500Y44500
X39000
X38500
X38000
X37500
X37000
X36500
X36000
X35500
X35000
X35250Y45000
X35750
X36250
X36750
X37250
X37750
X38250
X38750
X39250
X39750
X39500Y45500
X39000
X38500
X38000
X37500
X37000
X36500
X36000
X35500
X35000
X35250Y46000
X35750
X36250
X36750
X37250
X37750
X38250
X38750
X39250
X39750
X39500Y46500
X36500
X36000
X35500
X35000
X34000
X33500
X33000
X32500
X32000
X32250Y46000
X32750
X33250
X33750
X34250
X34000Y45500
X33500
X33000
X32500
X32750Y45000
X33250
X33750
X34250
X34000Y44500
X33500
X33000
X32500
X32250Y45000
X31250
Y46000
X31800Y44100
X31750Y43000
X32250
X32750
X33000Y42500
X32500
X32000
X31500
X31750Y42000
X32250
X32750
X33000Y41500
X32500
X32000
X31500
X31750Y41000
X32250
X32750
X33000Y40500
X32500
X32000
X31500
X31750Y40000
X32250
X32750
X33000Y39500
X32500
X32000
X31500
X31750Y39000
X32250
X32750
X31250
Y40000
Y41000
Y42000
Y43000
X33500Y43500
X34000
X34250Y44000
X33750
X33250
X34250Y43000
X35250
Y42000
X34250
X34100Y41700
X34250Y41000
X35000Y38500
X35500
X36000
X36500
X37000
X37500
X38000
X38500
X39000
X39500
X39750Y38000
X39250
X38750
X38250
X37750
X37250
X36750
X36250
X35750
X35250
X35500Y37500
X36000
X36500
X37000
X37500
X38000
X38500
X39000
X39500
X39750Y37000
X39250
X38750
X38250
X37750
X37250
X36750
X36250
X35750
X35250
X35500Y36500
X36000
X36500
X37000
X37500
X38000
X38500
X39000
X39500
X39750Y36000
X39250
X38750
X38250
X37750
X37250
X36750
X36250
X35750
X35250
X35500Y35500
X36000
X36500
X37000
X37500
X38000
X38500
X39000
X39500
X39750Y35000
X39250
X38750
X38250
X37750
X37250
X36750
X36250
X35750
X35250
X35500Y34500
X36000
X36500
X37000
X37500
X38000
X38500
X39000
X39500
X39750Y34000
X39250
X38750
X38250
X37750
X37250
X36750
X36250
X35750
X35250
X35500Y33500
X36000
X36500
X37000
X37500
X38000
X38500
X39000
X39500
X39750Y33000
X39500Y32500
X39750Y32000
X39250
X38750
X38250
X37750
X37250
X36750
X36250
X35750
X35250
X34750
X35500Y31500
X36000
X36500
X37000
X37500
X38000
X38500
X39000
X39500
X35000Y33500
X34600Y33200
X35000Y34500
Y35500
Y36500
Y37500
X32000
X31500Y36500
Y35500
Y34500
Y33500
X32600Y31900
X32900
X32750Y47000
X33250
X33750
X34250
X34000Y47500
X33500
X33000
X32500
X32000
X31500
X31750Y48000
X32250
X32750
X33250
X33750
X33500Y48500
X33000
X32500
X32000
X31500
X31750Y49000
X32250
X32750
X33500Y49500
X34000
X34500
X35000
X35500
X36000
X36500
X36250Y49000
X35750
X35250
X34750
X34250
X34500Y48500
X35000
X35500
X36000
X35750Y48000
X35250
X35500Y47500
X36000
X36250Y47000
X35750
X35250
X35000Y47500
X32250Y47000
X31750
X31250Y48000
Y49000
X39750Y47000
X30750
X30250
X29750
X29250
X28750
X29000Y47500
X29500
X30000
X29750Y48000
X29250
X28750
X28250
X27750
X28000Y48500
X28500
X29000
X29750Y49000
X30250
X30750
X31000Y48500
X30500
X30750Y48000
X28500Y47500
X28000
X27750Y47000
X26750
X26250
X25750
X25250
X24750
X24250
X23750
X24500Y47500
X25000
X25500
X26000
X25750Y48000
X25250
X24750
X26750
X27000Y48500
X27500
X22500Y47500
X22000
X19500
X17500
X17000
X16500
X16000
X16250Y48000
X16750
X17250
X17750
X18000Y48500
X17500
X17000
X16500
X16000
X16250Y47000
X16750
X15750
X15000Y47500
X14500Y49500
X14000
X13500
X13750Y49000
T02
X36188Y26189
Y26681
Y27173
Y27665
Y28157
Y28649
Y29141
Y29633
Y30126
Y30618
X38643
Y30126
Y29633
Y29141
Y28649
Y28157
Y27665
Y27173
Y26681
Y26189
T03
X19606Y12965
X20394
X29606
X30394
T04
X21500Y25400
Y26400
Y27400
Y28400
Y29400
Y30400
X15500Y30400
Y29400
Y28400
Y27400
Y26400
Y25400
Y31400
Y32400
Y33400
Y34400
Y35400
Y36400
Y37400
Y38400
Y39400
Y40400
Y41400
Y42400
Y43400
Y44400
Y45400
Y46400
X21500Y46400
Y45400
Y44400
Y43400
Y42400
Y41400
Y40400
Y39400
Y38400
Y37400
Y36400
Y35400
Y34400
Y33400
Y32400
Y31400
Y47400
Y48400
X15500Y48400
Y47400
T05
X23000Y11000
X24000
X25000
X33000
X34000
X35000
X39000Y15000
Y16000
Y17000
X31000Y22500
Y23500
Y24500
Y25500
Y26500
Y27500
X24000
Y26500
Y25500
Y24500
Y23500
Y22500
X12000Y34100
Y35100
Y37300
Y38300
Y40300
Y41300
T06
X20500Y47400
T07
X12000Y12000
X38000
Y48000
X12000
M30
